<svg width="100%" height="100%" viewBox="0 0 309 366" fill="none" xmlns="http://www.w3.org/2000/svg">
<!-- <g filter="url(#filter0_d_437_2310)"> -->
<rect width="309" height="366" rx="16" fill="#48A7A4" shape-rendering="crispEdges"/>
<path fill-rule="evenodd" clip-rule="evenodd" d="M202.974 255.865C201.618 256.888 200.591 258.231 200.077 259.131L198.341 258.139C198.966 257.044 200.162 255.481 201.769 254.268C203.378 253.053 205.503 252.117 207.92 252.52C210.624 252.971 212.005 254.306 213.161 255.424C213.247 255.507 213.331 255.589 213.415 255.669C214.018 256.246 214.556 256.718 215.237 257.061C215.902 257.396 216.76 257.635 218.012 257.635V259.635C216.485 259.635 215.313 259.339 214.336 258.847C213.374 258.362 212.657 257.712 212.032 257.114C211.951 257.037 211.872 256.96 211.793 256.884C210.656 255.789 209.671 254.84 207.591 254.493C205.905 254.212 204.327 254.843 202.974 255.865Z" fill="#222222"/>
<path fill-rule="evenodd" clip-rule="evenodd" d="M174.016 74.9368L169.742 82.6288L167.994 81.6576L172.267 73.9655L174.016 74.9368Z" fill="#222222"/>
<path fill-rule="evenodd" clip-rule="evenodd" d="M164.313 70.1777V82.1431H162.313V70.1777H164.313Z" fill="#222222"/>
<path fill-rule="evenodd" clip-rule="evenodd" d="M199.642 177.439H91.9539L102.21 271.453H102.258C103.34 276.211 122.42 280.001 145.798 280.001C169.177 280.001 188.257 276.211 189.338 271.453H189.386L199.642 177.439Z" fill="#D9D9D9"/>
<path fill-rule="evenodd" clip-rule="evenodd" d="M104.141 270.712L104.209 271.01C104.209 271.012 104.269 271.24 104.761 271.65C105.239 272.048 105.984 272.498 107.042 272.968C109.154 273.907 112.208 274.791 116.053 275.549C123.721 277.06 134.201 278.001 145.798 278.001C157.395 278.001 167.875 277.06 175.543 275.549C179.389 274.791 182.442 273.907 184.554 272.968C185.613 272.498 186.357 272.048 186.835 271.65C187.327 271.24 187.387 271.012 187.388 271.01L187.455 270.713L197.412 179.439H94.1839L104.141 270.712ZM102.21 271.453H102.258C103.34 276.211 122.42 280.001 145.798 280.001C169.177 280.001 188.257 276.211 189.338 271.453H189.386L199.642 177.439H91.9539L102.21 271.453Z" fill="#2A2A2A"/>
<path fill-rule="evenodd" clip-rule="evenodd" d="M203.916 173.166H87.6805V194.511C87.6804 194.518 87.6804 194.526 87.6804 194.533C87.6804 201.613 113.701 207.353 145.798 207.353C177.895 207.353 203.916 201.613 203.916 194.533C203.916 194.533 203.916 194.533 203.916 194.533H203.916V173.166Z" fill="white"/>
<path fill-rule="evenodd" clip-rule="evenodd" d="M203.916 194.533L203.916 173.166H87.6805V194.511L87.6804 194.533C87.6804 201.613 113.701 207.353 145.798 207.353C177.895 207.353 203.916 201.613 203.916 194.533ZM89.6805 175.166V194.519L89.6804 194.526L89.6804 194.533C89.6804 194.761 89.7761 195.162 90.3274 195.756C90.8883 196.361 91.8125 197.04 93.1724 197.75C95.8878 199.166 99.9482 200.501 105.133 201.645C115.471 203.925 129.85 205.353 145.798 205.353C161.746 205.353 176.125 203.925 186.463 201.645C191.648 200.501 195.708 199.166 198.424 197.75C199.784 197.04 200.708 196.361 201.269 195.756C201.82 195.162 201.916 194.761 201.916 194.533V192.533L201.916 175.166H89.6805Z" fill="#2A2A2A"/>
<path d="M203.916 173.166C203.916 180.246 177.896 185.986 145.798 185.986C113.701 185.986 87.6804 180.246 87.6804 173.166C87.6804 166.085 113.701 160.346 145.798 160.346C177.896 160.346 203.916 166.085 203.916 173.166Z" fill="white"/>
<path fill-rule="evenodd" clip-rule="evenodd" d="M201.269 174.389C201.82 173.795 201.916 173.394 201.916 173.166C201.916 172.938 201.82 172.537 201.269 171.942C200.708 171.338 199.784 170.658 198.424 169.949C195.708 168.533 191.648 167.197 186.463 166.054C176.125 163.773 161.747 162.346 145.798 162.346C129.85 162.346 115.471 163.773 105.134 166.054C99.9483 167.197 95.8878 168.533 93.1724 169.949C91.8125 170.658 90.8883 171.338 90.3274 171.942C89.7761 172.537 89.6804 172.938 89.6804 173.166C89.6804 173.394 89.7761 173.795 90.3274 174.389C90.8883 174.994 91.8125 175.673 93.1724 176.383C95.8878 177.799 99.9483 179.134 105.134 180.278C115.471 182.558 129.85 183.986 145.798 183.986C161.747 183.986 176.125 182.558 186.463 180.278C191.648 179.134 195.708 177.799 198.424 176.383C199.784 175.673 200.708 174.994 201.269 174.389ZM145.798 185.986C177.896 185.986 203.916 180.246 203.916 173.166C203.916 166.085 177.896 160.346 145.798 160.346C113.701 160.346 87.6804 166.085 87.6804 173.166C87.6804 180.246 113.701 185.986 145.798 185.986Z" fill="#2A2A2A"/>
<path d="M199.642 177.011C199.642 181.967 175.536 185.985 145.798 185.985C116.061 185.985 91.9539 181.967 91.9539 177.011C91.9539 172.055 116.061 168.037 145.798 168.037C175.536 168.037 199.642 172.055 199.642 177.011Z" fill="#2A2A2A"/>
<path d="M214.172 99.2364L192.805 121.458L160.328 147.953L142.38 131.714L199.643 84.707L214.172 99.2364Z" fill="white"/>
<path fill-rule="evenodd" clip-rule="evenodd" d="M199.709 83.3589L215.573 99.2227L193.484 122.195L160.294 149.271L140.849 131.677L199.709 83.3589ZM143.911 131.751L160.362 146.635L192.126 120.721L212.772 99.2502L199.577 86.0551L143.911 131.751Z" fill="#222222"/>
<path d="M132.123 121.886L147.507 108.639L182.5 114.5L169.301 135.133L132.123 121.886Z" fill="#D9D9D9"/>
<path fill-rule="evenodd" clip-rule="evenodd" d="M147.21 107.575L184.158 113.764L169.715 136.342L130.167 122.251L147.21 107.575ZM147.804 109.702L134.079 121.521L168.887 133.924L180.842 115.236L147.804 109.702Z" fill="#222222"/>
<path d="M129.986 82.5703C129.645 81.8865 126.425 80.8609 124.858 80.4336L126 87.5L129.559 85.989C130.841 85.1343 130.414 83.4249 129.986 82.5703Z" fill="#D9D9D9"/>
<path fill-rule="evenodd" clip-rule="evenodd" d="M123.624 79.0603L125.121 79.4688C125.925 79.688 127.154 80.0607 128.236 80.4706C128.774 80.6746 129.302 80.8975 129.731 81.125C129.944 81.2384 130.155 81.3649 130.338 81.5042C130.501 81.6286 130.735 81.8317 130.881 82.1231C131.141 82.644 131.414 83.4397 131.414 84.2796C131.414 85.1512 131.109 86.1572 130.114 86.821L130.036 86.8729L125.216 88.9191L123.624 79.0603ZM126.099 81.8459L126.784 86.0809L129.068 85.1111C129.309 84.9226 129.414 84.6584 129.414 84.2796C129.414 83.8723 129.282 83.4274 129.131 83.0989C129.129 83.0977 129.128 83.0964 129.126 83.0952C129.061 83.0458 128.953 82.9767 128.792 82.8911C128.471 82.7207 128.032 82.5322 127.527 82.3409C127.067 82.1665 126.573 81.9977 126.099 81.8459Z" fill="#222222"/>
<path d="M145.371 174.875C132.722 182.396 120.443 173.451 115.885 168.038C132.123 153.081 166.31 122.484 173.147 119.749C181.694 116.33 180.84 117.185 186.395 118.04C190.839 118.723 206.195 131.999 213.317 138.552L199.642 153.509L178.703 140.688C172.863 148.95 158.02 167.354 145.371 174.875Z" fill="white"/>
<path fill-rule="evenodd" clip-rule="evenodd" d="M184.28 116.653C184.916 116.774 185.63 116.91 186.547 117.051C187.265 117.162 188.107 117.504 188.992 117.959C189.896 118.423 190.922 119.045 192.028 119.778C194.239 121.245 196.823 123.194 199.476 125.314C204.784 129.556 210.421 134.529 213.994 137.816L214.728 138.491L199.824 154.792L178.976 142.028C175.961 146.218 171.023 152.518 165.327 158.735C159.288 165.328 152.335 171.898 145.882 175.735C139.243 179.682 132.683 179.299 127.24 177.242C121.83 175.198 117.486 171.493 115.12 168.682L114.503 167.95L115.207 167.302C123.332 159.819 135.946 148.423 147.388 138.553C153.108 133.619 158.543 129.06 162.98 125.56C165.198 123.81 167.175 122.318 168.819 121.175C170.441 120.047 171.805 119.209 172.776 118.821C177.01 117.127 179.088 116.414 180.824 116.294C181.717 116.233 182.491 116.328 183.356 116.481C183.655 116.533 183.958 116.591 184.28 116.653ZM180.962 118.289C179.6 118.383 177.832 118.952 173.519 120.677C172.781 120.973 171.581 121.69 169.961 122.817C168.363 123.928 166.421 125.393 164.218 127.13C159.815 130.603 154.406 135.141 148.695 140.068C137.607 149.632 125.409 160.639 117.282 168.111C119.577 170.605 123.366 173.64 127.947 175.371C132.945 177.26 138.849 177.59 144.86 174.016C151.055 170.332 157.848 163.939 163.853 157.384C169.844 150.844 174.989 144.21 177.886 140.111L178.427 139.347L199.461 152.225L211.905 138.614C208.346 135.368 203.139 130.801 198.227 126.876C195.595 124.773 193.063 122.865 190.922 121.445C189.851 120.735 188.893 120.156 188.079 119.738C187.246 119.31 186.635 119.088 186.243 119.028C185.295 118.882 184.505 118.732 183.85 118.607C183.54 118.548 183.261 118.495 183.01 118.45C182.206 118.309 181.618 118.244 180.962 118.289Z" fill="#222222"/>
<path d="M125.286 82.1437C124.602 81.118 124.573 78.0127 124.858 77.0156L105 76L107.765 95.3911L106.055 97.9551L121.867 100.946C122.009 99.9493 122.465 97.6987 123.149 96.6731C124.004 95.3911 124.431 96.6731 127.422 95.3911C130.414 94.1091 129.986 88.1264 129.132 86.417C128.277 84.7077 126.14 83.4257 125.286 82.1437Z" fill="white"/>
<path fill-rule="evenodd" clip-rule="evenodd" d="M103.838 74.9393L126.165 76.0811L125.82 77.2903C125.724 77.6246 125.652 78.5149 125.707 79.5136C125.734 79.9936 125.788 80.4567 125.869 80.845C125.955 81.2564 126.054 81.4929 126.118 81.5889C126.407 82.022 126.889 82.466 127.52 83.047C127.638 83.1554 127.761 83.2685 127.889 83.3873C128.632 84.0773 129.508 84.9344 130.026 85.9698C130.31 86.5377 130.516 87.355 130.636 88.2231C130.759 89.1111 130.803 90.134 130.715 91.1497C130.629 92.1591 130.409 93.2085 129.974 94.1198C129.535 95.0376 128.848 95.8678 127.816 96.3102C126.156 97.0217 125.156 97.032 124.484 97.032C124.232 97.032 124.152 97.0391 124.127 97.0427C124.105 97.0627 124.057 97.1139 123.981 97.2277C123.737 97.5939 123.485 98.2746 123.271 99.0778C123.065 99.8505 122.923 100.623 122.857 101.088L122.709 102.123L104.386 98.6569L106.721 95.1541L103.838 74.9393ZM124.142 97.0317C124.142 97.032 124.139 97.0341 124.134 97.0369C124.139 97.0328 124.142 97.0314 124.142 97.0317ZM106.161 77.0607L108.809 95.628L107.725 97.2532L121.057 99.7754C121.133 99.3969 121.227 98.9808 121.339 98.563C121.559 97.7352 121.877 96.7778 122.317 96.1183C122.593 95.704 122.924 95.3619 123.395 95.1796C123.783 95.0297 124.183 95.0311 124.433 95.0319C124.451 95.032 124.468 95.032 124.484 95.032C124.493 95.032 124.502 95.032 124.511 95.032C125.013 95.0322 125.72 95.0325 127.028 94.4719C127.492 94.2732 127.874 93.8749 128.169 93.2569C128.468 92.6325 128.649 91.8391 128.723 90.9789C128.796 90.1249 128.759 89.2516 128.655 88.4969C128.548 87.7225 128.38 87.151 128.237 86.8642C127.9 86.1902 127.281 85.5517 126.528 84.8528C126.426 84.7581 126.32 84.6608 126.211 84.5611C125.591 83.9939 124.889 83.3517 124.454 82.6983C124.176 82.2816 124.014 81.7452 123.912 81.2548C123.804 80.7413 123.741 80.1734 123.71 79.6243C123.679 79.068 123.68 78.4838 123.715 77.9584L106.161 77.0607Z" fill="#222222"/>
<path d="M96.6563 102.656C103.492 96.2455 109.619 96.8155 114.177 97.9551C124.433 98.3034 143.236 118.467 143.236 121.886C143.236 124.621 138.678 129.293 136.399 131.287C138.393 133.709 142.381 139.663 142.381 144.107C142.381 149.663 121.015 164.62 115.459 167.611C109.904 170.602 105.63 161.201 96.6563 142.825C87.6823 124.45 90.1029 108.801 96.6563 102.656Z" fill="white"/>
<path fill-rule="evenodd" clip-rule="evenodd" d="M114.319 96.9601C117.128 97.0887 120.37 98.52 123.572 100.511C126.847 102.547 130.209 105.25 133.23 108.034C136.253 110.818 138.958 113.705 140.915 116.124C141.893 117.332 142.697 118.44 143.263 119.371C143.545 119.836 143.779 120.275 143.945 120.672C144.103 121.05 144.236 121.475 144.236 121.886C144.236 122.818 143.859 123.799 143.367 124.705C142.865 125.632 142.183 126.587 141.449 127.494C140.254 128.97 138.87 130.377 137.765 131.402C138.742 132.679 139.967 134.486 141.021 136.47C142.288 138.855 143.382 141.633 143.382 144.107C143.382 145.088 142.925 146.127 142.299 147.122C141.657 148.143 140.754 149.247 139.686 150.387C137.548 152.668 134.661 155.186 131.627 157.603C125.565 162.431 118.783 166.957 115.933 168.491C115.116 168.931 114.277 169.167 113.415 169.158C112.552 169.15 111.73 168.897 110.947 168.455C109.416 167.589 107.974 165.958 106.511 163.79C103.829 159.817 100.799 153.603 96.8892 145.583C96.52 144.826 96.1431 144.053 95.7578 143.264C91.2074 133.947 89.5238 125.276 89.8345 118.111C90.1442 110.97 92.4441 105.235 95.9723 101.926C99.5179 98.6014 102.932 97.0423 106.099 96.4893C109.206 95.9464 111.997 96.3867 114.319 96.9601ZM106.443 98.4594C103.697 98.939 100.63 100.3 97.3404 103.385C94.3152 106.222 92.1281 111.384 91.8326 118.198C91.5382 124.988 93.1313 133.329 97.5549 142.387C97.9305 143.156 98.2976 143.908 98.6566 144.644C102.605 152.74 105.571 158.822 108.169 162.671C109.59 164.777 110.819 166.084 111.932 166.714C112.471 167.019 112.965 167.154 113.435 167.158C113.905 167.163 114.414 167.038 114.985 166.73C117.692 165.273 124.371 160.825 130.381 156.038C133.382 153.648 136.184 151.198 138.227 149.019C139.249 147.928 140.058 146.929 140.606 146.057C141.17 145.16 141.382 144.516 141.382 144.107C141.382 142.137 140.481 139.717 139.255 137.408C138.043 135.127 136.587 133.088 135.627 131.923L135.01 131.174L135.74 130.535C136.848 129.566 138.515 127.94 139.895 126.235C140.585 125.382 141.186 124.532 141.609 123.752C142.044 122.95 142.236 122.322 142.236 121.886C142.236 121.888 142.236 121.853 142.214 121.769C142.193 121.687 142.157 121.579 142.1 121.443C141.985 121.169 141.805 120.824 141.554 120.41C141.051 119.583 140.306 118.551 139.361 117.383C137.472 115.048 134.835 112.232 131.875 109.505C128.913 106.776 125.652 104.159 122.516 102.21C119.35 100.241 116.437 99.0325 114.143 98.9546L114.037 98.951L113.935 98.9253C111.718 98.3711 109.202 97.9774 106.443 98.4594Z" fill="#222222"/>
<path fill-rule="evenodd" clip-rule="evenodd" d="M128.181 134.295C128.48 134.531 128.646 134.56 128.704 134.56C129.604 134.56 130.931 134.018 132.339 133.158C133.705 132.323 134.966 131.303 135.689 130.58L137.104 131.994C136.26 132.837 134.872 133.954 133.382 134.865C131.934 135.749 130.198 136.56 128.704 136.56C128.015 136.56 127.42 136.242 126.941 135.864C126.458 135.482 126.002 134.967 125.572 134.404C124.805 133.398 124.012 132.087 123.212 130.768C123.12 130.615 123.028 130.462 122.935 130.31C122.024 128.81 121.094 127.314 120.112 126.09C119.116 124.848 118.163 124.011 117.252 123.68L117.935 121.8C119.375 122.324 120.612 123.517 121.672 124.839C122.747 126.179 123.739 127.781 124.645 129.272C124.736 129.423 124.827 129.572 124.916 129.72C125.731 131.064 126.465 132.277 127.163 133.191C127.548 133.696 127.886 134.062 128.181 134.295Z" fill="#222222"/>
<path d="M150.498 141.116C143.661 148.295 135.399 139.549 132.123 134.278L141.952 125.304L146.225 129.578C147.507 128.296 158.618 118.894 159.472 117.612C160.327 116.33 157.763 112.484 166.31 112.484C174.856 112.484 175.711 114.621 175.711 116.33C175.711 118.04 168.874 117.185 167.164 117.612C165.455 118.04 167.592 121.886 166.31 123.595C165.284 124.963 163.603 125.589 162.891 125.732C161.609 127.868 157.336 133.937 150.498 141.116Z" fill="white"/>
<path fill-rule="evenodd" clip-rule="evenodd" d="M159.104 114.138C159.913 112.438 161.995 111.484 166.31 111.484C170.618 111.484 173.196 112.014 174.719 112.903C175.51 113.364 176.033 113.931 176.344 114.572C176.649 115.201 176.711 115.823 176.711 116.33C176.711 116.939 176.384 117.385 176.009 117.662C175.665 117.917 175.245 118.065 174.859 118.162C174.077 118.357 173.074 118.425 172.106 118.452C171.452 118.47 170.761 118.47 170.119 118.47C169.807 118.47 169.507 118.47 169.228 118.472C168.392 118.478 167.805 118.505 167.49 118.565C167.487 118.58 167.484 118.599 167.481 118.62C167.442 118.911 167.484 119.346 167.568 119.994C167.575 120.044 167.582 120.096 167.589 120.148C167.662 120.706 167.751 121.375 167.744 122.01C167.736 122.702 167.618 123.518 167.11 124.195C166.066 125.586 164.5 126.31 163.532 126.6C161.992 129.061 157.763 134.937 151.222 141.806C149.363 143.758 147.336 144.691 145.263 144.816C143.217 144.938 141.243 144.266 139.47 143.229C135.945 141.167 132.956 137.513 131.274 134.806L130.835 134.1L141.983 123.922L146.252 128.19C147.061 127.462 148.362 126.327 149.816 125.058C150.632 124.346 151.496 123.592 152.349 122.843C153.871 121.509 155.373 120.179 156.547 119.105C157.134 118.567 157.633 118.099 158.009 117.73C158.197 117.544 158.348 117.39 158.461 117.266C158.518 117.205 158.562 117.155 158.594 117.116C158.616 117.09 158.629 117.073 158.635 117.065C158.639 117.053 158.655 117.007 158.669 116.9C158.687 116.749 158.692 116.575 158.698 116.321C158.698 116.297 158.699 116.272 158.7 116.246C158.713 115.714 158.734 114.913 159.104 114.138ZM160.653 117.148C160.617 117.441 160.536 117.819 160.304 118.167C160.13 118.429 159.784 118.788 159.412 119.154C159.011 119.549 158.492 120.036 157.897 120.58C156.707 121.67 155.191 123.011 153.668 124.347C152.76 125.144 151.855 125.934 151.014 126.668C149.004 128.422 147.362 129.855 146.932 130.285L146.225 130.992L141.92 126.687L133.422 134.447C135.06 136.895 137.622 139.831 140.48 141.503C142.037 142.413 143.615 142.911 145.143 142.819C146.645 142.729 148.215 142.063 149.774 140.426C156.57 133.29 160.796 127.28 162.034 125.217L162.261 124.838L162.695 124.751C163.266 124.637 164.683 124.097 165.51 122.995C165.643 122.818 165.738 122.512 165.744 121.988C165.749 121.503 165.68 120.973 165.602 120.383C165.597 120.34 165.591 120.296 165.585 120.252C165.509 119.671 165.418 118.958 165.499 118.354C165.541 118.037 165.64 117.667 165.878 117.337C166.132 116.985 166.494 116.749 166.922 116.642C167.489 116.501 168.368 116.479 169.213 116.472C169.523 116.47 169.84 116.47 170.16 116.47C170.784 116.47 171.423 116.47 172.051 116.453C173.007 116.426 173.82 116.36 174.373 116.222C174.526 116.184 174.633 116.146 174.705 116.115C174.688 115.862 174.64 115.643 174.544 115.445C174.428 115.204 174.203 114.917 173.712 114.63C172.671 114.023 170.549 113.484 166.31 113.484C162.077 113.484 161.169 114.453 160.909 114.998C160.744 115.344 160.713 115.745 160.699 116.295C160.698 116.322 160.698 116.35 160.697 116.378C160.692 116.61 160.685 116.89 160.653 117.148Z" fill="#222222"/>
<path d="M211.181 159.919C208.788 160.261 204.771 154.079 203.061 150.945L212.035 140.262C212.605 141.259 214.172 143.253 215.881 143.253C218.018 143.253 221.437 139.407 228.274 137.271C235.111 135.134 237.675 137.698 235.111 141.544C232.547 145.39 214.172 159.492 211.181 159.919Z" fill="#222222"/>
<path fill-rule="evenodd" clip-rule="evenodd" d="M237.086 138.971C237.068 139.979 236.645 141.046 235.943 142.099C235.217 143.188 233.484 144.874 231.371 146.729C229.221 148.617 226.572 150.767 223.915 152.807C221.259 154.846 218.581 156.784 216.372 158.243C215.269 158.972 214.27 159.59 213.442 160.042C212.663 160.469 211.899 160.827 211.322 160.909C210.293 161.056 209.305 160.501 208.525 159.889C207.699 159.24 206.864 158.335 206.084 157.361C204.519 155.407 203.056 153.024 202.183 151.424L201.856 150.825L212.192 138.521L212.904 139.766C213.147 140.191 213.62 140.854 214.208 141.396C214.82 141.959 215.403 142.253 215.881 142.253C216.148 142.253 216.572 142.123 217.282 141.74C217.807 141.455 218.391 141.089 219.086 140.653C219.308 140.513 219.541 140.367 219.787 140.214C221.788 138.97 224.437 137.422 227.976 136.316C229.75 135.762 231.296 135.496 232.587 135.496C233.866 135.496 234.985 135.758 235.806 136.355C236.672 136.985 237.105 137.915 237.086 138.971ZM232.587 137.496C231.556 137.496 230.217 137.711 228.572 138.225C225.274 139.256 222.795 140.699 220.843 141.913C220.622 142.05 220.405 142.186 220.192 142.32C219.482 142.766 218.821 143.181 218.234 143.498C217.487 143.902 216.683 144.253 215.881 144.253C214.651 144.253 213.596 143.551 212.853 142.867C212.521 142.561 212.22 142.23 211.96 141.907L204.271 151.06C205.119 152.551 206.356 154.5 207.645 156.111C208.382 157.031 209.107 157.803 209.76 158.315C210.46 158.864 210.871 158.953 211.039 158.929C211.21 158.905 211.675 158.729 212.483 158.288C213.242 157.872 214.19 157.288 215.27 156.574C217.428 155.149 220.065 153.241 222.697 151.22C225.329 149.2 227.942 147.078 230.052 145.226C232.198 143.342 233.724 141.823 234.279 140.989C234.86 140.119 235.078 139.424 235.086 138.935C235.094 138.496 234.94 138.198 234.63 137.973C234.276 137.715 233.632 137.496 232.587 137.496Z" fill="#222222"/>
<path d="M223.066 88.6738C223.408 91.0669 216.451 96.2457 213.317 97.955L203.408 87.8191C204.405 87.2494 206.4 85.6825 206.4 83.9731C206.4 81.8364 202.554 78.4178 200.417 71.5804C198.28 64.743 200.844 62.179 204.69 64.743C208.536 67.307 222.638 85.6825 223.066 88.6738Z" fill="#222222"/>
<path fill-rule="evenodd" clip-rule="evenodd" d="M202.117 62.7683C203.125 62.7863 204.193 63.2094 205.245 63.911C206.334 64.6373 208.021 66.3705 209.875 68.4836C211.763 70.6339 213.914 73.2823 215.953 75.9392C217.992 78.5955 219.93 81.273 221.389 83.482C222.118 84.5853 222.736 85.5842 223.189 86.4121C223.615 87.1918 223.973 87.9549 224.056 88.5324C224.135 89.0852 223.993 89.6246 223.79 90.0904C223.582 90.5643 223.275 91.0409 222.92 91.503C222.209 92.4275 221.217 93.4027 220.149 94.3269C218.013 96.1761 215.432 97.9405 213.796 98.8329L213.131 99.1954L201.789 87.5929L202.912 86.9509C203.338 86.7077 204 86.2346 204.542 85.646C205.105 85.0348 205.4 84.4517 205.4 83.9731C205.4 83.7065 205.27 83.282 204.886 82.5729C204.602 82.0478 204.235 81.4639 203.799 80.7688C203.66 80.5469 203.513 80.3137 203.36 80.0674C202.116 78.0663 200.568 75.4178 199.462 71.8787C198.908 70.1047 198.642 68.5587 198.642 67.267C198.642 65.9879 198.904 64.8695 199.501 64.048C200.131 63.1823 201.061 62.7494 202.117 62.7683ZM200.642 67.267C200.642 68.2988 200.857 69.6373 201.371 71.2821C202.402 74.5803 203.846 77.0598 205.059 79.0116C205.196 79.2325 205.332 79.4496 205.466 79.6623C205.912 80.3727 206.327 81.0337 206.645 81.6208C207.049 82.3673 207.4 83.1713 207.4 83.9731C207.4 85.2038 206.697 86.2588 206.013 87.0009C205.676 87.367 205.309 87.6943 204.956 87.9718L213.491 96.7027C214.991 95.8069 217.075 94.3431 218.84 92.8147C219.861 91.9314 220.74 91.0564 221.335 90.2834C221.632 89.8967 221.837 89.5627 221.957 89.2887C222.081 89.0065 222.082 88.8606 222.076 88.8152C222.051 88.6448 221.875 88.1794 221.434 87.3716C221.018 86.612 220.434 85.6645 219.721 84.5844C218.295 82.4266 216.387 79.7891 214.367 77.1571C212.347 74.5257 210.224 71.9126 208.372 69.8029C206.488 67.6559 204.969 66.1307 204.136 65.5751C203.265 64.9946 202.57 64.7767 202.082 64.768C201.642 64.7601 201.344 64.9148 201.119 65.2243C200.862 65.578 200.642 66.2224 200.642 67.267Z" fill="#222222"/>
<path d="M100.5 84.2815C95.3722 72.9998 105.771 67.3305 111.611 65.9061C125.713 64.1967 126.568 77.4441 125.286 77.8715C124.26 78.2133 122.864 76.8743 122.295 76.1621V84.2815L121.013 80.8628C120.443 80.0081 118.876 79.1532 117.594 80.8628C116.448 82.3916 119.018 84.8513 120.585 85.5635V91.5462C117.309 92.6858 110.415 94.9649 109.047 94.9649C107.338 94.9649 106.91 98.3836 100.5 84.2815Z" fill="#222222"/>
<path fill-rule="evenodd" clip-rule="evenodd" d="M126.391 78.099C126.285 78.3096 126.053 78.6699 125.602 78.8201C124.731 79.1104 123.883 78.7573 123.295 78.3945V84.2814L121.358 84.6326L120.124 81.3399C119.951 81.1252 119.672 80.9331 119.401 80.8868C119.198 80.8519 118.842 80.8653 118.394 81.4627C118.319 81.5627 118.279 81.6865 118.332 81.9194C118.392 82.1816 118.564 82.5219 118.862 82.9059C119.463 83.6796 120.371 84.3674 120.999 84.6531L121.585 84.9195V92.2571L120.914 92.4906C119.268 93.063 116.714 93.9216 114.396 94.6382C113.238 94.9963 112.129 95.3218 111.218 95.5587C110.359 95.7823 109.541 95.9648 109.047 95.9648C109.001 95.9648 108.933 95.9753 108.783 96.0277C108.761 96.0355 108.728 96.0479 108.688 96.0631C108.552 96.1142 108.33 96.1973 108.147 96.2457C107.853 96.3231 107.489 96.3702 107.072 96.2805C106.661 96.1922 106.278 95.9884 105.907 95.6887C105.197 95.1139 104.415 94.0846 103.435 92.4033C102.443 90.6985 101.198 88.2334 99.5899 84.6952C98.2401 81.7257 97.8832 79.0569 98.2644 76.692C98.6452 74.3295 99.7499 72.3484 101.197 70.7306C104.066 67.5236 108.336 65.6754 111.374 64.9345L111.432 64.9204L111.491 64.9133C115.174 64.4668 118.073 64.989 120.32 66.0976C122.566 67.206 124.092 68.867 125.084 70.5881C126.071 72.3005 126.536 74.0839 126.669 75.4873C126.735 76.1854 126.722 76.8268 126.629 77.3411C126.584 77.5947 126.511 77.8612 126.391 78.099ZM111.79 66.8917C108.993 67.5843 105.179 69.2789 102.688 72.064C101.446 73.4517 100.548 75.0923 100.239 77.0103C99.9301 78.9258 100.196 81.1963 101.411 83.8676C103.007 87.3805 104.22 89.7763 105.164 91.3968C106.121 93.0407 106.754 93.8008 107.166 94.1342C107.356 94.2885 107.46 94.3184 107.492 94.3252C107.518 94.3307 107.551 94.3344 107.638 94.3116C107.721 94.2897 107.777 94.2684 107.865 94.2349C107.927 94.2111 108.005 94.1813 108.121 94.1407C108.347 94.0612 108.666 93.9648 109.047 93.9648C109.237 93.9648 109.794 93.8625 110.715 93.6231C111.583 93.3971 112.659 93.0816 113.805 92.7274C115.8 92.1107 117.979 91.3854 119.585 90.8337V86.1634C118.783 85.6826 117.914 84.9455 117.282 84.1328C116.885 83.6217 116.531 83.0159 116.382 82.3647C116.227 81.6841 116.296 80.9272 116.794 80.2628C117.628 79.1506 118.697 78.7367 119.739 78.9155C120.352 79.0206 120.885 79.3188 121.295 79.682V73.3113L123.076 75.5374C123.317 75.8393 123.74 76.2783 124.19 76.5908C124.396 76.7338 124.558 76.8168 124.679 76.8644C124.716 76.5797 124.725 76.1749 124.678 75.675C124.569 74.5277 124.18 73.026 123.351 71.5868C122.527 70.1563 121.275 68.7993 119.435 67.8911C117.606 66.9886 115.128 66.4964 111.79 66.8917Z" fill="#222222"/>
<path d="M147.507 108.639L143.234 88.127L183.831 89.8363L183.5 113.5L147.507 108.639Z" fill="#D9D9D9"/>
<path fill-rule="evenodd" clip-rule="evenodd" d="M141.993 87.0738L184.845 88.8781L184.484 114.642L146.673 109.535L141.993 87.0738ZM144.475 89.1801L148.342 107.743L182.516 112.358L182.818 90.7945L144.475 89.1801Z" fill="#222222"/>
<path d="M109.87 36.7633C104.218 40.1842 106.896 46.1211 108.941 48.6619C109.489 49.0387 110.778 49.7892 111.543 49.7774C113.217 49.7774 115.581 49.8609 118.928 45.9567C121.136 43.3802 120.875 37.2805 120.299 33.2406C120.176 32.3787 118.86 31.9244 118.085 32.3207C116.625 33.0668 114.183 34.1529 109.87 36.7633Z" fill="white"/>
<path fill-rule="evenodd" clip-rule="evenodd" d="M118.739 33.176C118.63 33.1759 118.566 33.198 118.54 33.2111L118.085 32.3207L118.54 33.2111C118.251 33.3589 117.928 33.518 117.563 33.6975C116.051 34.4417 113.831 35.5352 110.388 37.6188C109.12 38.3861 108.374 39.2589 107.956 40.1375C107.537 41.0206 107.419 41.9744 107.514 42.9451C107.702 44.8556 108.706 46.734 109.627 47.9181C109.872 48.0778 110.226 48.2877 110.593 48.4637C111.071 48.6926 111.399 48.7795 111.528 48.7775L111.536 48.7774H111.543C111.57 48.7774 111.597 48.7774 111.623 48.7774C112.44 48.7778 113.257 48.7782 114.25 48.3974C115.276 48.0043 116.574 47.1668 118.169 45.3059C119.045 44.2836 119.523 42.407 119.659 40.0885C119.792 37.8328 119.593 35.3773 119.311 33.3995C119.303 33.3854 119.257 33.312 119.074 33.2407C118.965 33.1983 118.846 33.1762 118.739 33.176ZM119.799 31.377C120.422 31.6196 121.156 32.1725 121.289 33.0993C121.583 35.1584 121.8 37.7648 121.656 40.2063C121.515 42.5919 121.019 45.0533 119.687 46.6075C117.936 48.6509 116.378 49.7237 114.966 50.2649C113.621 50.7806 112.484 50.7788 111.662 50.7775C111.624 50.7775 111.587 50.7774 111.55 50.7774C110.916 50.7844 110.222 50.5035 109.728 50.2671C109.188 50.0081 108.684 49.699 108.375 49.4863L108.254 49.4032L108.162 49.2889C107.062 47.9229 105.767 45.6244 105.524 43.1401C105.4 41.8814 105.546 40.5508 106.15 39.2792C106.756 38.0031 107.794 36.851 109.352 35.9078C112.877 33.7745 115.182 32.6399 116.692 31.8971C117.046 31.7225 117.357 31.5695 117.63 31.4303C118.335 31.0696 119.167 31.1308 119.799 31.377Z" fill="#222222"/>
<path d="M98.0815 54.1114C101.347 57.1954 104.997 55.8782 106.509 54.5932C107.611 53.5498 107.094 51.2673 106.698 50.2564C106.169 48.5935 104.522 45.313 102.163 45.4944C100.436 45.6273 97.792 44.7139 95.8178 43.8592C94.9772 43.4953 94.0239 44.097 94.1366 45.0059C94.4793 47.7712 95.5367 51.708 98.0815 54.1114Z" fill="white"/>
<path fill-rule="evenodd" clip-rule="evenodd" d="M95.3643 44.992C95.714 47.66 96.7279 51.1554 98.9189 53.2246C100.297 54.5258 101.689 54.8555 102.869 54.7739C104.075 54.6905 105.107 54.1714 105.688 53.6901C105.838 53.5317 105.981 53.1625 105.947 52.4728C105.914 51.805 105.724 51.1126 105.563 50.7013L105.548 50.6642L105.536 50.6262C105.302 49.8905 104.814 48.7917 104.15 47.9272C103.453 47.0212 102.804 46.6684 102.257 46.7105C101.175 46.7937 99.9158 46.551 98.7503 46.2206C97.5714 45.8863 96.3766 45.429 95.3643 44.992ZM93.9453 42.9389C94.6101 42.4978 95.4939 42.3899 96.3023 42.7399C97.2577 43.1535 98.3595 43.5742 99.4157 43.8737C100.498 44.1804 101.424 44.3279 102.07 44.2783C103.881 44.139 105.235 45.3357 106.084 46.4404C106.953 47.5712 107.55 48.9229 107.849 49.8494C108.08 50.4507 108.336 51.3859 108.384 52.3524C108.43 53.2907 108.294 54.5832 107.348 55.4788L107.324 55.5014L107.299 55.5226C106.362 56.3191 104.829 57.0836 103.037 57.2075C101.198 57.3347 99.1317 56.781 97.244 54.9981C94.3828 52.296 93.2789 48.0024 92.9261 45.1559C92.808 44.2031 93.2648 43.3905 93.9453 42.9389Z" fill="#222222"/>
<path fill-rule="evenodd" clip-rule="evenodd" d="M116.297 39.6873C116.591 40.1545 116.451 40.772 115.984 41.0666C112.864 43.0335 110.916 46.6449 109.778 50.5317C108.646 54.3982 108.366 58.3699 108.456 60.8207C108.476 61.3726 108.045 61.8364 107.493 61.8565C106.941 61.8767 106.477 61.4457 106.457 60.8938C106.361 58.2628 106.657 54.0729 107.859 49.9698C109.054 45.8871 111.196 41.721 114.918 39.3747C115.385 39.0802 116.002 39.2202 116.297 39.6873Z" fill="#222222"/>
<path fill-rule="evenodd" clip-rule="evenodd" d="M100.781 50.5949C101.007 50.0909 101.598 49.8655 102.102 50.0914C104.554 51.1902 106.107 53.263 107.053 55.3056C108 57.347 108.388 59.455 108.455 60.8075C108.483 61.3591 108.058 61.8286 107.507 61.8562C106.955 61.8837 106.486 61.4589 106.458 60.9073C106.402 59.781 106.065 57.9289 105.239 56.1467C104.413 54.3656 103.146 52.7511 101.284 51.9164C100.78 51.6905 100.555 51.0988 100.781 50.5949Z" fill="#222222"/>
<path d="M103.981 62.7068C102.472 64.0965 102.472 66.2032 102.472 66.2032C101.229 67.3072 100.366 69.0115 102.253 70.0655L118.974 66.2032C119.536 64.2374 117.405 62.5448 116.27 61.9443C113.925 60.3491 111.1 60.1891 109.981 60.3084C108.769 60.5067 108.034 61.3047 107.818 61.6789C106.978 61.693 104.95 61.8154 103.981 62.7068Z" fill="white"/>
<path fill-rule="evenodd" clip-rule="evenodd" d="M110.115 61.2999C109.268 61.4485 108.778 62.0161 108.684 62.1788L108.401 62.6692L107.834 62.6788C107.443 62.6853 106.791 62.7175 106.14 62.8452C105.455 62.9795 104.933 63.1896 104.659 63.4425C104.089 63.9667 103.785 64.6463 103.626 65.2363C103.548 65.5269 103.509 65.7812 103.49 65.9593C103.48 66.0478 103.476 66.116 103.474 66.1587C103.473 66.18 103.472 66.1949 103.472 66.2025L103.472 66.2075L103.472 66.6525L103.136 66.9509C102.584 67.4413 102.245 67.9614 102.17 68.3438C102.139 68.5072 102.158 68.622 102.208 68.7199C102.243 68.7878 102.31 68.8838 102.445 68.9948L118.057 65.3888C118.014 65.008 117.821 64.609 117.482 64.1923C116.983 63.5771 116.283 63.0822 115.802 62.8283L115.753 62.8023L115.707 62.7711C113.635 61.361 111.097 61.2033 110.115 61.2999ZM107.306 60.6966C107.792 60.1476 108.635 59.5152 109.819 59.3216L109.847 59.317L109.875 59.3141C111.145 59.1786 114.2 59.3491 116.787 61.0869C117.439 61.4397 118.344 62.0805 119.035 62.9312C119.741 63.8008 120.344 65.0506 119.936 66.4779L119.774 67.0448L102.102 71.1266L101.766 70.9385C101.167 70.6042 100.701 70.1699 100.425 69.6252C100.144 69.0727 100.104 68.4948 100.207 67.9624C100.374 67.1025 100.917 66.3335 101.501 65.7453C101.529 65.485 101.585 65.1257 101.695 64.716C101.913 63.9052 102.364 62.8367 103.304 61.9711C103.998 61.3325 104.974 61.0358 105.755 60.8826C106.322 60.7715 106.872 60.7201 107.306 60.6966Z" fill="#222222"/>
<path d="M171.494 236.566C171.013 236.41 170.685 236.395 170.511 236.521C170.258 236.713 169.934 237.342 169.537 238.406C169.14 239.47 168.873 240.38 168.734 241.138C168.692 241.366 168.677 241.517 168.689 241.589C168.701 241.661 168.749 241.697 168.833 241.697C168.93 241.697 169.071 241.589 169.257 241.372C169.45 241.15 169.666 240.834 169.906 240.426C170.49 239.428 170.986 238.231 171.394 236.837L171.494 236.566ZM169.627 243.149L169.492 243.302C169.113 243.753 168.815 244.065 168.599 244.24C168.389 244.414 168.175 244.501 167.959 244.501H167.833C167.622 244.501 167.316 244.3 166.913 243.897C166.378 243.362 166.143 242.764 166.209 242.103C166.342 240.768 166.69 239.35 167.255 237.847C167.821 236.338 168.365 235.385 168.888 234.988C169.302 234.67 169.795 234.51 170.366 234.51C170.919 234.51 171.445 234.697 171.944 235.069C172.059 234.685 172.251 234.492 172.521 234.492L173.649 234.474C173.973 234.474 174.102 234.64 174.036 234.97C173.79 235.962 173.441 237.264 172.99 238.875C172.539 240.48 172.107 241.989 171.692 243.401C171.283 244.814 171.067 245.562 171.043 245.646C170.778 246.602 170.354 247.236 169.771 247.549C169.453 247.723 169.206 247.838 169.032 247.892C168.857 247.952 168.662 247.964 168.446 247.928C168.229 247.898 167.983 247.802 167.706 247.639L165.822 246.575C165.659 246.503 165.572 246.395 165.56 246.251C165.548 246.106 165.587 245.992 165.677 245.908L166.264 245.114C166.372 245 166.468 244.931 166.552 244.907C166.642 244.883 166.75 244.901 166.877 244.961L168.482 245.836C168.692 245.944 168.857 245.8 168.978 245.403L169.627 243.149Z" fill="#222222"/>
<path d="M162.026 237.206L163.379 235.322C163.595 235.033 163.809 234.82 164.019 234.682C164.236 234.543 164.485 234.474 164.768 234.474H165.669C165.952 234.474 166.18 234.561 166.355 234.736C166.529 234.91 166.559 235.217 166.445 235.655L164.19 244.186C164.136 244.372 163.983 244.465 163.731 244.465L162.234 244.447C162.168 244.447 162.107 244.411 162.053 244.339C162.005 244.261 162.002 244.15 162.044 244.005L163.19 239.794C163.202 239.74 163.223 239.662 163.253 239.56C163.289 239.452 163.316 239.362 163.334 239.289C163.358 239.217 163.382 239.13 163.406 239.028C163.436 238.926 163.454 238.842 163.46 238.775C163.472 238.709 163.481 238.646 163.487 238.586C163.493 238.52 163.487 238.472 163.469 238.442C163.457 238.406 163.433 238.388 163.397 238.388C163.361 238.388 163.325 238.4 163.289 238.424C163.259 238.448 163.22 238.49 163.172 238.55C163.129 238.61 163.093 238.664 163.063 238.712C163.033 238.76 162.988 238.836 162.928 238.938C162.868 239.04 162.82 239.121 162.784 239.181C162.447 239.728 161.96 240.63 161.323 241.886C160.692 243.143 160.301 243.879 160.151 244.096C159.976 244.33 159.784 244.447 159.574 244.447H158.447C158.338 244.447 158.254 244.402 158.194 244.312C158.128 244.216 158.113 244.102 158.149 243.969L160.557 234.988C160.635 234.646 160.818 234.474 161.107 234.474H162.288C162.522 234.474 162.676 234.519 162.748 234.609C162.82 234.694 162.82 234.841 162.748 235.051L162.026 237.206Z" fill="#222222"/>
<path d="M156.493 232.004C156.493 231.643 156.622 231.336 156.88 231.084C157.139 230.831 157.463 230.705 157.854 230.705H158.116C158.416 230.705 158.696 230.84 158.954 231.111C159.219 231.375 159.351 231.673 159.351 232.004C159.351 232.364 159.216 232.668 158.945 232.914C158.681 233.155 158.35 233.275 157.953 233.275H157.71C157.385 233.275 157.1 233.149 156.853 232.896C156.613 232.638 156.493 232.34 156.493 232.004ZM158.485 234.898C158.485 234.898 157.686 237.946 156.087 244.041C156.015 244.312 155.828 244.447 155.528 244.447H154.031C153.694 244.447 153.559 244.306 153.625 244.023L156.033 234.88C156.105 234.609 156.288 234.474 156.583 234.474H158.08C158.416 234.474 158.552 234.616 158.485 234.898Z" fill="#222222"/>
<path d="M146.135 241.111C147.007 239.067 147.662 237.083 148.101 235.16C148.095 235.129 148.092 235.084 148.092 235.024C148.092 234.958 148.089 234.91 148.083 234.88C148.065 234.742 148.098 234.64 148.182 234.573C148.273 234.507 148.387 234.474 148.525 234.474H149.832C149.959 234.474 150.052 234.507 150.112 234.573C150.178 234.64 150.22 234.748 150.238 234.898C150.413 237.068 150.44 239.124 150.319 241.066C151.233 238.896 151.909 236.792 152.348 234.754C152.396 234.495 152.556 234.378 152.826 234.402L154.215 234.51C154.353 234.528 154.455 234.579 154.521 234.664C154.588 234.748 154.6 234.85 154.557 234.97C153.427 238.631 152.276 241.438 151.104 243.392C150.894 243.747 150.704 244.011 150.536 244.186C150.374 244.36 150.208 244.447 150.04 244.447L148.723 244.375C148.561 244.363 148.42 244.255 148.3 244.05C148.179 243.84 148.131 243.591 148.155 243.302C148.245 242.298 148.291 241.18 148.291 239.948C147.75 241.432 147.23 242.581 146.731 243.392C146.52 243.747 146.331 244.011 146.163 244.186C146 244.36 145.838 244.447 145.676 244.447L144.368 244.375C144.206 244.363 144.062 244.255 143.935 244.05C143.815 243.84 143.767 243.591 143.791 243.302C144.007 240.855 143.983 238.048 143.719 234.88C143.701 234.742 143.734 234.64 143.818 234.573C143.908 234.507 144.022 234.474 144.161 234.474H145.64C145.778 234.474 145.877 234.507 145.937 234.573C146.003 234.64 146.045 234.748 146.063 234.898C146.232 237.044 146.256 239.115 146.135 241.111Z" fill="#222222"/>
<path d="M139.507 241.453C139.699 241.087 139.871 240.684 140.021 240.245C140.171 239.806 140.27 239.464 140.318 239.217C140.385 239.001 140.445 238.691 140.499 238.288C140.553 237.886 140.553 237.483 140.499 237.08C140.445 236.671 140.303 236.467 140.075 236.467C139.823 236.467 139.6 236.596 139.408 236.855C139.215 237.113 139.02 237.495 138.822 238C138.816 238.012 138.783 238.096 138.722 238.252C138.662 238.409 138.605 238.556 138.551 238.694C138.503 238.832 138.44 239.019 138.362 239.253C138.29 239.488 138.226 239.707 138.172 239.912C138.124 240.11 138.082 240.329 138.046 240.57C138.01 240.81 137.992 241.027 137.992 241.219C137.992 241.628 138.019 241.913 138.073 242.076C138.133 242.238 138.272 242.34 138.488 242.382C138.698 242.352 138.876 242.274 139.02 242.148C139.164 242.022 139.327 241.79 139.507 241.453ZM136.829 236.855C137.147 236.127 137.595 235.523 138.172 235.042C138.755 234.555 139.447 234.312 140.246 234.312C140.709 234.312 141.112 234.399 141.455 234.573C141.803 234.748 142.095 235.072 142.329 235.547C142.431 235.74 142.507 235.977 142.555 236.26C142.609 236.536 142.636 236.756 142.636 236.918C142.642 237.08 142.645 237.357 142.645 237.747C142.645 238.511 142.525 239.298 142.284 240.11C142.044 240.921 141.722 241.667 141.319 242.346C140.905 243.037 140.442 243.585 139.931 243.987C139.426 244.39 138.903 244.591 138.362 244.591C137.965 244.591 137.631 244.546 137.361 244.456C137.09 244.372 136.814 244.18 136.531 243.879C136.255 243.585 136.05 243.197 135.918 242.716C135.786 242.229 135.72 241.73 135.72 241.219C135.72 239.872 136.089 238.418 136.829 236.855Z" fill="#222222"/>
<path d="M136.874 230.858C136.874 230.858 135.756 235.253 133.519 244.041C133.447 244.312 133.261 244.447 132.96 244.447H131.545C131.346 244.447 131.208 244.39 131.13 244.276C131.046 244.162 131.022 244.02 131.058 243.852L134.385 230.84C134.457 230.57 134.641 230.435 134.935 230.435H136.468C136.805 230.435 136.94 230.576 136.874 230.858Z" fill="#222222"/>
<path d="M128.837 236.566C128.356 236.41 128.029 236.395 127.854 236.521C127.602 236.713 127.277 237.342 126.881 238.406C126.484 239.47 126.216 240.38 126.078 241.138C126.036 241.366 126.021 241.517 126.033 241.589C126.045 241.661 126.093 241.697 126.177 241.697C126.273 241.697 126.415 241.589 126.601 241.372C126.793 241.15 127.01 240.834 127.25 240.426C127.833 239.428 128.329 238.231 128.738 236.837L128.837 236.566ZM126.971 243.149L126.835 243.302C126.457 243.753 126.159 244.065 125.943 244.24C125.732 244.414 125.519 244.501 125.303 244.501H125.176C124.966 244.501 124.659 244.3 124.257 243.897C123.722 243.362 123.487 242.764 123.553 242.103C123.685 240.768 124.034 239.35 124.599 237.847C125.164 236.338 125.708 235.385 126.231 234.988C126.646 234.67 127.139 234.51 127.71 234.51C128.263 234.51 128.789 234.697 129.288 235.069C129.402 234.685 129.595 234.492 129.865 234.492L130.992 234.474C131.317 234.474 131.446 234.64 131.38 234.97C131.134 235.962 130.785 237.264 130.334 238.875C129.883 240.48 129.45 241.989 129.036 243.401C128.627 244.814 128.41 245.562 128.386 245.646C128.122 246.602 127.698 247.236 127.115 247.549C126.796 247.723 126.55 247.838 126.376 247.892C126.201 247.952 126.006 247.964 125.789 247.928C125.573 247.898 125.327 247.802 125.05 247.639L123.165 246.575C123.003 246.503 122.916 246.395 122.904 246.251C122.892 246.106 122.931 245.992 123.021 245.908L123.607 245.114C123.716 245 123.812 244.931 123.896 244.907C123.986 244.883 124.094 244.901 124.22 244.961L125.826 245.836C126.036 245.944 126.201 245.8 126.321 245.403L126.971 243.149Z" fill="#222222"/>
<path fill-rule="evenodd" clip-rule="evenodd" d="M153.917 73.0889L159.473 82.4903L157.751 83.5078L152.196 74.1064L153.917 73.0889Z" fill="#222222"/>
<path fill-rule="evenodd" clip-rule="evenodd" d="M78.5944 273.692C76.8147 274.229 75.4625 275.376 74.7863 276.237L73.2136 275.001C74.1043 273.868 75.7862 272.451 78.0163 271.777C80.2899 271.091 83.0821 271.196 86.068 273.062C88.8489 274.8 90.4595 276.229 91.323 277.364C91.7549 277.931 92.0339 278.47 92.1496 278.974C92.264 279.474 92.2339 280.038 91.8933 280.492L90.2934 279.292C90.2202 279.39 90.2112 279.465 90.2105 279.484C90.21 279.475 90.2079 279.455 90.2001 279.421C90.1688 279.285 90.0579 279.004 89.7313 278.575C89.0777 277.716 87.697 276.438 85.008 274.758C82.524 273.205 80.3307 273.168 78.5944 273.692ZM90.2105 279.488C90.2105 279.488 90.2104 279.487 90.2105 279.484C90.2107 279.487 90.2106 279.488 90.2105 279.488Z" fill="#222222"/>
<path fill-rule="evenodd" clip-rule="evenodd" d="M187.137 273.692C185.358 274.229 184.005 275.376 183.329 276.237L181.757 275.001C182.647 273.868 184.329 272.451 186.559 271.777C188.833 271.091 191.625 271.196 194.611 273.062C197.392 274.8 199.002 276.229 199.866 277.364C200.298 277.931 200.577 278.47 200.693 278.974C200.807 279.474 200.777 280.038 200.436 280.492L198.836 279.292C198.763 279.39 198.754 279.465 198.753 279.484C198.753 279.475 198.751 279.455 198.743 279.421C198.712 279.285 198.601 279.004 198.274 278.575C197.621 277.716 196.24 276.438 193.551 274.758C191.067 273.205 188.874 273.168 187.137 273.692ZM198.753 279.488C198.753 279.488 198.753 279.487 198.753 279.484C198.754 279.487 198.754 279.488 198.753 279.488Z" fill="#222222"/>
<path fill-rule="evenodd" clip-rule="evenodd" d="M92.468 271.703C90.4132 272.551 88.7918 273.778 87.954 274.616L86.5398 273.202C87.5538 272.188 89.3938 270.808 91.705 269.854C94.0227 268.898 96.8821 268.343 99.8822 269.093C103.548 270.009 105.308 271.643 106.611 273.003C106.691 273.087 106.768 273.167 106.843 273.245C107.984 274.442 108.56 275.046 109.896 275.046C111.209 275.046 112.112 274.599 113.266 274.029C113.551 273.888 113.85 273.74 114.175 273.59C115.817 272.827 117.757 272.231 120.804 272.935C125.412 273.998 127.923 276.071 128.676 277.2L127.012 278.31C126.625 277.73 124.635 275.871 120.354 274.883C117.846 274.305 116.367 274.777 115.018 275.404C114.783 275.512 114.542 275.633 114.292 275.758C113.105 276.352 111.72 277.046 109.896 277.046C107.673 277.046 106.523 275.825 105.455 274.691C105.359 274.589 105.263 274.487 105.167 274.387C104.014 273.184 102.569 271.826 99.3971 271.033C96.9273 270.416 94.5162 270.858 92.468 271.703Z" fill="#222222"/>
<path fill-rule="evenodd" clip-rule="evenodd" d="M201.012 271.703C198.957 272.551 197.336 273.778 196.498 274.616L195.084 273.202C196.098 272.188 197.938 270.808 200.249 269.854C202.567 268.898 205.426 268.343 208.426 269.093C212.092 270.009 213.852 271.643 215.155 273.003C215.235 273.087 215.312 273.167 215.387 273.245C216.528 274.442 217.104 275.046 218.44 275.046C219.753 275.046 220.656 274.599 221.81 274.029C222.095 273.888 222.394 273.74 222.719 273.59C224.361 272.827 226.301 272.231 229.348 272.935C233.956 273.998 236.467 276.071 237.22 277.2L235.556 278.31C235.169 277.73 233.178 275.871 228.898 274.883C226.39 274.305 224.911 274.777 223.561 275.404C223.327 275.512 223.086 275.633 222.836 275.758C221.649 276.352 220.264 277.046 218.44 277.046C216.217 277.046 215.067 275.825 213.999 274.691C213.903 274.589 213.807 274.487 213.711 274.387C212.558 273.184 211.112 271.826 207.941 271.033C205.471 270.416 203.06 270.858 201.012 271.703Z" fill="#222222"/>
<!-- </g> -->
<defs>
<filter id="filter0_d_437_2310" x="0" y="0" width="309" height="366" filterUnits="userSpaceOnUse" color-interpolation-filters="sRGB">
<feFlood flood-opacity="0" result="BackgroundImageFix"/>
<feColorMatrix in="SourceAlpha" type="matrix" values="0 0 0 0 0 0 0 0 0 0 0 0 0 0 0 0 0 0 127 0" result="hardAlpha"/>
<feOffset/>
<feGaussianBlur stdDeviation="8"/>
<feComposite in2="hardAlpha" operator="out"/>
<feColorMatrix type="matrix" values="0 0 0 0 0 0 0 0 0 0 0 0 0 0 0 0 0 0 0.12 0"/>
<feBlend mode="normal" in2="BackgroundImageFix" result="effect1_dropShadow_437_2310"/>
<feBlend mode="normal" in="SourceGraphic" in2="effect1_dropShadow_437_2310" result="shape"/>
</filter>
</defs>
</svg>
