<svg width="100%" height="100%" viewBox="0 0 309 366" fill="none" xmlns="http://www.w3.org/2000/svg">
<!-- <g filter="url(#filter0_d_437_2351)"> -->
<rect width="309" height="366" rx="16" fill="#FFDA7F" shape-rendering="crispEdges"/>
<path fill-rule="evenodd" clip-rule="evenodd" d="M176.269 218.504V207.752H178.269V218.504H176.269Z" fill="#222222"/>
<path d="M74.7097 252.952C64.3184 259.888 52.9076 261.036 49.2228 255.516C45.538 249.996 50.9748 239.898 61.3661 232.962C71.7573 226.025 83.1682 224.877 86.853 230.397C90.5377 235.917 85.101 246.015 74.7097 252.952Z" fill="#D9D9D9"/>
<path fill-rule="evenodd" clip-rule="evenodd" d="M59.2511 256.915C63.4775 256.49 68.6205 254.612 73.5993 251.288C78.5782 247.965 82.2852 243.935 84.2989 240.195C86.3597 236.367 86.4199 233.351 85.1896 231.508C83.9592 229.664 81.1501 228.563 76.8247 228.998C72.5983 229.424 67.4553 231.302 62.4764 234.625C57.4976 237.949 53.7906 241.978 51.7769 245.718C49.7161 249.546 49.6559 252.563 50.8862 254.406C52.1166 256.249 54.9257 257.35 59.2511 256.915ZM49.2228 255.516C52.9076 261.036 64.3184 259.888 74.7097 252.952C85.101 246.015 90.5377 235.917 86.853 230.397C83.1682 224.877 71.7573 226.025 61.3661 232.962C50.9748 239.898 45.538 249.996 49.2228 255.516Z" fill="#222222"/>
<path d="M102.511 144.273C102.943 143.408 107.016 142.111 108.998 141.57L107.553 150.509L103.051 148.598C101.43 147.516 101.97 145.354 102.511 144.273Z" fill="white"/>
<path fill-rule="evenodd" clip-rule="evenodd" d="M110.232 140.197L108.734 140.606C107.723 140.881 106.177 141.35 104.819 141.865C104.142 142.121 103.486 142.399 102.959 142.679C102.696 142.819 102.442 142.971 102.226 143.135C102.03 143.285 101.773 143.512 101.616 143.826C101.299 144.46 100.97 145.426 100.97 146.435C100.97 147.477 101.331 148.653 102.497 149.43L102.575 149.482L108.337 151.928L110.232 140.197ZM107.758 142.975L106.77 149.09L103.539 147.718C103.132 147.416 102.97 146.986 102.97 146.435C102.97 145.848 103.165 145.22 103.378 144.776C103.391 144.764 103.41 144.748 103.438 144.726C103.536 144.652 103.687 144.557 103.897 144.445C104.317 144.222 104.884 143.979 105.527 143.735C106.25 143.462 107.036 143.199 107.758 142.975Z" fill="#222222"/>
<path d="M108.457 143.732C109.322 142.435 109.358 138.507 108.998 137.246L134.118 135.961L130.62 160.49L132.995 166.32L112.782 167.517C112.601 166.256 112.025 163.409 111.16 162.111C110.079 160.49 109.538 162.111 105.754 160.49C101.97 158.868 102.511 151.3 103.592 149.138C104.673 146.976 107.376 145.354 108.457 143.732Z" fill="white"/>
<path fill-rule="evenodd" clip-rule="evenodd" d="M135.279 134.9L107.69 136.311L108.036 137.52C108.169 137.987 108.258 139.149 108.188 140.42C108.154 141.037 108.084 141.636 107.978 142.144C107.867 142.675 107.734 143.014 107.624 143.178C107.24 143.754 106.601 144.342 105.804 145.075C105.656 145.212 105.502 145.353 105.344 145.5C104.403 146.374 103.328 147.429 102.697 148.691C102.357 149.372 102.101 150.373 101.951 151.459C101.798 152.565 101.744 153.839 101.852 155.102C101.96 156.359 102.232 157.653 102.766 158.767C103.302 159.889 104.13 160.882 105.36 161.409C107.417 162.29 108.643 162.301 109.47 162.301C109.892 162.301 109.976 162.314 110.03 162.335C110.038 162.338 110.059 162.346 110.1 162.383C110.147 162.426 110.223 162.509 110.328 162.666C110.662 163.168 110.989 164.066 111.261 165.085C111.524 166.074 111.706 167.062 111.791 167.659L111.922 168.57L134.447 167.236L131.648 160.363L135.279 134.9ZM132.956 137.022L129.592 160.617L131.542 165.404L113.62 166.466C113.514 165.9 113.371 165.237 113.194 164.57C112.915 163.527 112.522 162.352 111.992 161.557C111.659 161.058 111.278 160.673 110.752 160.469C110.311 160.299 109.852 160.3 109.531 160.301C109.51 160.301 109.49 160.301 109.47 160.301L109.443 160.301C108.785 160.301 107.852 160.301 106.148 159.571C105.486 159.287 104.963 158.726 104.57 157.905C104.174 157.077 103.94 156.039 103.845 154.931C103.75 153.83 103.798 152.705 103.932 151.733C104.069 150.741 104.286 149.985 104.486 149.585C104.936 148.685 105.754 147.848 106.705 146.965C106.837 146.842 106.974 146.717 107.113 146.59C107.899 145.87 108.757 145.084 109.289 144.287C109.612 143.802 109.808 143.164 109.935 142.554C110.068 141.921 110.147 141.216 110.185 140.531C110.229 139.733 110.221 138.899 110.158 138.188L132.956 137.022Z" fill="#222222"/>
<path d="M145.013 253.289C145.013 267.204 123.222 270.999 96.3431 270.999C69.4637 270.999 46.2422 270.999 47.6737 253.289C49.1052 235.58 69.4637 235.58 96.3431 235.58C123.222 235.58 145.013 243.509 145.013 253.289Z" fill="#D9D9D9"/>
<path fill-rule="evenodd" clip-rule="evenodd" d="M139.819 260.469C141.913 258.502 143.013 256.171 143.013 253.289C143.013 251.646 142.103 249.822 139.884 247.912C137.67 246.008 134.35 244.203 130.074 242.646C121.537 239.54 109.612 237.58 96.3431 237.58C82.8006 237.58 71.2893 237.595 62.9625 239.731C58.8376 240.789 55.6912 242.325 53.5053 244.477C51.3614 246.587 49.9916 249.437 49.6672 253.451C49.3485 257.393 50.3936 260.122 52.3358 262.141C54.3553 264.24 57.542 265.777 61.8702 266.843C70.5659 268.985 82.8047 268.999 96.3431 268.999C109.742 268.999 121.663 268.047 130.174 265.449C134.426 264.151 137.667 262.489 139.819 260.469ZM96.3431 270.999C123.222 270.999 145.013 267.204 145.013 253.289C145.013 243.509 123.222 235.58 96.3431 235.58C69.4637 235.58 49.1052 235.58 47.6737 253.289C46.2422 270.999 69.4637 270.999 96.3431 270.999Z" fill="#222222"/>
<path d="M132.721 167.044C121.69 162.477 114.755 166.197 109.929 169.849C98.0375 175.326 85.3613 209.523 86.9594 213.753C88.2378 217.136 95.7797 220.674 99.3908 222.02C98.1787 225.997 96.2739 235.326 98.3514 240.824C100.948 247.697 133.055 255.688 140.983 256.656C148.911 257.623 149.54 243.89 151.498 216.741C153.457 189.592 143.297 171.423 132.721 167.044Z" fill="white"/>
<path fill-rule="evenodd" clip-rule="evenodd" d="M109.442 168.975C106.25 170.485 103.133 173.812 100.301 177.848C97.4173 181.96 94.7374 186.941 92.4925 191.86C90.2466 196.78 88.422 201.669 87.2569 205.608C86.675 207.576 86.2515 209.327 86.0249 210.737C85.9118 211.442 85.8445 212.082 85.8354 212.632C85.8267 213.162 85.8695 213.697 86.0367 214.139C86.4408 215.209 87.2919 216.191 88.2792 217.058C89.2829 217.94 90.5127 218.775 91.7902 219.53C93.9817 220.826 96.3833 221.925 98.1866 222.645C97.6171 224.711 96.9799 227.666 96.6551 230.769C96.2825 234.329 96.3041 238.233 97.4287 241.21C97.8509 242.327 98.8099 243.339 99.9976 244.253C101.208 245.183 102.766 246.095 104.545 246.975C108.106 248.736 112.661 250.426 117.352 251.921C126.726 254.909 136.796 257.167 140.841 257.661C141.971 257.799 143.026 257.68 143.993 257.263C144.961 256.847 145.777 256.159 146.467 255.256C147.821 253.485 148.741 250.816 149.445 247.428C150.735 241.218 151.39 232.064 152.238 220.205C152.318 219.09 152.399 217.952 152.483 216.79C153.473 203.073 151.405 191.578 147.717 182.929C144.039 174.304 138.708 168.422 133.111 166.105C127.436 163.755 122.745 163.512 118.815 164.375C114.943 165.225 111.893 167.129 109.442 168.975ZM119.181 166.354C122.682 165.585 126.974 165.766 132.331 167.984C137.309 170.045 142.346 175.438 145.903 183.779C149.449 192.096 151.482 203.26 150.513 216.692C150.431 217.832 150.351 218.948 150.273 220.039C149.418 231.983 148.773 240.991 147.513 247.056C146.824 250.374 145.978 252.653 144.923 254.034C144.409 254.707 143.86 255.145 143.267 255.401C142.675 255.656 141.976 255.755 141.124 255.651C137.241 255.177 127.294 252.955 117.983 249.987C113.332 248.505 108.878 246.848 105.441 245.148C103.721 244.297 102.283 243.449 101.209 242.623C100.113 241.78 99.5007 241.039 99.2736 240.438C98.3208 237.916 98.2561 234.407 98.6195 230.934C98.9798 227.491 99.7442 224.23 100.333 222.299L100.61 221.389L99.7491 221.068C97.9831 220.41 95.2478 219.212 92.81 217.771C91.5909 217.05 90.4698 216.283 89.587 215.507C88.6878 214.718 88.1167 213.989 87.8816 213.367C87.8491 213.281 87.8036 213.052 87.8108 212.614C87.8177 212.196 87.8705 211.662 87.9742 211.016C88.1815 209.726 88.579 208.068 89.1465 206.15C90.2804 202.316 92.0685 197.52 94.2784 192.678C96.4892 187.834 99.1083 182.975 101.896 179.002C104.706 174.996 107.597 172.023 110.315 170.771L110.415 170.725L110.503 170.658C112.862 168.872 115.666 167.125 119.181 166.354Z" fill="#222222"/>
<path fill-rule="evenodd" clip-rule="evenodd" d="M110.693 221.888C110.435 222.36 110.216 222.531 110.079 222.589C108.956 223.059 107.085 223.029 105.019 222.656C103.004 222.292 101.023 221.644 99.8122 221.095L98.9741 222.949C100.337 223.567 102.469 224.26 104.628 224.649C106.734 225.03 109.096 225.167 110.786 224.46C111.527 224.15 112.041 223.517 112.41 222.846C112.782 222.167 113.069 221.333 113.308 220.436C113.734 218.833 114.052 216.839 114.375 214.809C114.412 214.576 114.449 214.342 114.486 214.108C114.856 211.806 115.253 209.478 115.841 207.457C116.438 205.411 117.186 203.845 118.156 202.936L116.843 201.458C115.449 202.764 114.572 204.786 113.949 206.924C113.319 209.088 112.904 211.538 112.537 213.83C112.5 214.062 112.463 214.292 112.427 214.52C112.099 216.578 111.799 218.459 111.402 219.951C111.183 220.777 110.948 221.425 110.693 221.888Z" fill="#222222"/>
<path d="M139.81 146.437C146.297 132.166 133.143 124.994 125.756 123.192C107.918 121.03 106.836 137.788 108.457 138.328C109.755 138.761 111.521 137.067 112.241 136.166V146.437L113.863 142.112C114.584 141.031 116.566 139.95 118.188 142.112C119.638 144.046 116.386 147.157 114.404 148.058V155.626C118.548 157.068 127.269 159.951 128.999 159.951C131.161 159.951 131.702 164.275 139.81 146.437Z" fill="#222222"/>
<path fill-rule="evenodd" clip-rule="evenodd" d="M107.296 138.497C107.419 138.739 107.669 139.12 108.141 139.277C109.278 139.656 110.409 139.073 111.136 138.568C111.171 138.544 111.206 138.519 111.241 138.494V146.437L113.178 146.788L114.754 142.585C115.004 142.257 115.425 141.955 115.856 141.881C116.225 141.818 116.77 141.888 117.387 142.712C117.538 142.913 117.593 143.154 117.512 143.508C117.424 143.891 117.183 144.357 116.793 144.859C116.008 145.87 114.826 146.768 113.99 147.148L113.404 147.414V156.337L114.075 156.571C116.154 157.294 119.382 158.379 122.311 159.284C123.775 159.737 125.173 160.147 126.319 160.445C127.415 160.73 128.414 160.951 128.999 160.951C129.102 160.951 129.221 160.975 129.42 161.045C129.457 161.058 129.506 161.076 129.563 161.098C129.737 161.163 129.988 161.258 130.205 161.315C130.55 161.405 130.966 161.458 131.442 161.356C131.911 161.255 132.359 161.02 132.804 160.66C133.663 159.965 134.633 158.699 135.868 156.577C137.118 154.432 138.688 151.323 140.721 146.85C142.41 143.134 142.85 139.81 142.377 136.878C141.905 133.949 140.535 131.488 138.731 129.472C135.15 125.469 129.804 123.151 125.993 122.221L125.935 122.207L125.876 122.2C121.259 121.64 117.645 122.297 114.857 123.672C112.069 125.048 110.175 127.109 108.943 129.247C107.715 131.377 107.136 133.596 106.972 135.337C106.89 136.204 106.908 136.99 107.019 137.611C107.074 137.917 107.16 138.227 107.296 138.497ZM125.576 124.178C129.147 125.059 134.037 127.224 137.241 130.805C138.838 132.591 140.002 134.712 140.402 137.197C140.803 139.679 140.454 142.604 138.9 146.023C136.879 150.47 135.34 153.51 134.14 155.571C132.926 157.655 132.106 158.652 131.545 159.106C131.281 159.32 131.112 159.381 131.022 159.401C130.938 159.419 130.851 159.417 130.714 159.381C130.597 159.35 130.511 159.317 130.387 159.27C130.307 159.24 130.212 159.203 130.083 159.158C129.807 159.061 129.436 158.951 128.999 158.951C128.718 158.951 127.979 158.811 126.823 158.51C125.718 158.223 124.353 157.822 122.902 157.374C120.3 156.569 117.453 155.619 115.404 154.914V148.666C116.423 148.079 117.559 147.133 118.372 146.086C118.861 145.456 119.285 144.725 119.462 143.953C119.645 143.151 119.562 142.278 118.987 141.512C117.984 140.174 116.726 139.703 115.518 139.91C114.555 140.075 113.752 140.651 113.241 141.274V133.315L111.46 135.541C111.143 135.938 110.59 136.512 109.995 136.926C109.554 137.232 109.23 137.355 109.015 137.388C109.006 137.35 108.996 137.306 108.988 137.257C108.917 136.866 108.893 136.271 108.963 135.525C109.103 134.04 109.605 132.103 110.676 130.246C111.741 128.398 113.36 126.641 115.742 125.466C118.112 124.296 121.304 123.67 125.576 124.178ZM109.088 137.606C109.088 137.606 109.086 137.602 109.082 137.596C109.086 137.603 109.088 137.607 109.088 137.606Z" fill="#222222"/>
<path d="M89.1489 241.503C100.792 246.164 105.693 231.755 106.689 223.969L90.6607 218.817L87.9935 225.982C85.8442 225.182 68.1164 220.213 66.4587 219.188C64.801 218.163 65.7267 212.39 55.8952 216.887C46.0637 221.384 46.2049 224.292 47.1043 226.258C48.0037 228.224 55.4192 223.643 57.6104 223.236C59.8015 222.828 59.3674 228.376 61.7415 229.668C63.6408 230.701 65.9041 230.538 66.7984 230.327C69.3974 232.11 77.5061 236.842 89.1489 241.503Z" fill="white"/>
<path fill-rule="evenodd" clip-rule="evenodd" d="M64.8843 215.2C63.1893 213.78 60.4322 213.712 55.4792 215.978C50.5321 218.241 47.9002 220.182 46.6581 221.946C46.0179 222.854 45.735 223.732 45.7161 224.574C45.6975 225.403 45.9367 226.11 46.1949 226.674C46.4717 227.279 46.9996 227.578 47.5167 227.688C47.9971 227.79 48.5192 227.745 49.0001 227.656C49.9717 227.475 51.1379 227.035 52.2634 226.558C53.0223 226.236 53.8113 225.875 54.5471 225.538C54.9073 225.374 55.2549 225.215 55.5799 225.069C56.6297 224.598 57.3868 224.294 57.7933 224.219C57.8112 224.215 57.8231 224.214 57.83 224.214C57.8488 224.227 57.9099 224.277 58.0004 224.42C58.2208 224.77 58.4107 225.328 58.6517 226.109C58.6706 226.171 58.6898 226.233 58.7093 226.296C58.9191 226.98 59.1643 227.778 59.4978 228.487C59.861 229.258 60.3954 230.074 61.2635 230.546C63.1841 231.591 65.3724 231.571 66.58 231.386C69.5636 233.365 77.5477 237.936 88.7772 242.431C91.8904 243.677 94.6432 243.677 97.022 242.757C99.3767 241.846 101.255 240.077 102.73 237.978C105.665 233.801 107.172 228.072 107.681 224.096L107.786 223.271L90.0569 217.573L87.3932 224.728C86.1129 224.323 83.9136 223.67 81.428 222.932C80.1106 222.541 78.7127 222.126 77.3287 221.711C74.8757 220.977 72.4457 220.237 70.5277 219.618C69.568 219.308 68.7444 219.031 68.1135 218.802C67.4442 218.558 67.0882 218.402 66.9846 218.338C66.969 218.328 66.901 218.277 66.7831 218.085C66.6744 217.909 66.5721 217.699 66.4337 217.415C66.4195 217.386 66.4051 217.356 66.3901 217.326C66.0942 216.719 65.6687 215.857 64.8843 215.2ZM65.0811 219.136C65.2682 219.439 65.5339 219.792 65.9327 220.039C66.2435 220.231 66.8041 220.454 67.43 220.681C68.0944 220.923 68.9445 221.209 69.9135 221.521C71.8528 222.147 74.2999 222.892 76.7548 223.627C78.2089 224.063 79.6589 224.493 81.008 224.894C84.2531 225.857 86.9143 226.647 87.6446 226.919L88.5817 227.268L91.2644 220.062L105.581 224.663C105.002 228.395 103.582 233.287 101.093 236.829C99.7628 238.723 98.1707 240.168 96.3006 240.892C94.4547 241.606 92.2288 241.659 89.5205 240.574C77.9333 235.936 69.8921 231.237 67.3641 229.502L66.9994 229.252L66.5688 229.354C65.8149 229.531 63.8273 229.664 62.2194 228.79C61.9005 228.616 61.5988 228.254 61.3073 227.635C61.0376 227.062 60.8332 226.398 60.6136 225.684C60.5968 225.63 60.5798 225.575 60.5628 225.52C60.3417 224.803 60.081 223.97 59.6922 223.354C59.4897 223.032 59.2101 222.698 58.8141 222.473C58.3937 222.234 57.9187 222.161 57.4273 222.253C56.7382 222.381 55.7467 222.802 54.7618 223.244C54.4083 223.402 54.0459 223.568 53.6782 223.736C52.9578 224.066 52.217 224.405 51.4823 224.717C50.3676 225.189 49.3744 225.552 48.6341 225.69C48.2971 225.752 48.0837 225.754 47.9671 225.737C47.8035 225.357 47.7071 224.995 47.7156 224.619C47.7245 224.222 47.8521 223.724 48.2931 223.098C49.2134 221.791 51.4268 220.031 56.3111 217.796C61.1896 215.565 62.8854 216.135 63.5999 216.733C64.0202 217.085 64.2885 217.579 64.5925 218.202C64.6077 218.233 64.6232 218.265 64.639 218.298C64.7675 218.562 64.916 218.868 65.0811 219.136Z" fill="#222222"/>
<path d="M220.277 217.238L265.816 229.255H216.482L211.422 217.238H220.277Z" fill="#D9D9D9"/>
<path fill-rule="evenodd" clip-rule="evenodd" d="M209.916 216.238H220.407L266.07 228.288L265.815 230.255H215.818L209.916 216.238ZM212.928 218.238L217.146 228.255H258.107L220.147 218.238H212.928Z" fill="#222222"/>
<path d="M195.611 267.017L221.794 229.256H233.824L216.84 256.851C220.615 255.156 230.569 252.058 240.193 253.22C249.817 254.382 249.393 263.87 247.977 268.47L195.611 267.017Z" fill="#222222"/>
<path fill-rule="evenodd" clip-rule="evenodd" d="M221.532 228.756H234.719L218.074 255.8C222.613 254.055 231.554 251.673 240.253 252.723C242.743 253.024 244.619 253.869 245.997 255.069C247.373 256.268 248.223 257.795 248.704 259.413C249.662 262.632 249.18 266.26 248.455 268.617L248.343 268.98L194.673 267.491L221.532 228.756ZM222.056 229.756L196.548 266.543L247.606 267.959C248.232 265.721 248.581 262.508 247.745 259.698C247.307 258.224 246.546 256.874 245.34 255.823C244.135 254.774 242.455 253.997 240.133 253.716C230.629 252.569 220.769 255.635 217.045 257.307L215.563 257.972L232.929 229.756H222.056Z" fill="#222222"/>
<path d="M163.987 267.017L190.793 229.256H203.11L185.722 256.851C189.586 255.156 199.777 252.058 209.631 253.22C219.484 254.382 219.049 263.87 217.6 268.47L163.987 267.017Z" fill="#222222"/>
<path fill-rule="evenodd" clip-rule="evenodd" d="M190.277 228.256H204.922L188.163 254.851C193.143 253.17 201.54 251.259 209.747 252.227C212.374 252.536 214.388 253.412 215.884 254.684C217.378 255.955 218.294 257.571 218.81 259.264C219.83 262.615 219.314 266.355 218.553 268.77L218.327 269.49L162.086 267.966L190.277 228.256ZM191.31 230.256L165.886 266.068L216.852 267.449C217.409 265.299 217.67 262.385 216.897 259.847C216.471 258.448 215.739 257.186 214.588 256.208C213.439 255.231 211.813 254.484 209.513 254.213C199.895 253.079 189.889 256.115 186.123 257.766L183.138 259.076L201.298 230.256H191.31Z" fill="#FFDA7F"/>
<path d="M168.938 227.675L150.073 174.863H196.219L217.11 234.301C217.113 234.308 217.107 234.315 217.099 234.314L168.938 227.675Z" fill="white"/>
<path fill-rule="evenodd" clip-rule="evenodd" d="M148.653 173.863H196.927L218.053 233.969C218.303 234.682 217.711 235.408 216.962 235.305L168.2 228.583L148.653 173.863ZM151.492 175.863L169.675 226.767L215.628 233.102L195.51 175.863H151.492ZM217.235 233.323L217.233 233.323L217.235 233.323Z" fill="#222222"/>
<path d="M217.092 235.58H266.449V227.99L215.218 226.725L217.092 235.58Z" fill="white"/>
<path fill-rule="evenodd" clip-rule="evenodd" d="M218.713 233.58L217.699 228.787L264.449 229.942V233.58H218.713ZM266.449 227.99L215.218 226.725L217.092 235.58H266.449V227.99Z" fill="#222222"/>
<path d="M207.55 194.862C207.138 199.658 203.472 203.259 199.362 202.906C195.251 202.553 192.253 198.379 192.665 193.583C193.078 188.788 196.744 185.187 200.854 185.54C204.964 185.893 207.963 190.067 207.55 194.862Z" fill="white"/>
<path fill-rule="evenodd" clip-rule="evenodd" d="M199.558 200.618C202.087 200.835 204.929 198.541 205.262 194.666C205.595 190.79 203.186 188.045 200.657 187.828C198.129 187.611 195.287 189.905 194.954 193.78C194.621 197.655 197.03 200.4 199.558 200.618ZM199.362 202.906C203.472 203.259 207.138 199.658 207.55 194.862C207.963 190.067 204.964 185.893 200.854 185.54C196.744 185.187 193.078 188.788 192.665 193.583C192.253 198.379 195.251 202.553 199.362 202.906Z" fill="#222222"/>
<path d="M196.387 193.901C195.975 198.697 192.309 202.298 188.199 201.945C184.088 201.592 181.09 197.418 181.502 192.622C181.914 187.827 185.581 184.226 189.691 184.579C193.801 184.932 196.799 189.106 196.387 193.901Z" fill="white"/>
<path fill-rule="evenodd" clip-rule="evenodd" d="M188.395 199.657C190.924 199.874 193.766 197.58 194.099 193.705C194.432 189.829 192.023 187.084 189.494 186.867C186.966 186.65 184.123 188.944 183.79 192.819C183.457 196.694 185.867 199.439 188.395 199.657ZM188.199 201.945C192.309 202.298 195.975 198.697 196.387 193.901C196.799 189.106 193.801 184.932 189.691 184.579C185.581 184.226 181.914 187.827 181.502 192.622C181.09 197.418 184.088 201.592 188.199 201.945Z" fill="#222222"/>
<path d="M202.237 193.421C202.008 196.078 199.977 198.073 197.699 197.878C195.421 197.682 193.76 195.369 193.988 192.712C194.217 190.055 196.248 188.059 198.526 188.255C200.804 188.451 202.465 190.763 202.237 193.421Z" fill="#222222"/>
<path d="M191.074 192.462C190.846 195.119 188.815 197.114 186.537 196.919C184.259 196.723 182.598 194.41 182.826 191.753C183.055 189.096 185.086 187.1 187.364 187.296C189.641 187.492 191.303 189.804 191.074 192.462Z" fill="#222222"/>
<path d="M111.102 151.666C110.935 153.007 109.114 153.884 107.034 153.625C104.954 153.366 103.404 152.069 103.57 150.729C103.737 149.388 105.559 148.511 107.638 148.769C109.718 149.028 111.269 150.325 111.102 151.666Z" fill="#5F5F5F"/>
<path d="M216.229 204.821C216.055 207.399 212.673 209.27 208.674 209.001C204.676 208.731 201.575 206.423 201.749 203.845C201.922 201.268 205.304 199.396 209.303 199.665C213.302 199.935 216.402 202.243 216.229 204.821Z" fill="#5F5F5F"/>
<path d="M187.918 203.921C187.677 206.494 184.247 208.276 180.257 207.901C176.267 207.527 173.228 205.138 173.469 202.566C173.71 199.994 177.14 198.212 181.131 198.586C185.121 198.96 188.16 201.349 187.918 203.921Z" fill="#5F5F5F"/>
<path fill-rule="evenodd" clip-rule="evenodd" d="M184.808 51.6956C184.808 50.7506 183.619 50.3329 183.028 51.0704L174.625 61.5593C173.206 63.3313 170.409 62.9452 169.522 60.855L166.246 53.13C165.848 52.1929 164.468 52.3795 164.334 53.3886L161.992 70.9921L160.009 70.7283L162.351 53.1248C162.754 50.0977 166.895 49.5377 168.087 52.3492L171.363 60.0741C171.659 60.7708 172.591 60.8995 173.064 60.3089L181.467 49.8199C183.239 47.6075 186.808 48.8607 186.808 51.6956V65.0795C186.808 65.7188 187.4 66.1939 188.024 66.0559L196.409 64.2025C199.415 63.5379 201.352 67.2918 199.068 69.3569L186.479 80.7417L185.138 79.2583L197.727 67.8735C198.488 67.1851 197.842 65.9338 196.84 66.1553L188.456 68.0088C186.583 68.4228 184.808 66.9974 184.808 65.0795V51.6956Z" fill="#222222"/>
<path fill-rule="evenodd" clip-rule="evenodd" d="M225.103 115.79C226.016 115.545 226.111 114.287 225.244 113.908L212.643 108.398C210.56 107.487 210.207 104.68 212.001 103.282L218.832 97.9599C219.635 97.3339 219.098 96.0476 218.088 96.1795L200.1 98.5292L199.841 96.546L217.829 94.1964C220.859 93.8005 222.472 97.6593 220.061 99.5376L213.23 104.86C212.632 105.326 212.75 106.261 213.444 106.565L226.046 112.076C228.645 113.212 228.361 116.988 225.62 117.722L212.371 121.272C211.754 121.438 211.448 122.132 211.743 122.7L215.828 130.546C217.249 133.276 214.129 136.12 211.542 134.453L196.965 125.06L198.048 123.379L212.625 132.772C213.487 133.328 214.527 132.38 214.054 131.47L209.969 123.623C209.083 121.921 210.001 119.837 211.854 119.34L225.103 115.79Z" fill="#222222"/>
<path fill-rule="evenodd" clip-rule="evenodd" d="M136.283 75.5849L133.015 65.3029L134.921 64.6971L138.189 74.9791C139.054 77.7008 135.986 79.9774 133.632 78.3611L120.804 69.5547C119.989 68.9951 118.942 69.8318 119.309 70.75L126.253 88.1373C127.04 90.1077 125.589 92.25 123.467 92.25H108.815C107.751 92.25 107.423 93.6926 108.384 94.1521L127.665 103.376C130.434 104.701 129.662 108.836 126.602 109.073L101.755 110.997L101.601 109.003L126.447 107.079C127.467 107 127.725 105.622 126.802 105.18L107.521 95.9563C104.639 94.5779 105.621 90.25 108.815 90.25H123.467C124.175 90.25 124.658 89.5359 124.396 88.8791L117.452 71.4918C116.352 68.7371 119.49 66.227 121.936 67.9058L134.764 76.7122C135.549 77.251 136.571 76.4921 136.283 75.5849Z" fill="#222222"/>
<path fill-rule="evenodd" clip-rule="evenodd" d="M210.61 76.7926L197.61 86.7926L196.391 85.2074L209.391 75.2074L210.61 76.7926Z" fill="#222222"/>
<path fill-rule="evenodd" clip-rule="evenodd" d="M146 51V72H144V51H146Z" fill="#222222"/>
<path d="M141.385 103.799L145.308 92.4267C145.6 91.5823 146.416 91.0334 147.307 91.0819L155.582 91.5316C156.146 91.5622 156.67 91.8298 157.026 92.2681L162.966 99.5861C163.75 100.551 165.214 100.575 166.029 99.6373L172.856 91.7802C173.281 91.2908 173.917 91.0379 174.562 91.1016L183.891 92.0234C184.719 92.1052 185.41 92.6915 185.626 93.4954L188.704 104.967C188.888 105.652 188.695 106.383 188.198 106.888L165.958 129.485C165.15 130.306 163.816 130.277 163.046 129.42L141.789 105.789C141.302 105.248 141.148 104.487 141.385 103.799Z" fill="white"/>
<path fill-rule="evenodd" clip-rule="evenodd" d="M147.253 92.0804C146.807 92.0562 146.399 92.3306 146.254 92.7528L142.33 104.125C142.212 104.469 142.289 104.85 142.532 105.12L163.789 128.751C164.175 129.179 164.841 129.194 165.245 128.784L187.485 106.187C187.734 105.934 187.83 105.569 187.738 105.226L184.66 93.7545C184.552 93.3526 184.206 93.0595 183.792 93.0186L174.464 92.0968C174.141 92.0649 173.823 92.1914 173.611 92.436L166.784 100.293C165.561 101.7 163.365 101.664 162.19 100.216L156.25 92.8984C156.072 92.6792 155.809 92.5454 155.528 92.5301L147.253 92.0804ZM144.363 92.1005C144.8 90.8339 146.024 90.0107 147.362 90.0834L155.636 90.5331C156.482 90.579 157.269 90.9803 157.802 91.6379L157.026 92.2681L157.802 91.6379L163.743 98.9558C164.134 99.4382 164.867 99.4505 165.274 98.9815L172.101 91.1243C172.739 90.3902 173.693 90.0109 174.661 90.1065L183.989 91.0282C185.231 91.151 186.268 92.0304 186.592 93.2362L189.67 104.708C189.945 105.735 189.656 106.832 188.91 107.59L166.671 130.187C165.458 131.419 163.458 131.374 162.302 130.089L141.045 106.458L141.789 105.789L141.045 106.458C140.316 105.647 140.084 104.504 140.439 103.473L144.363 92.1005Z" fill="#222222"/>
<!-- </g> -->
<defs>
<filter id="filter0_d_437_2351" x="0" y="0" width="309" height="366" filterUnits="userSpaceOnUse" color-interpolation-filters="sRGB">
<feFlood flood-opacity="0" result="BackgroundImageFix"/>
<feColorMatrix in="SourceAlpha" type="matrix" values="0 0 0 0 0 0 0 0 0 0 0 0 0 0 0 0 0 0 127 0" result="hardAlpha"/>
<feOffset/>
<feGaussianBlur stdDeviation="8"/>
<feComposite in2="hardAlpha" operator="out"/>
<feColorMatrix type="matrix" values="0 0 0 0 0 0 0 0 0 0 0 0 0 0 0 0 0 0 0.12 0"/>
<feBlend mode="normal" in2="BackgroundImageFix" result="effect1_dropShadow_437_2351"/>
<feBlend mode="normal" in="SourceGraphic" in2="effect1_dropShadow_437_2351" result="shape"/>
</filter>
</defs>
</svg>
