<svg width="100%" height="100%" viewBox="0 0 309 366" fill="none" xmlns="http://www.w3.org/2000/svg">
<!-- <g filter="url(#filter0_d_437_2470)"> -->
<rect width="309" height="366" rx="16" fill="#E6713F" shape-rendering="crispEdges"/>
<path fill-rule="evenodd" clip-rule="evenodd" d="M118.364 154.593C112.427 158.044 106.57 156.041 104.324 154.563L105.423 152.893C107.24 154.087 112.265 155.825 117.359 152.864L118.364 154.593Z" fill="#222222"/>
<path d="M105.194 143.305H117.701L118.663 157.736H104.232L105.194 143.305Z" fill="white"/>
<path fill-rule="evenodd" clip-rule="evenodd" d="M107.066 145.305L106.37 155.736H116.526L115.83 145.305H107.066ZM117.701 143.305H105.194L104.232 157.736H118.663L117.701 143.305Z" fill="#222222"/>
<path d="M90.9641 132.325C91.2543 130.261 93.028 130.495 93.9967 130.912C94.0858 130.95 94.1807 130.973 94.2777 130.973L124.907 130.97C125.197 130.97 125.438 130.763 125.614 130.532C126.582 129.261 129.872 129.701 129.406 132.323C128.993 134.586 126.819 138.059 125.819 138.215C125.184 138.314 124.699 138.288 124.435 138.248C124.329 138.232 124.218 138.223 124.12 138.265C122.828 138.822 122.731 142.478 120.106 145.566C117.926 148.131 112.874 148.896 110.621 148.958C107.559 149.031 104.788 148.148 102.293 146.513C98.7803 144.21 98.179 139.161 97.175 138.215C96.4277 137.511 96.9162 138.278 94.8904 137.47C94.131 137.167 90.584 135.029 90.9641 132.325Z" fill="white"/>
<path fill-rule="evenodd" clip-rule="evenodd" d="M128.348 129.014C128.963 129.208 129.571 129.588 129.98 130.206C130.399 130.839 130.546 131.626 130.391 132.498L130.39 132.502C130.152 133.803 129.438 135.357 128.685 136.583C128.303 137.204 127.887 137.779 127.481 138.222C127.278 138.444 127.061 138.651 126.835 138.816C126.624 138.971 126.327 139.148 125.973 139.203C125.342 139.301 124.818 139.297 124.448 139.258C124.396 139.323 124.316 139.441 124.213 139.65C124.042 139.997 123.879 140.434 123.67 140.996C123.631 141.099 123.591 141.206 123.549 141.318C123.03 142.702 122.3 144.529 120.868 146.213C119.585 147.723 117.545 148.625 115.666 149.162C113.758 149.708 111.848 149.924 110.649 149.957L110.645 149.957C107.362 150.036 104.394 149.085 101.745 147.349C99.7361 146.032 98.6107 143.967 97.8741 142.249C97.6241 141.665 97.4028 141.08 97.2129 140.578C97.1266 140.35 97.0467 140.138 96.9736 139.952C96.8503 139.639 96.7452 139.392 96.6491 139.204C96.5474 139.006 96.4907 138.944 96.4893 138.943L96.4893 138.943C96.4635 138.919 96.4413 138.898 96.4223 138.881C96.0464 138.875 95.529 138.801 94.52 138.399C94.0105 138.195 92.8242 137.51 91.802 136.514C90.7989 135.536 89.7156 134.023 89.9738 132.186C90.0662 131.529 90.2898 130.966 90.6617 130.528C91.0383 130.084 91.5118 129.834 91.9877 129.717C92.8641 129.502 93.762 129.731 94.3439 129.973L124.783 129.97C124.793 129.958 124.805 129.943 124.818 129.927C125.241 129.371 125.865 129.063 126.465 128.931C127.071 128.797 127.736 128.821 128.348 129.014ZM126.896 130.884C126.621 130.944 126.47 131.058 126.409 131.138L125.618 130.536L126.409 131.138C126.185 131.433 125.684 131.97 124.907 131.97L94.2778 131.973C94.0238 131.973 93.7944 131.914 93.601 131.83C93.212 131.663 92.7647 131.585 92.4642 131.659C92.3394 131.69 92.2544 131.742 92.1866 131.822C92.114 131.907 92.0071 132.089 91.9544 132.464C91.8324 133.331 92.3326 134.238 93.1978 135.082C94.0439 135.906 95.0108 136.441 95.2608 136.541C96.1394 136.891 96.4109 136.884 96.4898 136.882C96.4938 136.881 96.4973 136.881 96.5003 136.881C96.5047 136.881 96.5108 136.881 96.5185 136.881C96.6045 136.878 96.8885 136.868 97.1882 136.999C97.4564 137.116 97.6787 137.316 97.8607 137.487C98.1118 137.724 98.2934 138.028 98.4291 138.293C98.5717 138.571 98.7058 138.892 98.835 139.221C98.9256 139.452 99.0145 139.687 99.1059 139.929C99.2875 140.409 99.4787 140.916 99.7124 141.461C100.406 143.079 101.338 144.69 102.842 145.676C105.182 147.21 107.755 148.026 110.595 147.958C111.649 147.929 113.39 147.733 115.116 147.239C116.871 146.737 118.447 145.974 119.344 144.918C120.537 143.515 121.168 141.97 121.677 140.615C121.714 140.517 121.75 140.418 121.787 140.319C121.993 139.765 122.199 139.212 122.42 138.764C122.668 138.262 123.051 137.637 123.724 137.347C124.101 137.185 124.46 137.24 124.583 137.259L124.587 137.259C124.739 137.283 125.099 137.308 125.605 137.236C125.616 137.229 125.632 137.218 125.652 137.203C125.738 137.14 125.858 137.033 126.006 136.871C126.301 136.549 126.643 136.085 126.981 135.535C127.667 134.42 128.246 133.107 128.422 132.145C128.499 131.708 128.41 131.457 128.312 131.31C128.205 131.149 128.018 131.007 127.747 130.922C127.474 130.836 127.165 130.824 126.896 130.884Z" fill="#222222"/>
<path d="M98.1678 130.973L98.7172 136.484L94.131 130.519C93.9172 124.25 94.6459 111.678 105.036 111.55C105.945 111.603 108.98 111.869 110.007 112.51C111.129 112.186 113.599 111.539 114.497 111.55C115.779 111.55 126.819 110.387 126.819 130.059L124.438 135.118L123.638 130.519C123.103 130.975 120.646 134.175 118.337 135.202C116.028 136.228 111.822 136.484 110.007 136.484C104.027 136.484 99.3475 132.457 98.1678 130.973Z" fill="#222222"/>
<path fill-rule="evenodd" clip-rule="evenodd" d="M114.708 112.045C114.621 112.047 114.548 112.049 114.492 112.049L114.486 112.049C114.108 112.045 113.326 112.187 112.444 112.391C111.585 112.589 110.696 112.83 110.141 112.99L109.926 113.052L109.738 112.934C109.547 112.815 109.224 112.693 108.794 112.58C108.373 112.47 107.887 112.378 107.397 112.303C106.428 112.155 105.471 112.077 105.02 112.049C102.541 112.084 100.668 112.855 99.2404 114.066C97.8009 115.287 96.7838 116.982 96.0761 118.9C94.6807 122.683 94.5292 127.222 94.6256 130.339L98.0442 134.785L97.5 129.325L98.5606 130.66C99.1067 131.347 100.522 132.686 102.54 133.852C104.554 135.015 107.133 135.985 110.011 135.985C110.9 135.985 112.385 135.922 113.93 135.732C115.486 135.541 117.054 135.227 118.137 134.745C119.198 134.274 120.332 133.278 121.297 132.298C121.773 131.814 122.196 131.346 122.537 130.967C122.568 130.933 122.599 130.898 122.629 130.865C122.914 130.547 123.163 130.269 123.314 130.14L123.981 129.572L124.66 133.475L126.318 129.951C126.298 120.28 123.575 115.861 120.838 113.829C118.303 111.947 115.652 112.019 114.708 112.045ZM121.44 113.025C124.533 115.322 127.319 120.131 127.319 130.054L127.319 130.166L124.214 136.762L123.315 131.591L123.279 131.63C122.937 132.011 122.501 132.493 122.008 132.995C121.033 133.985 119.785 135.103 118.537 135.658C117.311 136.202 115.621 136.53 114.043 136.724C112.454 136.919 110.928 136.984 110.002 136.984C106.9 136.984 104.149 135.94 102.033 134.718C100.695 133.945 99.5964 133.093 98.81 132.37L99.3895 138.183L93.636 130.7L93.6306 130.541C93.5232 127.391 93.6482 122.6 95.1374 118.563C95.8839 116.539 96.9837 114.675 98.5965 113.307C100.218 111.931 102.327 111.083 105.034 111.05L105.052 111.05L105.07 111.051C105.535 111.078 106.537 111.159 107.557 111.315C108.067 111.394 108.59 111.492 109.056 111.614C109.422 111.709 109.779 111.826 110.072 111.973C110.64 111.812 111.444 111.598 112.227 111.418C113.083 111.22 113.983 111.045 114.503 111.05C114.504 111.05 114.506 111.05 114.507 111.05L114.496 111.55L114.501 111.05C114.502 111.05 114.503 111.05 114.503 111.05C114.553 111.05 114.619 111.048 114.7 111.046C115.638 111.017 118.615 110.928 121.44 113.025Z" fill="#222222"/>
<path d="M86.9155 185.316H135.019V218.667H86.9155V185.316Z" fill="#D9D9D9"/>
<path d="M154.901 152.605C154.901 150.48 156.624 148.757 158.749 148.757H225.452C227.577 148.757 229.3 150.48 229.3 152.605V199.425H154.901V152.605Z" fill="white"/>
<path fill-rule="evenodd" clip-rule="evenodd" d="M225.452 150.757H158.749C157.728 150.757 156.901 151.584 156.901 152.605V197.425H227.3V152.605C227.3 151.584 226.473 150.757 225.452 150.757ZM158.749 148.757C156.624 148.757 154.901 150.48 154.901 152.605V199.425H229.3V152.605C229.3 150.48 227.577 148.757 225.452 148.757H158.749Z" fill="#222222"/>
<path d="M158.749 155.812C158.749 153.687 160.472 151.964 162.597 151.964H222.245C224.37 151.964 226.093 153.687 226.093 155.812V197.822H158.749V155.812Z" fill="#D9D9D9"/>
<path fill-rule="evenodd" clip-rule="evenodd" d="M222.245 153.964H162.597C161.577 153.964 160.749 154.792 160.749 155.812V195.822H224.093V155.812C224.093 154.792 223.266 153.964 222.245 153.964ZM162.597 151.964C160.472 151.964 158.749 153.687 158.749 155.812V197.822H226.093V155.812C226.093 153.687 224.37 151.964 222.245 151.964H162.597Z" fill="#222222"/>
<path d="M146.884 203.274H237.638C237.638 205.399 235.915 207.122 233.79 207.122H150.732C148.607 207.122 146.884 205.399 146.884 203.274Z" fill="#D9D9D9"/>
<path fill-rule="evenodd" clip-rule="evenodd" d="M237.638 203.274H146.884C146.884 204.006 147.088 204.691 147.444 205.274C148.119 206.382 149.339 207.122 150.732 207.122H233.79C235.183 207.122 236.403 206.382 237.078 205.274C237.433 204.691 237.638 204.006 237.638 203.274Z" fill="#222222"/>
<path d="M155.048 193.974H229.094L237.638 203.274H146.884L155.048 193.974Z" fill="#D9D9D9"/>
<path fill-rule="evenodd" clip-rule="evenodd" d="M155.953 195.974L151.301 201.274H233.085L228.216 195.974H155.953ZM229.094 193.974H155.048L146.884 203.274H237.638L229.094 193.974Z" fill="#222222"/>
<path d="M209.014 264.43L178.394 220.271H164.326L184.187 252.541C179.774 250.56 168.133 246.936 156.878 248.295C145.623 249.654 146.119 260.75 147.774 266.129L209.014 264.43Z" fill="#222222"/>
<path fill-rule="evenodd" clip-rule="evenodd" d="M178.918 219.271H162.536L181.761 250.507C176.144 248.513 166.335 246.146 156.758 247.302C153.777 247.662 151.501 248.678 149.818 250.144C148.137 251.608 147.107 253.467 146.526 255.419C145.375 259.288 145.956 263.621 146.819 266.423L147.042 267.15L210.889 265.379L178.918 219.271ZM177.871 221.271L207.14 263.482L148.524 265.108C147.861 262.56 147.533 259.05 148.443 255.99C148.938 254.326 149.791 252.82 151.131 251.653C152.468 250.488 154.351 249.607 156.998 249.288C168.011 247.958 179.463 251.517 183.778 253.453L186.742 254.784L166.115 221.271H177.871Z" fill="#222222"/>
<path d="M55.473 236.304C60.604 228.864 86.3658 223.584 98.6054 221.873H129.815C130.191 221.873 130.486 222.195 130.454 222.569L127.355 258.981C127.328 259.307 127.072 259.56 126.745 259.568C109.038 259.994 72.2004 260.569 62.0471 259.554C49.2196 258.271 49.0592 245.604 55.473 236.304Z" fill="#D9D9D9"/>
<path fill-rule="evenodd" clip-rule="evenodd" d="M98.5356 220.873H129.815C130.777 220.873 131.532 221.696 131.451 222.654L128.352 259.066C128.283 259.875 127.631 260.547 126.769 260.567C109.098 260.993 72.1791 261.572 61.9473 260.549C58.5771 260.212 55.9516 259.117 54.0453 257.438C52.1366 255.758 51.0176 253.553 50.5615 251.12C49.6564 246.293 51.3415 240.533 54.6495 235.736C56.091 233.646 58.872 231.828 62.2294 230.247C65.6252 228.647 69.7656 227.218 74.0982 225.979C82.7661 223.499 92.3141 221.743 98.4667 220.883L98.5356 220.873ZM98.6748 222.873C92.5856 223.727 83.1718 225.463 74.6483 227.902C70.3691 229.126 66.342 230.52 63.0819 232.056C59.7834 233.61 57.42 235.242 56.296 236.872C53.1903 241.375 51.7487 246.599 52.5272 250.751C52.9129 252.808 53.8382 254.591 55.3669 255.937C56.898 257.285 59.1028 258.255 62.1463 258.559C72.1583 259.56 108.519 259.002 126.386 258.576L129.425 222.873H98.6748Z" fill="#222222"/>
<path d="M91.2268 192.225C88.9302 201.6 83.3729 208.295 78.8142 207.179C74.2556 206.062 72.4219 197.556 74.7185 188.181C77.0152 178.806 82.5725 172.111 87.1311 173.228C91.6897 174.344 93.5235 182.85 91.2268 192.225Z" fill="white"/>
<path fill-rule="evenodd" clip-rule="evenodd" d="M84.3299 202.359C86.3437 199.933 88.192 196.208 89.2843 191.749C90.3765 187.29 90.4591 183.133 89.7946 180.051C89.0982 176.821 87.7738 175.444 86.6552 175.17C85.5367 174.896 83.7259 175.505 81.6155 178.047C79.6017 180.473 77.7534 184.198 76.6611 188.657C75.5688 193.116 75.4862 197.273 76.1507 200.355C76.8471 203.585 78.1715 204.962 79.2901 205.236C80.4087 205.51 82.2194 204.901 84.3299 202.359ZM78.8142 207.179C83.3729 208.295 88.9302 201.6 91.2268 192.225C93.5235 182.85 91.6897 174.344 87.1311 173.228C82.5725 172.111 77.0152 178.806 74.7185 188.181C72.4219 197.556 74.2556 206.062 78.8142 207.179Z" fill="#222222"/>
<path d="M93.9753 201.202C100.801 208.027 103.643 216.251 100.325 219.569C97.0058 222.888 88.7824 220.045 81.957 213.22C75.1317 206.395 72.289 198.171 75.6078 194.852C78.9265 191.534 87.15 194.376 93.9753 201.202Z" fill="white"/>
<path fill-rule="evenodd" clip-rule="evenodd" d="M99.0637 212.354C98.0336 209.374 95.8072 205.862 92.5611 202.616C89.315 199.37 85.8031 197.143 82.8231 196.113C79.7002 195.034 77.8363 195.452 77.022 196.267C76.2077 197.081 75.7891 198.945 76.8686 202.068C77.8987 205.048 80.1251 208.56 83.3713 211.806C86.6174 215.052 90.1293 217.278 93.1092 218.308C96.2322 219.388 98.0961 218.969 98.9104 218.155C99.7247 217.341 100.143 215.477 99.0637 212.354ZM100.325 219.569C103.643 216.251 100.801 208.027 93.9753 201.202C87.15 194.376 78.9265 191.534 75.6078 194.852C72.289 198.171 75.1317 206.395 81.957 213.22C88.7824 220.045 97.0058 222.888 100.325 219.569Z" fill="#222222"/>
<path d="M245.997 264.43L214.648 220.271H200.245L220.579 252.541C216.06 250.56 204.142 246.936 192.619 248.295C181.096 249.654 181.605 260.75 183.299 266.129L245.997 264.43Z" fill="#222222"/>
<path fill-rule="evenodd" clip-rule="evenodd" d="M215.165 219.271H198.432L218.123 250.519C212.383 248.524 202.323 246.144 192.502 247.302C189.458 247.661 187.135 248.674 185.415 250.137C183.698 251.598 182.642 253.458 182.046 255.413C180.866 259.288 181.462 263.625 182.345 266.429L182.572 267.149L247.897 265.379L215.165 219.271ZM214.132 221.271L244.097 263.481L184.044 265.108C183.364 262.562 183.028 259.054 183.959 255.996C184.465 254.335 185.337 252.83 186.711 251.66C188.084 250.492 190.019 249.609 192.736 249.288C204.024 247.957 215.757 251.519 220.177 253.457L223.163 254.766L202.057 221.271H214.132Z" fill="#E6713F"/>
<path d="M111.929 156.453C108.824 156.453 105.969 154.949 104.821 154.126C104.749 154.075 104.673 154.038 104.587 154.018C102.549 153.553 97.7701 152.97 91.7801 153.446C88.5951 153.699 85.6018 155.169 83.683 157.724C77.7451 165.63 74.0829 177.189 72.7698 183.128C72.6971 183.457 72.8965 183.782 73.2211 183.873L86.4473 187.588C86.724 187.666 86.9158 187.917 86.9037 188.204C86.6668 193.856 82.8296 218.593 80.7768 231.266C80.715 231.647 80.9973 231.986 81.3832 232.001C88.1474 232.254 107.242 233.131 135.66 234.861C164.695 236.628 227.275 238.023 256.304 238.525C256.853 238.535 257.138 237.897 256.789 237.474C249.868 229.076 238.63 214.176 242.929 214.176C247.244 214.176 254.076 207.76 257.306 204.176C257.523 203.935 257.523 203.577 257.307 203.335C251.504 196.829 239.953 184.081 237.317 181.947C234.858 179.957 231.322 180.042 229.464 180.397C229.176 180.452 228.979 180.709 228.979 181.001V182.966C228.979 183.035 228.973 183.098 228.941 183.159C227.907 185.171 213.732 190.939 191.78 191.728C169.492 192.53 166.125 184.673 155.542 183.711C144.96 182.749 146.082 169.601 139.508 159.98C134.32 152.389 123.193 152.805 118.07 153.998C117.932 154.03 117.815 154.109 117.719 154.213C116.946 155.05 114.928 156.453 111.929 156.453Z" fill="white"/>
<path fill-rule="evenodd" clip-rule="evenodd" d="M91.7008 152.449C97.7824 151.966 102.663 152.554 104.809 153.043L104.587 154.018L104.809 153.043C105.044 153.097 105.241 153.198 105.403 153.314L105.403 153.314C106.451 154.065 109.104 155.453 111.929 155.453C114.615 155.453 116.376 154.193 116.984 153.534C117.183 153.319 117.467 153.112 117.843 153.024C120.509 152.404 124.708 151.987 128.933 152.709C133.161 153.432 137.533 155.319 140.333 159.416C142.042 161.917 143.237 164.627 144.234 167.258C144.684 168.448 145.082 169.584 145.466 170.681C145.955 172.08 146.422 173.415 146.949 174.718C147.866 176.986 148.864 178.874 150.211 180.251C151.529 181.597 153.221 182.496 155.633 182.715C159.745 183.089 162.884 184.49 166.208 185.974C167.318 186.469 168.449 186.974 169.644 187.453C174.468 189.387 180.742 191.125 191.744 190.729C202.643 190.337 211.596 188.71 217.936 186.939C221.108 186.053 223.61 185.136 225.368 184.328C226.248 183.922 226.923 183.553 227.394 183.24C227.63 183.083 227.801 182.95 227.917 182.843C227.942 182.82 227.962 182.8 227.979 182.783V181.001C227.979 180.268 228.48 179.567 229.276 179.415C231.232 179.041 235.141 178.899 237.946 181.17C239.336 182.295 242.944 186.086 246.859 190.323C250.807 194.596 255.15 199.414 258.054 202.67C258.608 203.29 258.608 204.224 258.049 204.845C256.406 206.668 253.847 209.213 251.136 211.311C249.781 212.36 248.367 213.314 246.994 214.01C245.651 214.69 244.268 215.165 242.976 215.176C242.98 215.37 243.041 215.727 243.247 216.293C243.761 217.704 244.922 219.746 246.487 222.127C249.595 226.857 254.109 232.65 257.561 236.838C258.409 237.867 257.757 239.55 256.287 239.525C227.262 239.023 164.66 237.628 135.599 235.859C107.187 234.13 88.0999 233.253 81.3457 233C80.3688 232.964 79.6302 232.09 79.7896 231.106C80.8155 224.773 82.2872 215.425 83.5318 206.957C84.7371 198.755 85.7178 191.453 85.8891 188.47L72.9505 184.836C72.1274 184.605 71.6034 183.772 71.7933 182.912C73.1188 176.917 76.8202 165.196 82.8833 157.123C84.9954 154.311 88.267 152.722 91.7008 152.449ZM86.1762 188.551C86.1764 188.551 86.1766 188.551 86.1768 188.551L86.2815 188.178L86.1768 188.551L86.1762 188.551ZM227.979 182.966C227.979 182.967 227.979 182.966 227.979 182.963V182.966ZM104.291 154.977C102.317 154.539 97.6836 153.98 91.8591 154.443C88.923 154.676 86.208 156.027 84.4825 158.325C78.78 165.917 75.185 177.03 73.8227 183.003L86.7176 186.626C87.417 186.822 87.9352 187.472 87.9028 188.246C87.7816 191.137 86.7524 198.797 85.5105 207.248C84.2906 215.548 82.8534 224.688 81.83 231.017C88.9418 231.29 107.851 232.166 135.72 233.863C164.468 235.612 226.159 236.998 255.526 237.511C252.126 233.357 247.834 227.82 244.816 223.225C243.243 220.832 241.968 218.624 241.368 216.978C241.081 216.191 240.875 215.344 241.029 214.624C241.114 214.224 241.321 213.823 241.71 213.538C242.086 213.264 242.524 213.177 242.929 213.177C243.781 213.177 244.853 212.853 246.09 212.226C247.312 211.607 248.616 210.732 249.912 209.729C252.385 207.815 254.749 205.491 256.339 203.753C253.444 200.509 249.229 195.835 245.39 191.681C241.42 187.384 237.935 183.734 236.688 182.725C234.701 181.116 231.784 181.045 229.979 181.323V182.966C229.979 183.093 229.97 183.345 229.831 183.617C229.574 184.116 229.042 184.547 228.501 184.906C227.914 185.296 227.14 185.714 226.203 186.145C224.326 187.008 221.719 187.959 218.474 188.865C211.979 190.679 202.869 192.33 191.816 192.728C180.529 193.134 173.977 191.344 168.899 189.309C167.549 188.768 166.331 188.225 165.176 187.71C161.944 186.269 159.207 185.049 155.452 184.707C152.572 184.445 150.436 183.34 148.782 181.65C147.158 179.99 146.042 177.81 145.095 175.468C144.567 174.163 144.06 172.716 143.545 171.251C143.159 170.149 142.768 169.036 142.363 167.966C141.39 165.396 140.261 162.855 138.682 160.545C136.294 157.05 132.51 155.35 128.596 154.681C124.734 154.021 120.863 154.39 118.4 154.948C117.431 155.964 115.18 157.453 111.929 157.453C108.59 157.453 105.571 155.879 104.291 154.977ZM73.4914 182.91C73.4918 182.911 73.4921 182.911 73.4925 182.911L73.4914 182.91Z" fill="#222222"/>
<path d="M205.336 153.534C204.914 158.447 201.158 162.136 196.947 161.774C192.736 161.413 189.665 157.137 190.087 152.224C190.509 147.311 194.265 143.622 198.476 143.984C202.687 144.346 205.758 148.622 205.336 153.534Z" fill="white"/>
<path fill-rule="evenodd" clip-rule="evenodd" d="M197.118 159.782C199.951 160.025 202.99 157.475 203.343 153.363C203.696 149.252 201.138 146.22 198.304 145.976C195.471 145.733 192.433 148.284 192.079 152.395C191.726 156.507 194.285 159.538 197.118 159.782ZM196.947 161.774C201.158 162.136 204.914 158.447 205.336 153.534C205.758 148.622 202.687 144.346 198.476 143.984C194.265 143.622 190.509 147.311 190.087 152.224C189.665 157.137 192.736 161.413 196.947 161.774Z" fill="#222222"/>
<path d="M193.9 152.55C193.478 157.463 189.722 161.152 185.511 160.79C181.3 160.428 178.228 156.152 178.651 151.24C179.073 146.327 182.829 142.638 187.04 142.999C191.251 143.361 194.322 147.637 193.9 152.55Z" fill="white"/>
<path fill-rule="evenodd" clip-rule="evenodd" d="M185.682 158.797C188.515 159.041 191.554 156.49 191.907 152.379C192.26 148.267 189.702 145.236 186.868 144.992C184.035 144.749 180.997 147.299 180.643 151.411C180.29 155.522 182.849 158.554 185.682 158.797ZM185.511 160.79C189.722 161.152 193.478 157.463 193.9 152.55C194.322 147.637 191.251 143.361 187.04 142.999C182.829 142.638 179.073 146.327 178.651 151.24C178.228 156.152 181.3 160.428 185.511 160.79Z" fill="#222222"/>
<path d="M199.892 152.056C199.658 154.779 197.577 156.823 195.244 156.623C192.91 156.422 191.208 154.053 191.442 151.33C191.676 148.608 193.757 146.564 196.091 146.764C198.424 146.965 200.126 149.334 199.892 152.056Z" fill="#222222"/>
<path d="M188.457 151.074C188.223 153.797 186.141 155.841 183.808 155.64C181.475 155.44 179.773 153.07 180.007 150.348C180.241 147.626 182.322 145.582 184.655 145.782C186.989 145.983 188.69 148.352 188.457 151.074Z" fill="#222222"/>
<path d="M214.227 163.735C214.049 166.376 210.584 168.293 206.487 168.017C202.391 167.741 199.214 165.376 199.392 162.736C199.57 160.095 203.035 158.177 207.132 158.453C211.228 158.729 214.405 161.094 214.227 163.735Z" fill="#5F5F5F"/>
<path d="M185.224 162.814C184.976 165.45 181.462 167.275 177.375 166.892C173.287 166.509 170.173 164.061 170.421 161.426C170.668 158.791 174.182 156.965 178.27 157.349C182.357 157.732 185.471 160.179 185.224 162.814Z" fill="#5F5F5F"/>
<path d="M119.336 182.529C116.51 188.185 111.798 235.474 109.739 259.027C109.708 259.381 109.971 259.678 110.324 259.708L147.121 262.86C147.506 262.893 147.833 262.596 147.817 262.21C146.868 238.491 145.025 191.62 145.025 188.324C145.025 184.164 141.758 178.666 135.373 176.139C128.988 173.613 122.9 175.396 119.336 182.529Z" fill="#D9D9D9"/>
<path fill-rule="evenodd" clip-rule="evenodd" d="M126.643 176.65C124.163 177.566 121.923 179.588 120.23 182.976C119.941 183.554 119.58 184.792 119.174 186.684C118.777 188.538 118.356 190.92 117.922 193.71C117.053 199.287 116.137 206.45 115.243 214.182C113.474 229.481 111.799 246.972 110.767 258.742L146.801 261.829C145.848 238.002 144.024 191.627 144.024 188.324C144.024 184.627 141.06 179.465 135.005 177.069C131.987 175.875 129.128 175.732 126.643 176.65ZM147.206 261.863L147.206 261.863L147.206 261.863ZM125.95 174.774C128.996 173.649 132.373 173.877 135.74 175.21C142.455 177.866 146.024 183.7 146.024 188.324C146.024 191.593 147.866 238.429 148.816 262.17C148.857 263.189 147.988 263.938 147.036 263.856L110.238 260.704C109.364 260.629 108.661 259.874 108.742 258.94C109.772 247.158 111.466 229.438 113.256 213.952C114.151 206.21 115.071 199.018 115.946 193.402C116.383 190.595 116.81 188.171 117.219 186.264C117.62 184.395 118.024 182.918 118.441 182.082C120.312 178.338 122.898 175.901 125.95 174.774Z" fill="#222222"/>
<path d="M111.608 262.059H144.318V269.434H111.608V262.059Z" fill="#222222"/>
<path fill-rule="evenodd" clip-rule="evenodd" d="M111.608 262.059V269.434H144.318V262.059H142.318V267.434H113.608V262.059H111.608Z" fill="#222222"/>
<path d="M111.608 263.242C111.608 255.803 117.638 249.773 125.077 249.773H130.849C138.288 249.773 144.318 255.803 144.318 263.242H111.608Z" fill="#222222"/>
<path fill-rule="evenodd" clip-rule="evenodd" d="M130.849 251.773H125.077C119.425 251.773 114.728 255.861 113.782 261.242H142.144C141.198 255.861 136.501 251.773 130.849 251.773ZM144.17 261.242C143.204 254.752 137.608 249.773 130.849 249.773H125.077C118.318 249.773 112.722 254.752 111.755 261.242C111.658 261.894 111.608 262.562 111.608 263.242H144.318C144.318 262.562 144.268 261.894 144.17 261.242Z" fill="#222222"/>
<path fill-rule="evenodd" clip-rule="evenodd" d="M132.553 57.4627L131.328 48.8829L133.308 48.6L134.533 57.1798L132.553 57.4627Z" fill="#222222"/>
<path fill-rule="evenodd" clip-rule="evenodd" d="M182.229 52.9282L187.54 46.0787L189.12 47.3041L183.81 54.1536L182.229 52.9282Z" fill="#222222"/>
<path fill-rule="evenodd" clip-rule="evenodd" d="M122.678 67.409L112.872 62.5063L113.766 60.7174L123.572 65.6201L122.678 67.409Z" fill="#222222"/>
<path fill-rule="evenodd" clip-rule="evenodd" d="M168.215 52.7554L164.915 42.3011L166.822 41.699L170.122 52.1533L168.215 52.7554Z" fill="#222222"/>
<path fill-rule="evenodd" clip-rule="evenodd" d="M127.934 61.7045L120.58 54.3504L121.994 52.9362L129.348 60.2903L127.934 61.7045Z" fill="#222222"/>
<path fill-rule="evenodd" clip-rule="evenodd" d="M175.968 52.5616L176.134 42.1627L178.134 42.1946L177.968 52.5936L175.968 52.5616Z" fill="#222222"/>
<path d="M173.921 104.729C171.198 110.496 166.899 116.893 161.95 123.122C154.038 111.341 139.222 95.8209 134.845 89.4773C134.764 89.3599 134.682 89.2651 134.582 89.1631C130.691 85.1778 126.072 69.6543 138.649 65.9662C148.421 63.1008 154.469 71.7423 156.532 76.9851C156.542 77.0106 156.551 77.036 156.559 77.0613C156.565 76.4729 156.624 75.4859 156.775 73.9027C157.265 68.7672 158.246 59.1644 169.513 61.3094C180.779 63.4544 187.401 76.1815 173.921 104.729Z" fill="white"/>
<path fill-rule="evenodd" clip-rule="evenodd" d="M162.464 60.7225C164.37 59.9541 166.748 59.7651 169.7 60.327C172.679 60.8942 175.392 62.1701 177.548 64.2674C179.706 66.3672 181.255 69.2425 181.978 72.9254C183.418 80.2531 181.601 90.8076 174.826 105.156C172.141 110.841 167.971 117.091 163.185 123.173C165.201 126.234 166.771 129.093 167.527 131.494C169.298 137.118 170.408 141.348 171.077 144.358C171.739 147.338 171.982 149.182 171.982 150.002H169.982C169.982 149.421 169.785 147.764 169.124 144.792C168.47 141.849 167.376 137.675 165.62 132.094C164.988 130.088 163.671 127.607 161.872 124.82C156.51 131.449 150.474 137.834 144.87 143.022C138.99 148.466 133.503 152.67 129.739 154.408L128.9 152.592C132.359 150.996 137.65 146.981 143.511 141.555C149.185 136.302 155.314 129.8 160.71 123.074C156.813 117.377 151.374 110.847 146.311 104.91C145.383 103.821 144.466 102.751 143.573 101.708C139.456 96.904 135.852 92.6973 134.022 90.0452C133.982 89.9868 133.939 89.9358 133.867 89.8617C132.764 88.7319 131.684 86.8767 130.872 84.7295C130.055 82.5664 129.477 80.022 129.44 77.4674C129.404 74.9137 129.909 72.2985 131.313 70.0556C132.729 67.7939 135.01 65.9913 138.368 65.0067C143.63 63.4639 147.92 65.0363 151.116 67.6624C153.099 69.2911 154.669 71.3277 155.829 73.293C156.076 70.7714 156.516 67.1588 158.252 64.3501C159.201 62.8149 160.549 61.4946 162.464 60.7225ZM155.559 77.2441C154.557 74.7436 152.63 71.4941 149.847 69.2078C147.061 66.9188 143.441 65.6032 138.931 66.9259C136 67.7852 134.142 69.306 133.009 71.1169C131.863 72.9463 131.408 75.1526 131.44 77.439C131.473 79.7244 131.993 82.0386 132.743 84.0224C133.499 86.0219 134.455 87.6016 135.298 88.4645L134.582 89.1631L135.298 88.4645C135.425 88.5945 135.547 88.7331 135.668 88.9094L134.845 89.4773L135.668 88.9094C137.432 91.4664 140.942 95.5625 145.057 100.367C145.957 101.417 146.887 102.502 147.833 103.612C152.741 109.368 158.071 115.76 162.008 121.433C166.574 115.579 170.493 109.648 173.017 104.302C179.722 90.1025 181.334 80.02 180.016 73.311C179.361 69.9757 177.984 67.4828 176.153 65.7008C174.319 63.9164 171.98 62.797 169.326 62.2917C166.644 61.7812 164.674 61.9882 163.212 62.5775C161.759 63.1631 160.719 64.1623 159.953 65.4016C158.382 67.9446 158.02 71.3869 157.771 73.9977C157.632 75.4529 157.574 76.377 157.562 76.9391C157.623 77.2097 157.633 77.4766 157.602 77.6819C157.596 77.7204 157.587 77.7736 157.569 77.8339C157.557 77.8772 157.52 78.0012 157.43 78.1343C157.375 78.2171 157.02 78.697 156.38 78.557C156.115 78.499 155.944 78.3516 155.858 78.2596C155.771 78.1656 155.72 78.0748 155.693 78.0224C155.609 77.8554 155.587 77.6935 155.581 77.6509L155.581 77.6471C155.571 77.5728 155.566 77.4962 155.563 77.423C155.561 77.3669 155.56 77.3073 155.559 77.2441ZM155.629 77.3558L156.559 77.0613L155.629 77.3558C155.629 77.3558 155.629 77.3558 155.629 77.3558Z" fill="#222222"/>
<!-- </g> -->
<defs>
<filter id="filter0_d_437_2470" x="0" y="0" width="309" height="366" filterUnits="userSpaceOnUse" color-interpolation-filters="sRGB">
<feFlood flood-opacity="0" result="BackgroundImageFix"/>
<feColorMatrix in="SourceAlpha" type="matrix" values="0 0 0 0 0 0 0 0 0 0 0 0 0 0 0 0 0 0 127 0" result="hardAlpha"/>
<feOffset/>
<feGaussianBlur stdDeviation="8"/>
<feComposite in2="hardAlpha" operator="out"/>
<feColorMatrix type="matrix" values="0 0 0 0 0 0 0 0 0 0 0 0 0 0 0 0 0 0 0.12 0"/>
<feBlend mode="normal" in2="BackgroundImageFix" result="effect1_dropShadow_437_2470"/>
<feBlend mode="normal" in="SourceGraphic" in2="effect1_dropShadow_437_2470" result="shape"/>
</filter>
</defs>
</svg>
