<svg width="118" height="21" viewBox="0 0 118 21" fill="none" xmlns="http://www.w3.org/2000/svg">
<path d="M5.36809 18.832C5.32009 18.992 5.17609 19.064 4.93609 19.048C4.71209 19.048 4.52009 19.048 4.36009 19.048C3.89609 19.064 3.42409 19.064 2.94409 19.048C2.48009 19.048 2.01609 19.048 1.55209 19.048C1.34409 19.048 1.22409 18.952 1.19209 18.76C1.17609 18.552 1.17609 18.344 1.19209 18.136C1.24009 17.544 1.28009 16.952 1.31209 16.36C1.36009 15.768 1.36809 15.168 1.33609 14.56C1.30409 13.792 1.28009 13.024 1.26409 12.256C1.26409 11.488 1.24809 10.72 1.21609 9.952C1.21609 9.76 1.20009 9.384 1.16809 8.824C1.13609 8.264 1.10409 7.664 1.07209 7.024C1.04009 6.384 1.01609 5.784 1.00009 5.224C0.984088 4.664 0.976088 4.288 0.976088 4.096C0.976088 3.936 0.984088 3.776 1.00009 3.616C1.03209 3.456 1.08809 3.312 1.16809 3.184C1.23209 3.024 1.36009 2.904 1.55209 2.824C1.72809 2.76 2.01609 2.704 2.41609 2.656C2.81609 2.608 3.24009 2.576 3.68809 2.56C4.15209 2.528 4.59209 2.512 5.00809 2.512C5.42409 2.496 5.72809 2.496 5.92009 2.512C6.25609 2.528 6.59209 2.568 6.92809 2.632C7.26409 2.696 7.59209 2.792 7.91209 2.92C8.15209 3.032 8.37609 3.168 8.58409 3.328C8.79209 3.472 8.98409 3.632 9.16009 3.808C9.54409 4.192 9.86409 4.632 10.1201 5.128C10.3761 5.624 10.5601 6.128 10.6721 6.64C10.8321 7.36 10.8801 8.112 10.8161 8.896C10.7521 9.68 10.5361 10.4 10.1681 11.056C9.97609 11.408 9.72009 11.72 9.40009 11.992C9.09609 12.248 8.76809 12.48 8.41609 12.688C7.95209 12.96 7.44809 13.152 6.90409 13.264C6.36009 13.376 5.81609 13.432 5.27209 13.432C5.33609 14.664 5.38409 15.888 5.41609 17.104C5.41609 17.168 5.41609 17.288 5.41609 17.464C5.41609 17.624 5.41609 17.792 5.41609 17.968C5.41609 18.144 5.40809 18.32 5.39209 18.496C5.39209 18.656 5.38409 18.768 5.36809 18.832ZM5.08009 5.728C5.16009 6.448 5.20009 7.176 5.20009 7.912C5.21609 8.632 5.23209 9.36 5.24809 10.096C5.44009 10.064 5.63209 10.008 5.82409 9.928C6.01609 9.832 6.17609 9.712 6.30409 9.568C6.52809 9.344 6.66409 9.064 6.71209 8.728C6.74409 8.536 6.76009 8.312 6.76009 8.056C6.77609 7.784 6.76809 7.52 6.73609 7.264C6.70409 6.992 6.64809 6.744 6.56809 6.52C6.50409 6.296 6.40009 6.12 6.25609 5.992C6.09609 5.864 5.91209 5.784 5.70409 5.752C5.49609 5.72 5.28809 5.712 5.08009 5.728ZM19.1287 17.152C18.7287 17.344 18.3047 17.472 17.8567 17.536C17.4087 17.584 16.9607 17.592 16.5127 17.56C16.0007 17.528 15.4887 17.448 14.9767 17.32C14.4807 17.176 14.0087 16.968 13.5607 16.696C13.2887 16.536 13.0407 16.352 12.8167 16.144C12.6087 15.936 12.4167 15.712 12.2407 15.472C11.9687 15.088 11.7447 14.68 11.5687 14.248C11.4087 13.8 11.2887 13.344 11.2087 12.88C11.0807 12.16 11.0167 11.448 11.0167 10.744C11.0167 10.04 11.0247 9.328 11.0407 8.608C11.0727 7.552 11.2407 6.52 11.5447 5.512C11.6727 5.08 11.8487 4.672 12.0727 4.288C12.2967 3.888 12.5687 3.528 12.8887 3.208C13.0807 3.016 13.2887 2.84 13.5127 2.68C13.7367 2.504 13.9767 2.376 14.2327 2.296C14.9047 2.072 15.6007 1.928 16.3207 1.864C17.0567 1.8 17.7687 1.848 18.4567 2.008C18.8247 2.088 19.1847 2.2 19.5367 2.344C19.9047 2.488 20.2327 2.68 20.5207 2.92C21.0167 3.352 21.4167 3.88 21.7207 4.504C21.9767 5 22.1687 5.52 22.2967 6.064C22.4247 6.592 22.5207 7.136 22.5847 7.696C22.6487 8.416 22.6647 9.128 22.6327 9.832C22.6167 10.536 22.5607 11.24 22.4647 11.944C22.4007 12.456 22.2887 12.96 22.1287 13.456C21.9847 13.952 21.7767 14.416 21.5047 14.848C21.2167 15.312 20.8727 15.752 20.4727 16.168C20.0727 16.584 19.6247 16.912 19.1287 17.152ZM16.3447 13.264C16.5687 13.36 16.8327 13.384 17.1367 13.336C17.4407 13.288 17.6647 13.16 17.8087 12.952C17.9207 12.792 17.9927 12.624 18.0247 12.448C18.0727 12.256 18.1127 12.064 18.1447 11.872C18.2727 11.28 18.3207 10.68 18.2887 10.072C18.2727 9.464 18.2407 8.856 18.1927 8.248C18.1767 8.104 18.1527 7.912 18.1207 7.672C18.1047 7.416 18.0727 7.16 18.0247 6.904C17.9767 6.632 17.9207 6.376 17.8567 6.136C17.7927 5.896 17.7127 5.728 17.6167 5.632C17.3927 5.408 17.1207 5.32 16.8007 5.368C16.4967 5.4 16.2567 5.544 16.0807 5.8C15.9207 6.008 15.8007 6.24 15.7207 6.496C15.6407 6.736 15.5687 6.976 15.5047 7.216C15.3767 7.76 15.3047 8.312 15.2887 8.872C15.2727 9.416 15.2807 9.968 15.3127 10.528C15.3127 10.72 15.3287 10.96 15.3607 11.248C15.4087 11.52 15.4727 11.792 15.5527 12.064C15.6327 12.336 15.7367 12.584 15.8647 12.808C15.9927 13.032 16.1527 13.184 16.3447 13.264ZM28.3836 19.264C28.2556 19.264 28.0876 19.264 27.8796 19.264C27.6716 19.28 27.4556 19.28 27.2316 19.264C27.0076 19.264 26.7996 19.24 26.6076 19.192C26.4156 19.16 26.2716 19.104 26.1756 19.024C26.0476 18.896 25.9676 18.744 25.9356 18.568C25.9196 18.376 25.9116 18.192 25.9116 18.016C25.9116 17.488 25.8956 16.96 25.8636 16.432C25.8476 15.904 25.8476 15.376 25.8636 14.848C25.8636 14.672 25.8716 14.376 25.8876 13.96C25.9036 13.544 25.9196 13.064 25.9356 12.52C25.9516 11.976 25.9676 11.408 25.9836 10.816C26.0156 10.208 26.0396 9.632 26.0556 9.088C26.0716 8.544 26.0796 8.072 26.0796 7.672C26.0956 7.256 26.1036 6.96 26.1036 6.784C25.7196 6.832 25.3356 6.88 24.9516 6.928C24.5836 6.96 24.2076 6.976 23.8236 6.976C23.6956 6.976 23.5596 6.96 23.4156 6.928C23.2716 6.896 23.1516 6.84 23.0556 6.76C22.8796 6.584 22.7756 6.344 22.7436 6.04C22.7276 5.864 22.7356 5.68 22.7676 5.488C22.7836 5.296 22.7916 5.104 22.7916 4.912C22.7916 4.848 22.7916 4.76 22.7916 4.648C22.7916 4.52 22.7916 4.392 22.7916 4.264C22.8076 4.12 22.8236 3.984 22.8396 3.856C22.8556 3.728 22.8796 3.64 22.9116 3.592C22.9756 3.48 23.0716 3.408 23.1996 3.376C23.3436 3.344 23.4796 3.32 23.6076 3.304C25.0316 3.256 26.4796 3.184 27.9516 3.088C28.5116 3.056 29.0556 3.016 29.5836 2.968C30.1276 2.92 30.6796 2.88 31.2396 2.848C31.3676 2.848 31.5356 2.848 31.7436 2.848C31.9516 2.832 32.1676 2.832 32.3916 2.848C32.6156 2.864 32.8236 2.896 33.0156 2.944C33.2076 2.976 33.3516 3.04 33.4476 3.136C33.5276 3.216 33.5676 3.328 33.5676 3.472C33.5676 3.616 33.5596 3.752 33.5436 3.88C33.5436 3.944 33.5436 4.008 33.5436 4.072C33.5596 4.12 33.5676 4.176 33.5676 4.24C33.5676 4.64 33.5436 5.032 33.4956 5.416C33.4796 5.56 33.4476 5.784 33.3996 6.088C33.3676 6.376 33.3036 6.568 33.2076 6.664C33.1436 6.728 33.0396 6.768 32.8956 6.784C32.7516 6.8 32.5996 6.808 32.4396 6.808C32.2796 6.792 32.1196 6.776 31.9596 6.76C31.8156 6.744 31.6956 6.736 31.5996 6.736C31.3756 6.736 31.1516 6.744 30.9276 6.76C30.7036 6.776 30.4796 6.776 30.2556 6.76C30.2396 7.816 30.2156 8.88 30.1836 9.952C30.1516 11.008 30.1756 12.064 30.2556 13.12C30.3036 13.728 30.3196 14.344 30.3036 14.968C30.3036 15.576 30.3116 16.184 30.3276 16.792C30.3276 16.888 30.3356 17.032 30.3516 17.224C30.3676 17.416 30.3756 17.616 30.3756 17.824C30.3916 18.032 30.3916 18.232 30.3756 18.424C30.3756 18.6 30.3516 18.728 30.3036 18.808C30.2396 18.92 30.1276 19.008 29.9676 19.072C29.8076 19.136 29.6316 19.176 29.4396 19.192C29.2476 19.224 29.0556 19.24 28.8636 19.24C28.6716 19.256 28.5116 19.264 28.3836 19.264ZM42.2066 17.392C41.5986 17.456 40.9986 17.472 40.4066 17.44C39.8146 17.392 39.2146 17.368 38.6066 17.368C38.4786 17.368 38.2306 17.376 37.8626 17.392C37.5106 17.392 37.1266 17.4 36.7106 17.416C36.3106 17.416 35.9266 17.416 35.5586 17.416C35.2066 17.416 34.9666 17.408 34.8386 17.392C34.6786 17.36 34.5106 17.296 34.3346 17.2C34.1746 17.104 34.0786 16.976 34.0466 16.816C33.9986 16.64 33.9586 16.336 33.9266 15.904C33.9106 15.472 33.9026 15.008 33.9026 14.512C33.9026 14.016 33.9026 13.552 33.9026 13.12C33.9186 12.672 33.9266 12.36 33.9266 12.184C33.9266 11.784 33.9266 11.392 33.9266 11.008C33.9266 10.608 33.9186 10.208 33.9026 9.808C33.9026 9.648 33.9026 9.32 33.9026 8.824C33.9186 8.328 33.9266 7.808 33.9266 7.264C33.9426 6.704 33.9506 6.184 33.9506 5.704C33.9666 5.208 33.9826 4.88 33.9986 4.72C33.9986 4.64 34.0066 4.56 34.0226 4.48C34.0546 4.384 34.1106 4.312 34.1906 4.264C34.2386 4.216 34.3426 4.176 34.5026 4.144C34.6786 4.112 34.7986 4.08 34.8626 4.048C34.9586 4.016 35.0546 4 35.1506 4C35.2626 3.984 35.3666 3.968 35.4626 3.952C36.1506 3.888 36.8386 3.856 37.5266 3.856C38.2146 3.856 38.9106 3.864 39.6146 3.88C39.6946 3.88 39.8466 3.888 40.0706 3.904C40.2946 3.92 40.5266 3.936 40.7666 3.952C41.0226 3.952 41.2626 3.96 41.4866 3.976C41.7106 3.992 41.8626 4.008 41.9426 4.024H41.9666C42.1746 3.992 42.2946 4.08 42.3266 4.288C42.3426 4.32 42.3426 4.36 42.3266 4.408C42.3106 4.44 42.3026 4.472 42.3026 4.504C42.3026 4.6 42.2946 4.784 42.2786 5.056C42.2786 5.328 42.2706 5.616 42.2546 5.92C42.2546 6.224 42.2466 6.512 42.2306 6.784C42.2306 7.056 42.2306 7.24 42.2306 7.336C42.2306 7.432 42.1906 7.512 42.1106 7.576C42.0466 7.64 41.9666 7.664 41.8706 7.648C41.7106 7.616 41.4226 7.592 41.0066 7.576C40.6066 7.56 40.1746 7.552 39.7106 7.552C39.2626 7.552 38.8306 7.56 38.4146 7.576C38.0146 7.576 37.7346 7.584 37.5746 7.6C37.5586 7.904 37.5666 8.2 37.5986 8.488C37.6306 8.776 37.6466 9.072 37.6466 9.376C37.7106 9.376 37.8466 9.384 38.0546 9.4C38.2786 9.4 38.5106 9.408 38.7506 9.424C38.9906 9.424 39.2146 9.432 39.4226 9.448C39.6306 9.448 39.7666 9.448 39.8306 9.448C39.8786 9.448 39.9426 9.448 40.0226 9.448C40.1186 9.448 40.2146 9.448 40.3106 9.448C40.4226 9.448 40.5266 9.448 40.6226 9.448C40.7186 9.448 40.7826 9.456 40.8146 9.472C40.9906 9.552 41.0546 9.688 41.0066 9.88C40.9746 9.944 40.9586 9.984 40.9586 10C40.9426 10.544 40.8946 11.08 40.8146 11.608C40.8146 11.704 40.8226 11.768 40.8386 11.8C40.9186 11.944 40.9106 12.072 40.8146 12.184C40.7186 12.296 40.5906 12.344 40.4306 12.328C40.3346 12.328 40.1426 12.328 39.8546 12.328C39.5826 12.312 39.2866 12.304 38.9666 12.304C38.6626 12.304 38.3666 12.304 38.0786 12.304C37.8066 12.304 37.6226 12.312 37.5266 12.328C37.5426 12.536 37.5586 12.744 37.5746 12.952C37.5906 13.144 37.5986 13.344 37.5986 13.552C38.0306 13.632 38.4626 13.688 38.8946 13.72C39.3266 13.752 39.7586 13.76 40.1906 13.744C40.2546 13.744 40.3666 13.728 40.5266 13.696C40.6866 13.664 40.8626 13.632 41.0546 13.6C41.2466 13.552 41.4226 13.52 41.5826 13.504C41.7426 13.472 41.8546 13.456 41.9186 13.456C42.0946 13.456 42.2226 13.52 42.3026 13.648C42.3506 13.76 42.3826 13.952 42.3986 14.224C42.4146 14.496 42.4226 14.784 42.4226 15.088C42.4386 15.392 42.4466 15.688 42.4466 15.976C42.4466 16.248 42.4466 16.44 42.4466 16.552C42.4466 16.584 42.4466 16.656 42.4466 16.768C42.4466 16.864 42.4546 16.928 42.4706 16.96C42.5026 17.056 42.4866 17.152 42.4226 17.248C42.3746 17.328 42.3026 17.376 42.2066 17.392ZM47.3302 18.28C46.7222 18.312 46.1222 18.328 45.5302 18.328C44.9542 18.328 44.3622 18.336 43.7542 18.352C43.6102 18.368 43.5062 18.312 43.4422 18.184C43.3942 18.04 43.3622 17.896 43.3462 17.752C43.3462 17.688 43.3462 17.568 43.3462 17.392C43.3622 17.216 43.3782 17.024 43.3942 16.816C43.4102 16.608 43.4182 16.416 43.4182 16.24C43.4342 16.064 43.4422 15.944 43.4422 15.88C43.3302 14.104 43.2662 12.336 43.2502 10.576C43.2502 8.816 43.2182 7.04 43.1542 5.248C43.1382 5.104 43.1302 4.96 43.1302 4.816C43.1302 4.656 43.1142 4.496 43.0822 4.336C43.0662 4.16 43.0342 3.976 42.9862 3.784C42.9542 3.576 42.9702 3.384 43.0342 3.208C43.0982 3.064 43.2102 2.952 43.3702 2.872C43.5302 2.792 43.6902 2.736 43.8502 2.704C44.2182 2.592 44.5862 2.496 44.9542 2.416C45.3222 2.336 45.6902 2.288 46.0582 2.272C46.1702 2.272 46.2822 2.28 46.3942 2.296C46.5062 2.296 46.6102 2.312 46.7062 2.344C46.9942 2.312 47.2822 2.288 47.5702 2.272C47.8742 2.24 48.1702 2.24 48.4582 2.272C48.5862 2.288 48.6902 2.392 48.7702 2.584C48.8502 2.776 48.9142 2.928 48.9622 3.04C49.0102 3.136 49.0822 3.32 49.1782 3.592C49.2902 3.864 49.4022 4.16 49.5142 4.48C49.6262 4.8 49.7302 5.104 49.8262 5.392C49.9382 5.68 50.0102 5.872 50.0422 5.968C50.5062 7.232 50.9542 8.504 51.3862 9.784C51.8342 11.064 52.3142 12.328 52.8262 13.576C52.8262 12.008 52.8262 10.448 52.8262 8.896C52.8262 7.344 52.8422 5.784 52.8742 4.216C52.8742 4.152 52.8662 4.024 52.8502 3.832C52.8502 3.64 52.8662 3.512 52.8982 3.448C52.9302 3.368 53.0022 3.304 53.1142 3.256C53.2262 3.192 53.3222 3.168 53.4022 3.184C53.4502 3.2 53.5302 3.2 53.6422 3.184C53.7542 3.168 53.8742 3.152 54.0022 3.136C54.1302 3.12 54.2502 3.104 54.3622 3.088C54.4742 3.072 54.5542 3.064 54.6022 3.064C54.8902 3.064 55.2022 3.064 55.5382 3.064C55.8742 3.048 56.1702 3.064 56.4262 3.112C56.6982 3.144 56.8982 3.224 57.0262 3.352C57.1702 3.464 57.1862 3.648 57.0742 3.904C57.0422 3.936 57.0342 4.024 57.0502 4.168C57.0662 4.312 57.0742 4.408 57.0742 4.456C57.0742 4.616 57.0662 4.88 57.0502 5.248C57.0342 5.616 57.0102 6.048 56.9782 6.544C56.9622 7.024 56.9382 7.536 56.9062 8.08C56.8742 8.624 56.8422 9.144 56.8102 9.64C56.7782 10.12 56.7462 10.552 56.7142 10.936C56.6982 11.304 56.6902 11.56 56.6902 11.704C56.6102 13.48 56.5622 15.256 56.5462 17.032C56.5462 17.064 56.5462 17.144 56.5462 17.272C56.5622 17.4 56.5622 17.48 56.5462 17.512C56.5142 17.576 56.4582 17.64 56.3782 17.704C56.2982 17.752 56.2262 17.792 56.1622 17.824C56.0822 17.856 55.9142 17.88 55.6582 17.896C55.4182 17.912 55.2582 17.928 55.1782 17.944C55.0502 17.976 54.8182 18 54.4822 18.016C54.1462 18.032 53.7862 18.048 53.4022 18.064C53.0342 18.08 52.6822 18.088 52.3462 18.088C52.0102 18.088 51.7702 18.08 51.6262 18.064C51.4342 18.032 51.2982 17.92 51.2182 17.728C51.1702 17.632 51.0822 17.432 50.9542 17.128C50.8262 16.808 50.6902 16.48 50.5462 16.144C50.4022 15.792 50.2662 15.464 50.1382 15.16C50.0262 14.856 49.9462 14.656 49.8982 14.56C49.8502 14.448 49.7702 14.248 49.6582 13.96C49.5462 13.656 49.4102 13.32 49.2502 12.952C49.0902 12.568 48.9222 12.168 48.7462 11.752C48.5862 11.336 48.4262 10.944 48.2662 10.576C48.1062 10.192 47.9622 9.856 47.8342 9.568C47.7222 9.264 47.6422 9.056 47.5942 8.944C47.6102 9.136 47.6262 9.464 47.6422 9.928C47.6582 10.392 47.6742 10.92 47.6902 11.512C47.7222 12.104 47.7462 12.736 47.7622 13.408C47.7942 14.064 47.8182 14.696 47.8342 15.304C47.8662 15.896 47.8902 16.424 47.9062 16.888C47.9222 17.336 47.9302 17.656 47.9302 17.848C47.9302 17.992 47.8582 18.104 47.7142 18.184C47.5862 18.248 47.4582 18.28 47.3302 18.28ZM73.984 17.776C73.856 17.968 73.648 18.136 73.36 18.28C73.088 18.424 72.784 18.544 72.448 18.64C72.112 18.736 71.776 18.808 71.44 18.856C71.104 18.904 70.816 18.928 70.576 18.928C70.176 18.928 69.776 18.912 69.376 18.88C68.976 18.832 68.584 18.744 68.2 18.616C67.752 18.456 67.32 18.264 66.904 18.04C66.488 17.816 66.104 17.536 65.752 17.2C65.48 16.928 65.24 16.632 65.032 16.312C64.84 15.976 64.656 15.632 64.48 15.28C64.176 14.608 63.96 13.912 63.832 13.192C63.704 12.456 63.624 11.728 63.592 11.008C63.56 10.352 63.544 9.704 63.544 9.064C63.56 8.424 63.632 7.792 63.76 7.168C63.984 6.16 64.384 5.232 64.96 4.384C65.232 4 65.536 3.648 65.872 3.328C66.208 2.992 66.568 2.688 66.952 2.416C67.368 2.128 67.816 1.888 68.296 1.696C68.776 1.488 69.272 1.384 69.784 1.384C70.392 1.384 71 1.52 71.608 1.792C72.232 2.064 72.752 2.432 73.168 2.896C73.264 3.008 73.376 3.112 73.504 3.208C73.648 3.288 73.76 3.392 73.84 3.52C73.92 3.632 73.952 3.76 73.936 3.904C73.936 4.048 73.904 4.184 73.84 4.312C73.792 4.408 73.696 4.552 73.552 4.744C73.424 4.92 73.272 5.112 73.096 5.32C72.936 5.512 72.776 5.696 72.616 5.872C72.472 6.048 72.368 6.168 72.304 6.232C72.112 6.408 71.928 6.504 71.752 6.52C71.56 6.552 71.376 6.52 71.2 6.424C71.04 6.312 70.888 6.2 70.744 6.088C70.52 5.912 70.256 5.776 69.952 5.68C69.648 5.568 69.36 5.552 69.088 5.632C68.8 5.728 68.56 5.92 68.368 6.208C68.176 6.48 68.024 6.76 67.912 7.048C67.64 7.784 67.496 8.56 67.48 9.376C67.464 10.192 67.536 10.984 67.696 11.752C67.76 12.072 67.84 12.392 67.936 12.712C68.048 13.016 68.192 13.304 68.368 13.576C68.608 13.944 68.896 14.208 69.232 14.368C69.456 14.448 69.68 14.504 69.904 14.536C70.128 14.552 70.352 14.56 70.576 14.56C70.928 14.56 71.272 14.552 71.608 14.536C71.96 14.504 72.296 14.448 72.616 14.368C72.744 14.336 72.856 14.304 72.952 14.272C73.064 14.224 73.184 14.208 73.312 14.224C73.504 14.256 73.656 14.36 73.768 14.536C73.8 14.6 73.832 14.712 73.864 14.872C73.912 15.032 73.952 15.2 73.984 15.376C74.016 15.552 74.04 15.72 74.056 15.88C74.088 16.04 74.104 16.152 74.104 16.216C74.136 16.488 74.152 16.76 74.152 17.032C74.168 17.304 74.112 17.552 73.984 17.776ZM76.5717 20.344C76.4917 20.36 76.3797 20.368 76.2357 20.368C76.0917 20.368 75.9397 20.36 75.7797 20.344C75.6357 20.344 75.4837 20.328 75.3237 20.296C75.1797 20.28 75.0757 20.256 75.0117 20.224C74.8837 20.16 74.8037 20.016 74.7717 19.792C74.7397 19.568 74.7317 19.376 74.7477 19.216C74.7637 19.008 74.7717 18.648 74.7717 18.136C74.7877 17.608 74.7957 17.016 74.7957 16.36C74.7957 15.688 74.7957 14.984 74.7957 14.248C74.8117 13.512 74.8197 12.816 74.8197 12.16C74.8197 11.488 74.8117 10.896 74.7957 10.384C74.7957 9.872 74.7957 9.504 74.7957 9.28C74.7957 8.864 74.7797 8.456 74.7477 8.056C74.7317 7.64 74.7237 7.224 74.7237 6.808C74.7237 6.648 74.7237 6.336 74.7237 5.872C74.7397 5.392 74.7477 4.888 74.7477 4.36C74.7477 3.832 74.7477 3.336 74.7477 2.872C74.7477 2.392 74.7397 2.072 74.7237 1.912C74.6917 1.736 74.6677 1.552 74.6517 1.36C74.6517 1.152 74.7157 0.983999 74.8437 0.855999C74.8917 0.807999 74.9797 0.767999 75.1077 0.735999C75.2357 0.687999 75.3717 0.647999 75.5157 0.615999C75.6757 0.584 75.8197 0.559999 75.9477 0.543999C76.0917 0.527999 76.2037 0.511999 76.2837 0.495999C76.4597 0.463999 76.6277 0.423999 76.7877 0.375999C76.9637 0.327999 77.1397 0.303999 77.3157 0.303999C77.4757 0.319999 77.6277 0.351999 77.7717 0.399999C77.9317 0.447999 78.0837 0.455999 78.2277 0.423999C78.4037 0.391999 78.5397 0.423999 78.6357 0.519999C78.7317 0.599999 78.8037 0.719999 78.8517 0.879999C78.9157 1.024 78.9557 1.192 78.9717 1.384C78.9877 1.576 78.9957 1.76 78.9957 1.936C78.9957 2.08 78.9957 2.376 78.9957 2.824C79.0117 3.256 79.0197 3.728 79.0197 4.24C79.0197 4.736 79.0197 5.208 79.0197 5.656C79.0357 6.104 79.0437 6.4 79.0437 6.544C79.0437 6.688 79.0277 6.88 78.9957 7.12C78.9797 7.36 78.9717 7.608 78.9717 7.864C78.9717 8.104 78.9877 8.336 79.0197 8.56C79.0677 8.768 79.1477 8.92 79.2597 9.016C79.3397 9.08 79.4197 9.12 79.4997 9.136C79.5957 9.152 79.6917 9.16 79.7877 9.16C79.9317 9.16 80.0837 9.168 80.2437 9.184C80.4037 9.184 80.5557 9.176 80.6997 9.16C80.8437 9.128 80.9637 9.08 81.0597 9.016C81.1557 8.936 81.2117 8.824 81.2277 8.68C81.2437 8.52 81.2517 8.216 81.2517 7.768C81.2677 7.32 81.2757 6.848 81.2757 6.352C81.2917 5.84 81.2997 5.36 81.2997 4.912C81.2997 4.464 81.2997 4.16 81.2997 4C81.2997 3.92 81.2917 3.784 81.2757 3.592C81.2757 3.4 81.2677 3.2 81.2517 2.992C81.2517 2.768 81.2517 2.568 81.2517 2.392C81.2677 2.2 81.2837 2.064 81.2997 1.984C81.3317 1.824 81.4197 1.712 81.5637 1.648C81.7077 1.568 81.8757 1.512 82.0677 1.48C82.2597 1.448 82.4597 1.432 82.6677 1.432C82.8757 1.432 83.0597 1.432 83.2197 1.432C83.3637 1.432 83.5557 1.424 83.7957 1.408C84.0517 1.392 84.3077 1.384 84.5637 1.384C84.8357 1.384 85.0837 1.408 85.3077 1.456C85.5317 1.488 85.6997 1.552 85.8117 1.648C85.8757 1.728 85.9237 1.824 85.9557 1.936C86.0517 2.448 86.0757 2.976 86.0277 3.52C85.9957 4.048 85.9637 4.576 85.9317 5.104C85.9157 5.408 85.8997 5.888 85.8837 6.544C85.8677 7.2 85.8437 7.944 85.8117 8.776C85.7957 9.592 85.7797 10.456 85.7637 11.368C85.7477 12.264 85.7397 13.128 85.7397 13.96C85.7397 14.776 85.7477 15.512 85.7637 16.168C85.7957 16.808 85.8437 17.28 85.9077 17.584C85.9397 17.744 85.9797 17.968 86.0277 18.256C86.0757 18.544 86.0437 18.752 85.9317 18.88C85.8677 18.96 85.7637 19.024 85.6197 19.072C85.4757 19.136 85.3157 19.184 85.1397 19.216C84.9797 19.248 84.8117 19.264 84.6357 19.264C84.4757 19.28 84.3397 19.288 84.2277 19.288C83.9237 19.288 83.5957 19.296 83.2437 19.312C82.8917 19.328 82.5717 19.312 82.2837 19.264C81.9957 19.232 81.7557 19.144 81.5637 19C81.3717 18.872 81.2917 18.656 81.3237 18.352C81.4037 17.568 81.4677 16.784 81.5157 16C81.5637 15.216 81.5797 14.424 81.5637 13.624C81.5637 13.512 81.5477 13.36 81.5157 13.168C81.4837 12.976 81.4277 12.84 81.3477 12.76C81.2997 12.712 81.2277 12.672 81.1317 12.64C81.0357 12.608 80.9237 12.584 80.7957 12.568C80.6837 12.536 80.5717 12.52 80.4597 12.52C80.3477 12.504 80.2597 12.496 80.1957 12.496C80.0677 12.48 79.8997 12.48 79.6917 12.496C79.4837 12.496 79.3397 12.536 79.2597 12.616C79.2117 12.68 79.1797 12.752 79.1637 12.832C79.1637 12.896 79.1637 12.968 79.1637 13.048C79.1637 13.176 79.1717 13.4 79.1877 13.72C79.2037 14.024 79.2197 14.384 79.2357 14.8C79.2517 15.216 79.2677 15.656 79.2837 16.12C79.3157 16.568 79.3397 17 79.3557 17.416C79.3717 17.832 79.3877 18.2 79.4037 18.52C79.4197 18.824 79.4277 19.04 79.4277 19.168C79.4277 19.344 79.4037 19.536 79.3557 19.744C79.3237 19.952 79.2277 20.104 79.0677 20.2C79.0197 20.232 78.9317 20.248 78.8037 20.248C78.6757 20.264 78.5397 20.272 78.3957 20.272C78.2517 20.272 78.1077 20.264 77.9637 20.248C77.8357 20.232 77.7397 20.224 77.6757 20.224C77.4837 20.224 77.2917 20.232 77.0997 20.248C76.9237 20.28 76.7477 20.312 76.5717 20.344ZM95.1799 17.392C94.5719 17.456 93.9719 17.472 93.3799 17.44C92.7879 17.392 92.1879 17.368 91.5799 17.368C91.4519 17.368 91.2039 17.376 90.8359 17.392C90.4839 17.392 90.0999 17.4 89.6839 17.416C89.2839 17.416 88.8999 17.416 88.5319 17.416C88.1799 17.416 87.9399 17.408 87.8119 17.392C87.6519 17.36 87.4839 17.296 87.3079 17.2C87.1479 17.104 87.0519 16.976 87.0199 16.816C86.9719 16.64 86.9319 16.336 86.8999 15.904C86.8839 15.472 86.8759 15.008 86.8759 14.512C86.8759 14.016 86.8759 13.552 86.8759 13.12C86.8919 12.672 86.8999 12.36 86.8999 12.184C86.8999 11.784 86.8999 11.392 86.8999 11.008C86.8999 10.608 86.8919 10.208 86.8759 9.808C86.8759 9.648 86.8759 9.32 86.8759 8.824C86.8919 8.328 86.8999 7.808 86.8999 7.264C86.9159 6.704 86.9239 6.184 86.9239 5.704C86.9399 5.208 86.9559 4.88 86.9719 4.72C86.9719 4.64 86.9799 4.56 86.9959 4.48C87.0279 4.384 87.0839 4.312 87.1639 4.264C87.2119 4.216 87.3159 4.176 87.4759 4.144C87.6519 4.112 87.7719 4.08 87.8359 4.048C87.9319 4.016 88.0279 4 88.1239 4C88.2359 3.984 88.3399 3.968 88.4359 3.952C89.1239 3.888 89.8119 3.856 90.4999 3.856C91.1879 3.856 91.8839 3.864 92.5879 3.88C92.6679 3.88 92.8199 3.888 93.0439 3.904C93.2679 3.92 93.4999 3.936 93.7399 3.952C93.9959 3.952 94.2359 3.96 94.4599 3.976C94.6839 3.992 94.8359 4.008 94.9159 4.024H94.9399C95.1479 3.992 95.2679 4.08 95.2999 4.288C95.3159 4.32 95.3159 4.36 95.2999 4.408C95.2839 4.44 95.2759 4.472 95.2759 4.504C95.2759 4.6 95.2679 4.784 95.2519 5.056C95.2519 5.328 95.2439 5.616 95.2279 5.92C95.2279 6.224 95.2199 6.512 95.2039 6.784C95.2039 7.056 95.2039 7.24 95.2039 7.336C95.2039 7.432 95.1639 7.512 95.0839 7.576C95.0199 7.64 94.9399 7.664 94.8439 7.648C94.6839 7.616 94.3959 7.592 93.9799 7.576C93.5799 7.56 93.1479 7.552 92.6839 7.552C92.2359 7.552 91.8039 7.56 91.3879 7.576C90.9879 7.576 90.7079 7.584 90.5479 7.6C90.5319 7.904 90.5399 8.2 90.5719 8.488C90.6039 8.776 90.6199 9.072 90.6199 9.376C90.6839 9.376 90.8199 9.384 91.0279 9.4C91.2519 9.4 91.4839 9.408 91.7239 9.424C91.9639 9.424 92.1879 9.432 92.3959 9.448C92.6039 9.448 92.7399 9.448 92.8039 9.448C92.8519 9.448 92.9159 9.448 92.9959 9.448C93.0919 9.448 93.1879 9.448 93.2839 9.448C93.3959 9.448 93.4999 9.448 93.5959 9.448C93.6919 9.448 93.7559 9.456 93.7879 9.472C93.9639 9.552 94.0279 9.688 93.9799 9.88C93.9479 9.944 93.9319 9.984 93.9319 10C93.9159 10.544 93.8679 11.08 93.7879 11.608C93.7879 11.704 93.7959 11.768 93.8119 11.8C93.8919 11.944 93.8839 12.072 93.7879 12.184C93.6919 12.296 93.5639 12.344 93.4039 12.328C93.3079 12.328 93.1159 12.328 92.8279 12.328C92.5559 12.312 92.2599 12.304 91.9399 12.304C91.6359 12.304 91.3399 12.304 91.0519 12.304C90.7799 12.304 90.5959 12.312 90.4999 12.328C90.5159 12.536 90.5319 12.744 90.5479 12.952C90.5639 13.144 90.5719 13.344 90.5719 13.552C91.0039 13.632 91.4359 13.688 91.8679 13.72C92.2999 13.752 92.7319 13.76 93.1639 13.744C93.2279 13.744 93.3399 13.728 93.4999 13.696C93.6599 13.664 93.8359 13.632 94.0279 13.6C94.2199 13.552 94.3959 13.52 94.5559 13.504C94.7159 13.472 94.8279 13.456 94.8919 13.456C95.0679 13.456 95.1959 13.52 95.2759 13.648C95.3239 13.76 95.3559 13.952 95.3719 14.224C95.3879 14.496 95.3959 14.784 95.3959 15.088C95.4119 15.392 95.4199 15.688 95.4199 15.976C95.4199 16.248 95.4199 16.44 95.4199 16.552C95.4199 16.584 95.4199 16.656 95.4199 16.768C95.4199 16.864 95.4279 16.928 95.4439 16.96C95.4759 17.056 95.4599 17.152 95.3959 17.248C95.3479 17.328 95.2759 17.376 95.1799 17.392ZM106.231 17.776C106.103 17.968 105.895 18.136 105.607 18.28C105.335 18.424 105.031 18.544 104.695 18.64C104.359 18.736 104.023 18.808 103.687 18.856C103.351 18.904 103.063 18.928 102.823 18.928C102.423 18.928 102.023 18.912 101.623 18.88C101.223 18.832 100.831 18.744 100.447 18.616C99.9995 18.456 99.5675 18.264 99.1515 18.04C98.7355 17.816 98.3515 17.536 97.9995 17.2C97.7275 16.928 97.4875 16.632 97.2795 16.312C97.0875 15.976 96.9035 15.632 96.7275 15.28C96.4235 14.608 96.2075 13.912 96.0795 13.192C95.9515 12.456 95.8715 11.728 95.8395 11.008C95.8075 10.352 95.7915 9.704 95.7915 9.064C95.8075 8.424 95.8795 7.792 96.0075 7.168C96.2315 6.16 96.6315 5.232 97.2075 4.384C97.4795 4 97.7835 3.648 98.1195 3.328C98.4555 2.992 98.8155 2.688 99.1995 2.416C99.6155 2.128 100.063 1.888 100.543 1.696C101.023 1.488 101.519 1.384 102.031 1.384C102.639 1.384 103.247 1.52 103.855 1.792C104.479 2.064 104.999 2.432 105.415 2.896C105.511 3.008 105.623 3.112 105.751 3.208C105.895 3.288 106.007 3.392 106.087 3.52C106.167 3.632 106.199 3.76 106.183 3.904C106.183 4.048 106.151 4.184 106.087 4.312C106.039 4.408 105.943 4.552 105.799 4.744C105.671 4.92 105.519 5.112 105.343 5.32C105.183 5.512 105.023 5.696 104.863 5.872C104.719 6.048 104.615 6.168 104.551 6.232C104.359 6.408 104.175 6.504 103.999 6.52C103.807 6.552 103.623 6.52 103.447 6.424C103.287 6.312 103.135 6.2 102.991 6.088C102.767 5.912 102.503 5.776 102.199 5.68C101.895 5.568 101.607 5.552 101.335 5.632C101.047 5.728 100.807 5.92 100.615 6.208C100.423 6.48 100.271 6.76 100.159 7.048C99.8875 7.784 99.7435 8.56 99.7275 9.376C99.7115 10.192 99.7835 10.984 99.9435 11.752C100.007 12.072 100.087 12.392 100.183 12.712C100.295 13.016 100.439 13.304 100.615 13.576C100.855 13.944 101.143 14.208 101.479 14.368C101.703 14.448 101.927 14.504 102.151 14.536C102.375 14.552 102.599 14.56 102.823 14.56C103.175 14.56 103.519 14.552 103.855 14.536C104.207 14.504 104.543 14.448 104.863 14.368C104.991 14.336 105.103 14.304 105.199 14.272C105.311 14.224 105.431 14.208 105.559 14.224C105.751 14.256 105.903 14.36 106.015 14.536C106.047 14.6 106.079 14.712 106.111 14.872C106.159 15.032 106.199 15.2 106.231 15.376C106.263 15.552 106.287 15.72 106.303 15.88C106.335 16.04 106.351 16.152 106.351 16.216C106.383 16.488 106.399 16.76 106.399 17.032C106.415 17.304 106.359 17.552 106.231 17.776ZM108.627 19.216C108.451 19.216 108.275 19.216 108.099 19.216C107.923 19.216 107.763 19.168 107.619 19.072C107.475 18.992 107.363 18.864 107.283 18.688C107.219 18.512 107.179 18.336 107.163 18.16C107.163 18.032 107.155 17.816 107.139 17.512C107.123 17.208 107.107 16.864 107.091 16.48C107.075 16.08 107.059 15.664 107.043 15.232C107.043 14.784 107.035 14.368 107.019 13.984C107.003 13.584 106.987 13.24 106.971 12.952C106.971 12.648 106.971 12.432 106.971 12.304C106.971 12.096 106.971 11.728 106.971 11.2C106.971 10.656 106.971 10.04 106.971 9.352C106.987 8.648 106.995 7.912 106.995 7.144C107.011 6.36 107.019 5.624 107.019 4.936C107.035 4.232 107.043 3.616 107.043 3.088C107.059 2.544 107.067 2.16 107.067 1.936C107.067 1.664 107.195 1.488 107.451 1.408C107.723 1.328 107.995 1.28 108.267 1.264C108.555 1.232 108.843 1.224 109.131 1.24C109.419 1.24 109.699 1.272 109.971 1.336C110.099 1.368 110.227 1.416 110.355 1.48C110.499 1.544 110.587 1.632 110.619 1.744C110.635 1.936 110.651 2.288 110.667 2.8C110.699 3.312 110.715 3.864 110.715 4.456C110.731 5.032 110.739 5.576 110.739 6.088C110.755 6.6 110.763 6.952 110.763 7.144C111.227 6.472 111.699 5.816 112.179 5.176C112.675 4.52 113.171 3.864 113.667 3.208C113.731 3.128 113.811 3.024 113.907 2.896C114.003 2.768 114.099 2.648 114.195 2.536C114.307 2.408 114.419 2.304 114.531 2.224C114.643 2.144 114.755 2.104 114.867 2.104C114.947 2.104 115.043 2.144 115.155 2.224C115.283 2.288 115.403 2.368 115.515 2.464C115.643 2.56 115.755 2.656 115.851 2.752C115.963 2.848 116.051 2.92 116.115 2.968C116.195 3.048 116.283 3.144 116.379 3.256C116.491 3.352 116.595 3.464 116.691 3.592C116.787 3.72 116.859 3.848 116.907 3.976C116.971 4.104 116.995 4.216 116.979 4.312C116.963 4.44 116.883 4.616 116.739 4.84C116.595 5.048 116.427 5.272 116.235 5.512C116.059 5.752 115.883 5.976 115.707 6.184C115.547 6.392 115.427 6.544 115.347 6.64C114.883 7.248 114.387 7.832 113.859 8.392C113.331 8.936 112.811 9.504 112.299 10.096C112.715 10.624 113.155 11.144 113.619 11.656C114.083 12.152 114.539 12.648 114.987 13.144C115.451 13.64 115.899 14.144 116.331 14.656C116.763 15.168 117.163 15.712 117.531 16.288C117.611 16.4 117.603 16.52 117.507 16.648C117.427 16.776 117.347 16.88 117.267 16.96C117.139 17.088 117.011 17.208 116.883 17.32C116.755 17.416 116.627 17.528 116.499 17.656C116.371 17.784 116.251 17.912 116.139 18.04C116.027 18.152 115.907 18.264 115.779 18.376C115.699 18.456 115.603 18.528 115.491 18.592C115.395 18.64 115.291 18.672 115.179 18.688C115.035 18.704 114.891 18.672 114.747 18.592C114.635 18.528 114.483 18.392 114.291 18.184C114.099 17.96 113.899 17.72 113.691 17.464C113.499 17.208 113.315 16.96 113.139 16.72C112.963 16.48 112.835 16.312 112.755 16.216C112.403 15.72 112.051 15.232 111.699 14.752C111.363 14.272 111.027 13.776 110.691 13.264C110.707 13.376 110.723 13.608 110.739 13.96C110.771 14.312 110.803 14.696 110.835 15.112C110.883 15.512 110.915 15.888 110.931 16.24C110.963 16.592 110.987 16.824 111.003 16.936C111.003 17.048 111.011 17.2 111.027 17.392C111.059 17.584 111.075 17.784 111.075 17.992C111.075 18.2 111.059 18.392 111.027 18.568C111.011 18.744 110.971 18.872 110.907 18.952C110.827 19.048 110.723 19.104 110.595 19.12C110.483 19.136 110.363 19.152 110.235 19.168C109.963 19.2 109.691 19.208 109.419 19.192C109.163 19.192 108.899 19.2 108.627 19.216Z" fill="black"/>
</svg>
