<svg width="300" height="300" viewBox="0 0 300 300" fill="none" xmlns="http://www.w3.org/2000/svg">
<g clip-path="url(#clip0_589_3019)">
<rect width="300" height="300" fill="white"/>
<path d="M196.178 345.135L114.607 227.495H77.1288L130.039 313.463C118.281 308.184 87.27 298.531 57.2873 302.151C27.3046 305.771 28.6273 335.332 33.0366 349.66L196.178 345.135Z" fill="#222222"/>
<path fill-rule="evenodd" clip-rule="evenodd" d="M116.002 224.831H72.3616L123.576 308.043C108.612 302.731 82.4819 296.426 56.9685 299.506C49.0265 300.465 42.9647 303.172 38.48 307.078C34.0038 310.976 31.2593 315.929 29.7121 321.13C26.6458 331.437 28.1936 342.978 30.491 350.443L31.0866 352.379L201.172 347.662L116.002 224.831ZM113.213 230.159L191.185 342.609L35.0343 346.939C33.2663 340.151 32.3933 330.803 34.8189 322.649C36.1376 318.217 38.4087 314.205 41.9793 311.095C45.5414 307.993 50.5578 305.647 57.6071 304.796C86.9472 301.254 117.456 310.733 128.949 315.893L136.846 319.438L81.897 230.159H113.213Z" fill="#222222"/>
<path d="M294.7 345.135L211.187 227.495H172.816L226.987 313.463C214.949 308.184 183.199 298.531 152.502 302.151C121.806 305.771 123.16 335.332 127.674 349.66L294.7 345.135Z" fill="#222222"/>
<path fill-rule="evenodd" clip-rule="evenodd" d="M212.563 224.831H167.989L220.444 308.076C205.154 302.76 178.352 296.42 152.19 299.505C144.082 300.462 137.894 303.16 133.312 307.057C128.735 310.951 125.923 315.904 124.336 321.114C121.192 331.435 122.78 342.989 125.133 350.46L125.737 352.377L299.761 347.663L212.563 224.831ZM209.811 230.159L289.638 342.607L129.658 346.941C127.847 340.158 126.951 330.813 129.433 322.666C130.78 318.242 133.102 314.231 136.764 311.116C140.421 308.005 145.574 305.65 152.814 304.797C182.884 301.251 214.141 310.739 225.917 315.902L233.87 319.39L177.644 230.159H209.811Z" fill="#222222"/>
<path d="M52.0215 84.3343C52.0215 78.6725 56.6113 74.0827 62.2731 74.0827H239.968C245.63 74.0827 250.22 78.6725 250.22 84.3343V209.063H52.0215V84.3343Z" fill="white"/>
<path fill-rule="evenodd" clip-rule="evenodd" d="M239.968 79.4107H62.2731C59.5538 79.4107 57.3494 81.6151 57.3494 84.3343V203.735H244.892V84.3343C244.892 81.6151 242.687 79.4107 239.968 79.4107ZM62.2731 74.0827C56.6113 74.0827 52.0215 78.6725 52.0215 84.3343V209.063H250.22V84.3343C250.22 78.6725 245.63 74.0827 239.968 74.0827H62.2731Z" fill="#222222"/>
<path d="M62.2729 92.8788C62.2729 87.217 66.8628 82.6272 72.5246 82.6272H231.425C237.087 82.6272 241.676 87.217 241.676 92.8788V204.792H62.2729V92.8788Z" fill="#D9D9D9"/>
<path fill-rule="evenodd" clip-rule="evenodd" d="M231.425 87.9552H72.5246C69.8053 87.9552 67.6009 90.1596 67.6009 92.8788V199.464H236.349V92.8788C236.349 90.1596 234.144 87.9552 231.425 87.9552ZM72.5246 82.6272C66.8628 82.6272 62.2729 87.217 62.2729 92.8788V204.792H241.676V92.8788C241.676 87.217 237.087 82.6272 231.425 82.6272H72.5246Z" fill="#222222"/>
<path d="M30.6646 219.314H272.432V219.314C272.432 224.976 267.842 229.566 262.181 229.566H40.9162C35.2544 229.566 30.6646 224.976 30.6646 219.314V219.314Z" fill="#D9D9D9"/>
<path fill-rule="evenodd" clip-rule="evenodd" d="M272.432 219.314H30.6646C30.6646 221.266 31.2097 223.09 32.1561 224.642C33.9556 227.595 37.2057 229.566 40.9162 229.566H262.181C265.891 229.566 269.141 227.595 270.941 224.642C271.887 223.09 272.432 221.266 272.432 219.314Z" fill="#222222"/>
<path d="M52.4135 194.54H249.672L272.432 219.314H30.6646L52.4135 194.54Z" fill="#D9D9D9"/>
<path fill-rule="evenodd" clip-rule="evenodd" d="M54.826 199.868L42.4315 213.986H260.302L247.331 199.868H54.826ZM249.672 194.54H52.4135L30.6646 219.314H272.432L249.672 194.54Z" fill="#222222"/>
<path d="M186.38 86.8101C185.255 99.8976 175.249 109.726 164.031 108.762C152.814 107.798 144.632 96.4067 145.756 83.3192C146.881 70.2317 156.886 60.4037 168.104 61.3677C179.322 62.3317 187.504 73.7226 186.38 86.8101Z" fill="white"/>
<path fill-rule="evenodd" clip-rule="evenodd" d="M164.488 103.453C172.036 104.102 180.13 97.3068 181.071 86.3539C182.012 75.401 175.196 67.3247 167.648 66.6761C160.1 66.0275 152.006 72.8225 151.065 83.7754C150.123 94.7283 156.94 102.805 164.488 103.453ZM164.031 108.762C175.249 109.726 185.255 99.8976 186.38 86.8101C187.504 73.7226 179.322 62.3317 168.104 61.3677C156.886 60.4037 146.881 70.2317 145.756 83.3192C144.632 96.4067 152.814 107.798 164.031 108.762Z" fill="#222222"/>
<path d="M155.914 84.1878C154.789 97.2753 144.783 107.103 133.566 106.139C122.348 105.175 114.166 93.7844 115.29 80.697C116.415 67.6095 126.421 57.7815 137.638 58.7454C148.856 59.7094 157.038 71.1004 155.914 84.1878Z" fill="white"/>
<path fill-rule="evenodd" clip-rule="evenodd" d="M134.022 100.831C141.57 101.48 149.664 94.6846 150.605 83.7317C151.547 72.7788 144.73 64.7024 137.182 64.0538C129.634 63.4052 121.54 70.2002 120.599 81.1531C119.658 92.106 126.474 100.182 134.022 100.831ZM133.566 106.139C144.783 107.103 154.789 97.2753 155.914 84.1878C157.038 71.1004 148.856 59.7094 137.638 58.7454C126.421 57.7815 116.415 67.6095 115.29 80.697C114.166 93.7844 122.348 105.175 133.566 106.139Z" fill="#222222"/>
<path d="M171.877 82.8733C171.254 90.1254 165.71 95.5713 159.494 95.0372C153.277 94.503 148.744 88.191 149.367 80.9389C149.99 73.6868 155.534 68.2408 161.75 68.775C167.966 69.3092 172.5 75.6212 171.877 82.8733Z" fill="#222222"/>
<path d="M141.413 80.2568C140.79 87.5089 135.246 92.9548 129.03 92.4207C122.814 91.8865 118.28 85.5745 118.903 78.3224C119.526 71.0703 125.07 65.6243 131.286 66.1585C137.503 66.6926 142.036 73.0047 141.413 80.2568Z" fill="#222222"/>
<path d="M210.064 113.984C209.59 121.019 200.359 126.127 189.447 125.392C178.534 124.657 170.071 118.357 170.545 111.322C171.019 104.287 180.25 99.1793 191.163 99.9143C202.075 100.649 210.538 106.949 210.064 113.984Z" fill="#5F5F5F"/>
<path d="M132.801 111.532C132.142 118.553 122.781 123.416 111.891 122.395C101.001 121.373 92.7073 114.854 93.3658 107.833C94.0243 100.813 103.386 95.9497 114.276 96.9711C125.165 97.9925 133.459 104.512 132.801 111.532Z" fill="#5F5F5F"/>
</g>
<defs>
<clipPath id="clip0_589_3019">
<rect width="300" height="300" fill="white"/>
</clipPath>
</defs>
</svg>
