<svg width="112" height="61" viewBox="0 0 112 61" fill="none" xmlns="http://www.w3.org/2000/svg">
<path d="M17.17 1.02C19.29 1.02 20.92 1.48 22.06 2.4C23.22 3.32 23.8 4.54 23.8 6.06C23.8 6.66 23.71 7.29 23.53 7.95C22.97 9.95 21.86 11.43 20.2 12.39C18.56 13.35 16.48 13.83 13.96 13.83H10.87L9.85 17.46C9.81 17.58 9.79 17.74 9.79 17.94C9.79 18.22 9.85 18.45 9.97 18.63C10.11 18.81 10.31 19.02 10.57 19.26C10.79 19.46 10.94 19.61 11.02 19.71C11.1 19.81 11.14 19.93 11.14 20.07C11.14 20.41 10.98 20.65 10.66 20.79C10.34 20.93 9.87 21 9.25 21H1.72C1.2 21 0.81 20.91 0.55 20.73C0.29 20.53 0.2 20.26 0.28 19.92C0.32 19.74 0.4 19.6 0.52 19.5C0.62 19.38 0.78 19.25 1 19.11C1.34 18.91 1.61 18.7 1.81 18.48C2.01 18.26 2.17 17.92 2.29 17.46L5.95 4.53C6.03 4.27 6.07 4.02 6.07 3.78C6.07 3.56 6.03 3.38 5.95 3.24C5.89 3.08 5.8 2.9 5.68 2.7C5.5 2.44 5.41 2.23 5.41 2.07C5.41 2.01 5.43 1.9 5.47 1.74C5.55 1.48 5.72 1.3 5.98 1.2C6.26 1.08 6.68 1.02 7.24 1.02H17.17ZM16.39 7.41C16.61 6.67 16.72 6.02 16.72 5.46C16.72 4.3 16.18 3.72 15.1 3.72H13.75L11.62 11.13H12.94C13.78 11.13 14.46 10.87 14.98 10.35C15.52 9.81 15.99 8.83 16.39 7.41ZM36.675 0.569998C39.195 0.569998 41.165 1.17 42.585 2.37C44.005 3.55 44.715 5.26 44.715 7.5C44.715 8.56 44.555 9.7 44.235 10.92C43.635 13.16 42.705 15.06 41.445 16.62C40.185 18.18 38.685 19.36 36.945 20.16C35.205 20.96 33.315 21.36 31.275 21.36C28.775 21.36 26.815 20.77 25.395 19.59C23.975 18.39 23.265 16.67 23.265 14.43C23.265 13.41 23.435 12.24 23.775 10.92C24.355 8.7 25.265 6.82 26.505 5.28C27.765 3.72 29.255 2.55 30.975 1.77C32.715 0.969999 34.615 0.569998 36.675 0.569998ZM36.135 3.51C35.535 3.51 34.995 3.75 34.515 4.23C34.035 4.71 33.555 5.5 33.075 6.6C32.615 7.68 32.115 9.19 31.575 11.13C30.775 13.93 30.375 15.86 30.375 16.92C30.375 17.54 30.485 17.99 30.705 18.27C30.925 18.55 31.275 18.69 31.755 18.69C32.355 18.69 32.895 18.45 33.375 17.97C33.855 17.47 34.325 16.68 34.785 15.6C35.245 14.52 35.755 13.03 36.315 11.13C37.095 8.37 37.485 6.43 37.485 5.31C37.485 4.67 37.375 4.21 37.155 3.93C36.935 3.65 36.595 3.51 36.135 3.51ZM66.867 1.02C67.967 1.02 68.517 1.47 68.517 2.37C68.517 2.65 68.457 3 68.337 3.42L67.617 5.85C67.397 6.59 67.127 7.11 66.807 7.41C66.487 7.71 66.027 7.86 65.427 7.86C64.927 7.86 64.537 7.73 64.257 7.47C63.997 7.21 63.747 6.8 63.507 6.24L62.997 5.01C62.837 4.63 62.667 4.37 62.487 4.23C62.307 4.09 62.027 4.02 61.647 4.02H60.957L57.147 17.43C57.087 17.69 57.057 17.92 57.057 18.12C57.057 18.36 57.087 18.56 57.147 18.72C57.227 18.88 57.337 19.05 57.477 19.23C57.657 19.51 57.747 19.74 57.747 19.92C57.747 19.96 57.727 20.06 57.687 20.22C57.587 20.48 57.387 20.67 57.087 20.79C56.807 20.91 56.397 20.97 55.857 20.97H48.807C48.387 20.97 48.057 20.9 47.817 20.76C47.597 20.62 47.487 20.42 47.487 20.16C47.487 20.04 47.517 19.92 47.577 19.8C47.657 19.62 47.747 19.49 47.847 19.41C47.967 19.31 48.137 19.19 48.357 19.05C48.657 18.87 48.907 18.67 49.107 18.45C49.307 18.23 49.477 17.89 49.617 17.43L53.397 4.02H52.707C52.267 4.02 51.907 4.09 51.627 4.23C51.347 4.37 51.047 4.63 50.727 5.01L49.737 6.24C49.277 6.78 48.827 7.19 48.387 7.47C47.967 7.73 47.507 7.86 47.007 7.86C46.547 7.86 46.187 7.74 45.927 7.5C45.667 7.26 45.537 6.93 45.537 6.51C45.537 6.31 45.567 6.09 45.627 5.85L46.407 3.12C46.567 2.56 46.747 2.14 46.947 1.86C47.147 1.56 47.427 1.35 47.787 1.23C48.167 1.09 48.697 1.02 49.377 1.02H66.867ZM84.8689 1.02C85.6089 1.02 86.1789 1.18 86.5789 1.5C86.9989 1.82 87.2089 2.26 87.2089 2.82C87.2089 3.1 87.1689 3.37 87.0889 3.63L86.3089 6.42C86.1689 6.96 85.9589 7.34 85.6789 7.56C85.4189 7.76 85.0389 7.86 84.5389 7.86C84.0589 7.86 83.6789 7.76 83.3989 7.56C83.1389 7.34 82.9389 6.99 82.7989 6.51L82.3189 4.8C82.2189 4.44 82.0989 4.2 81.9589 4.08C81.8189 3.96 81.5489 3.9 81.1489 3.9H77.9989L76.4989 9.24H77.8189C77.9589 9.24 78.1489 9.14 78.3889 8.94L79.4089 8.04C79.7089 7.78 79.9689 7.59 80.1889 7.47C80.4089 7.35 80.6789 7.29 80.9989 7.29C81.3589 7.29 81.6489 7.39 81.8689 7.59C82.1089 7.77 82.2289 8.01 82.2289 8.31C82.2289 8.39 82.2089 8.51 82.1689 8.67L80.9389 12.84C80.8189 13.28 80.6089 13.61 80.3089 13.83C80.0289 14.03 79.7189 14.13 79.3789 14.13C78.8189 14.13 78.3989 13.84 78.1189 13.26L77.6089 12.21C77.4689 11.91 77.2489 11.76 76.9489 11.76H75.7789L74.0089 18.12H76.6489C77.0289 18.12 77.3589 18.05 77.6389 17.91C77.9389 17.75 78.2589 17.48 78.5989 17.1L80.3989 15.12C80.7189 14.78 81.0189 14.54 81.2989 14.4C81.5989 14.24 81.9589 14.16 82.3789 14.16C82.8189 14.16 83.1789 14.26 83.4589 14.46C83.7389 14.66 83.8789 14.96 83.8789 15.36C83.8789 15.52 83.8489 15.71 83.7889 15.93L82.9189 18.96C82.6989 19.72 82.3789 20.25 81.9589 20.55C81.5389 20.85 80.9289 21 80.1289 21H65.8189C65.3989 21 65.0789 20.93 64.8589 20.79C64.6189 20.65 64.4989 20.46 64.4989 20.22C64.4989 20.1 64.5289 19.97 64.5889 19.83C64.6689 19.61 64.7989 19.44 64.9789 19.32C65.1589 19.2 65.2689 19.13 65.3089 19.11C65.6289 18.91 65.8889 18.71 66.0889 18.51C66.2889 18.29 66.4589 17.94 66.5989 17.46L70.2889 4.53C70.3689 4.27 70.4089 4.03 70.4089 3.81C70.4089 3.57 70.3689 3.37 70.2889 3.21C70.2289 3.05 70.1289 2.88 69.9889 2.7C69.8089 2.44 69.7189 2.23 69.7189 2.07C69.7189 2.01 69.7389 1.9 69.7789 1.74C69.8589 1.48 70.0389 1.3 70.3189 1.2C70.5989 1.08 71.0089 1.02 71.5489 1.02H84.8689ZM108.161 1.02C108.981 1.02 109.391 1.28 109.391 1.8C109.391 1.94 109.381 2.04 109.361 2.1C109.301 2.3 109.211 2.46 109.091 2.58C108.971 2.68 108.801 2.8 108.581 2.94C108.281 3.12 108.031 3.32 107.831 3.54C107.631 3.76 107.461 4.1 107.321 4.56L103.601 17.88C103.261 19.08 102.831 19.92 102.311 20.4C101.811 20.88 101.111 21.12 100.211 21.12C99.4111 21.12 98.7411 20.89 98.2011 20.43C97.6811 19.95 97.1911 19.22 96.7311 18.24L92.2011 8.7L89.6811 17.46C89.6211 17.72 89.5911 17.95 89.5911 18.15C89.5911 18.41 89.6311 18.63 89.7111 18.81C89.8111 18.97 89.9411 19.14 90.1011 19.32C90.3211 19.58 90.4311 19.8 90.4311 19.98C90.4311 20.1 90.4211 20.19 90.4011 20.25C90.3211 20.53 90.1411 20.73 89.8611 20.85C89.5811 20.95 89.1611 21 88.6011 21H85.3311C84.5111 21 84.1011 20.74 84.1011 20.22C84.1011 20.08 84.1111 19.98 84.1311 19.92C84.1911 19.72 84.2811 19.57 84.4011 19.47C84.5211 19.35 84.6911 19.22 84.9111 19.08C85.2111 18.9 85.4611 18.7 85.6611 18.48C85.8611 18.26 86.0311 17.92 86.1711 17.46L89.9811 3.99L89.5011 3C89.3011 2.6 89.2011 2.25 89.2011 1.95C89.2011 1.33 89.6011 1.02 90.4011 1.02H94.8411C95.4811 1.02 95.9611 1.17 96.2811 1.47C96.6211 1.75 96.9811 2.26 97.3611 3L101.741 11.79L103.811 4.56C103.871 4.28 103.901 4.05 103.901 3.87C103.901 3.61 103.851 3.4 103.751 3.24C103.671 3.06 103.551 2.88 103.391 2.7C103.171 2.44 103.061 2.22 103.061 2.04C103.061 1.92 103.071 1.83 103.091 1.77C103.171 1.49 103.351 1.3 103.631 1.2C103.911 1.08 104.331 1.02 104.891 1.02H108.161ZM11.44 60.18C9.76 60.18 8.25 59.87 6.91 59.25C5.57 58.63 4.5 57.72 3.7 56.52C2.92 55.3 2.53 53.83 2.53 52.11C2.53 50.91 2.74 49.61 3.16 48.21C4.08 45.21 5.47 43.05 7.33 41.73C9.19 40.39 11.18 39.72 13.3 39.72C14.44 39.72 15.45 39.89 16.33 40.23C17.21 40.57 18.02 41.06 18.76 41.7L19.57 41.07C20.11 40.65 20.56 40.36 20.92 40.2C21.3 40.04 21.72 39.96 22.18 39.96C22.68 39.96 23.08 40.07 23.38 40.29C23.68 40.51 23.83 40.83 23.83 41.25C23.83 41.47 23.79 41.69 23.71 41.91L22.03 46.59C21.85 47.13 21.63 47.51 21.37 47.73C21.13 47.95 20.76 48.06 20.26 48.06C19.74 48.06 19.31 47.88 18.97 47.52C18.65 47.14 18.28 46.5 17.86 45.6C17.38 44.66 16.99 44.04 16.69 43.74C16.39 43.44 15.95 43.29 15.37 43.29C14.55 43.29 13.76 43.8 13 44.82C12.24 45.82 11.55 47.33 10.93 49.35C10.41 51.05 10.15 52.47 10.15 53.61C10.15 54.61 10.34 55.36 10.72 55.86C11.1 56.34 11.61 56.58 12.25 56.58C13.19 56.58 13.96 56.37 14.56 55.95C15.18 55.53 15.81 54.96 16.45 54.24C16.85 53.8 17.17 53.48 17.41 53.28C17.67 53.06 17.94 52.95 18.22 52.95C18.58 52.95 18.96 53.13 19.36 53.49C19.76 53.85 19.95 54.21 19.93 54.57C19.95 55.01 19.59 55.69 18.85 56.61C18.13 57.53 17.12 58.36 15.82 59.1C14.54 59.82 13.08 60.18 11.44 60.18ZM47.3768 40.02C47.7968 40.02 48.1168 40.09 48.3368 40.23C48.5768 40.37 48.6968 40.55 48.6968 40.77C48.6968 40.87 48.6668 41 48.6068 41.16C48.5468 41.3 48.4568 41.43 48.3368 41.55C48.2368 41.65 48.1368 41.73 48.0368 41.79C47.9568 41.83 47.8968 41.87 47.8568 41.91C47.5368 42.09 47.2768 42.29 47.0768 42.51C46.8768 42.73 46.7068 43.07 46.5668 43.53L42.8768 56.46C42.7968 56.72 42.7568 56.97 42.7568 57.21C42.7568 57.45 42.7868 57.64 42.8468 57.78C42.9268 57.92 43.0368 58.1 43.1768 58.32C43.1968 58.34 43.2468 58.42 43.3268 58.56C43.4268 58.68 43.4768 58.81 43.4768 58.95C43.4768 58.99 43.4568 59.09 43.4168 59.25C43.3168 59.53 43.1268 59.73 42.8468 59.85C42.5668 59.95 42.1468 60 41.5868 60H34.5368C34.1168 60 33.7868 59.93 33.5468 59.79C33.3268 59.65 33.2168 59.46 33.2168 59.22C33.2168 59.1 33.2468 58.97 33.3068 58.83C33.3868 58.67 33.4968 58.54 33.6368 58.44C33.7768 58.32 33.9168 58.22 34.0568 58.14C34.3768 57.96 34.6368 57.76 34.8368 57.54C35.0368 57.3 35.2068 56.94 35.3468 56.46L36.7868 51.45H31.4768L30.0368 56.46C29.9568 56.72 29.9168 56.97 29.9168 57.21C29.9168 57.45 29.9468 57.64 30.0068 57.78C30.0868 57.92 30.1968 58.1 30.3368 58.32C30.3568 58.34 30.4068 58.42 30.4868 58.56C30.5868 58.68 30.6368 58.81 30.6368 58.95C30.6368 58.99 30.6168 59.09 30.5768 59.25C30.4768 59.53 30.2868 59.73 30.0068 59.85C29.7268 59.95 29.3068 60 28.7468 60H21.6968C21.2768 60 20.9568 59.93 20.7368 59.79C20.4968 59.65 20.3768 59.46 20.3768 59.22C20.3768 59.1 20.4068 58.97 20.4668 58.83C20.5468 58.67 20.6568 58.54 20.7968 58.44C20.9368 58.32 21.0768 58.22 21.2168 58.14C21.5368 57.96 21.7968 57.76 21.9968 57.54C22.1968 57.3 22.3668 56.94 22.5068 56.46L26.1968 43.53C26.2768 43.27 26.3168 43.02 26.3168 42.78C26.3168 42.56 26.2768 42.38 26.1968 42.24C26.1368 42.08 26.0468 41.9 25.9268 41.7C25.8468 41.6 25.7768 41.5 25.7168 41.4C25.6568 41.28 25.6268 41.16 25.6268 41.04C25.6268 41 25.6468 40.9 25.6868 40.74C25.7668 40.48 25.9468 40.3 26.2268 40.2C26.5068 40.08 26.9268 40.02 27.4868 40.02H34.5368C34.9568 40.02 35.2768 40.09 35.4968 40.23C35.7368 40.37 35.8568 40.55 35.8568 40.77C35.8568 40.87 35.8268 41 35.7668 41.16C35.7068 41.3 35.6168 41.43 35.4968 41.55C35.3968 41.65 35.2968 41.73 35.1968 41.79C35.1168 41.83 35.0568 41.87 35.0168 41.91C34.6968 42.09 34.4368 42.29 34.2368 42.51C34.0368 42.73 33.8668 43.07 33.7268 43.53L32.3168 48.45H37.6268L39.0368 43.53C39.1168 43.27 39.1568 43.02 39.1568 42.78C39.1568 42.56 39.1168 42.38 39.0368 42.24C38.9768 42.08 38.8868 41.9 38.7668 41.7C38.6868 41.6 38.6168 41.5 38.5568 41.4C38.4968 41.28 38.4668 41.16 38.4668 41.04C38.4668 41 38.4868 40.9 38.5268 40.74C38.6068 40.48 38.7868 40.3 39.0668 40.2C39.3468 40.08 39.7668 40.02 40.3268 40.02H47.3768ZM66.3528 40.02C67.0928 40.02 67.6628 40.18 68.0627 40.5C68.4827 40.82 68.6927 41.26 68.6927 41.82C68.6927 42.1 68.6527 42.37 68.5728 42.63L67.7927 45.42C67.6527 45.96 67.4427 46.34 67.1627 46.56C66.9027 46.76 66.5228 46.86 66.0227 46.86C65.5427 46.86 65.1627 46.76 64.8827 46.56C64.6227 46.34 64.4227 45.99 64.2828 45.51L63.8027 43.8C63.7027 43.44 63.5827 43.2 63.4428 43.08C63.3027 42.96 63.0327 42.9 62.6328 42.9H59.4827L57.9827 48.24H59.3027C59.4427 48.24 59.6327 48.14 59.8727 47.94L60.8927 47.04C61.1927 46.78 61.4527 46.59 61.6727 46.47C61.8927 46.35 62.1627 46.29 62.4828 46.29C62.8428 46.29 63.1328 46.39 63.3527 46.59C63.5927 46.77 63.7127 47.01 63.7127 47.31C63.7127 47.39 63.6927 47.51 63.6527 47.67L62.4227 51.84C62.3027 52.28 62.0927 52.61 61.7928 52.83C61.5127 53.03 61.2027 53.13 60.8627 53.13C60.3027 53.13 59.8827 52.84 59.6027 52.26L59.0927 51.21C58.9527 50.91 58.7327 50.76 58.4327 50.76H57.2627L55.4927 57.12H58.1327C58.5127 57.12 58.8427 57.05 59.1227 56.91C59.4227 56.75 59.7427 56.48 60.0827 56.1L61.8827 54.12C62.2027 53.78 62.5027 53.54 62.7827 53.4C63.0827 53.24 63.4427 53.16 63.8628 53.16C64.3027 53.16 64.6627 53.26 64.9427 53.46C65.2227 53.66 65.3627 53.96 65.3627 54.36C65.3627 54.52 65.3327 54.71 65.2728 54.93L64.4027 57.96C64.1827 58.72 63.8627 59.25 63.4428 59.55C63.0227 59.85 62.4127 60 61.6127 60H47.3027C46.8827 60 46.5627 59.93 46.3427 59.79C46.1027 59.65 45.9827 59.46 45.9827 59.22C45.9827 59.1 46.0127 58.97 46.0727 58.83C46.1527 58.61 46.2827 58.44 46.4627 58.32C46.6427 58.2 46.7527 58.13 46.7927 58.11C47.1127 57.91 47.3727 57.71 47.5727 57.51C47.7727 57.29 47.9427 56.94 48.0827 56.46L51.7727 43.53C51.8527 43.27 51.8927 43.03 51.8927 42.81C51.8927 42.57 51.8527 42.37 51.7727 42.21C51.7127 42.05 51.6127 41.88 51.4727 41.7C51.2927 41.44 51.2027 41.23 51.2027 41.07C51.2027 41.01 51.2227 40.9 51.2627 40.74C51.3427 40.48 51.5227 40.3 51.8027 40.2C52.0827 40.08 52.4927 40.02 53.0327 40.02H66.3528ZM77.008 60.18C75.328 60.18 73.818 59.87 72.478 59.25C71.138 58.63 70.068 57.72 69.268 56.52C68.488 55.3 68.098 53.83 68.098 52.11C68.098 50.91 68.308 49.61 68.728 48.21C69.648 45.21 71.038 43.05 72.898 41.73C74.758 40.39 76.748 39.72 78.868 39.72C80.008 39.72 81.018 39.89 81.898 40.23C82.778 40.57 83.588 41.06 84.328 41.7L85.138 41.07C85.678 40.65 86.128 40.36 86.488 40.2C86.868 40.04 87.288 39.96 87.748 39.96C88.248 39.96 88.648 40.07 88.948 40.29C89.248 40.51 89.398 40.83 89.398 41.25C89.398 41.47 89.358 41.69 89.278 41.91L87.598 46.59C87.418 47.13 87.198 47.51 86.938 47.73C86.698 47.95 86.328 48.06 85.828 48.06C85.308 48.06 84.878 47.88 84.538 47.52C84.218 47.14 83.848 46.5 83.428 45.6C82.948 44.66 82.558 44.04 82.258 43.74C81.958 43.44 81.518 43.29 80.938 43.29C80.118 43.29 79.328 43.8 78.568 44.82C77.808 45.82 77.118 47.33 76.498 49.35C75.978 51.05 75.718 52.47 75.718 53.61C75.718 54.61 75.908 55.36 76.288 55.86C76.668 56.34 77.178 56.58 77.818 56.58C78.758 56.58 79.528 56.37 80.128 55.95C80.748 55.53 81.378 54.96 82.018 54.24C82.418 53.8 82.738 53.48 82.978 53.28C83.238 53.06 83.508 52.95 83.788 52.95C84.148 52.95 84.528 53.13 84.928 53.49C85.328 53.85 85.518 54.21 85.498 54.57C85.518 55.01 85.158 55.69 84.418 56.61C83.698 57.53 82.688 58.36 81.388 59.1C80.108 59.82 78.648 60.18 77.008 60.18ZM108.685 39.9C109.525 39.9 110.225 40.17 110.785 40.71C111.345 41.25 111.625 41.98 111.625 42.9C111.625 43.94 111.315 44.78 110.695 45.42C110.075 46.06 109.335 46.38 108.475 46.38C107.915 46.38 107.435 46.28 107.035 46.08C106.635 45.88 106.255 45.56 105.895 45.12L103.315 47.28L106.225 55.89C106.405 56.39 106.595 56.79 106.795 57.09C107.015 57.39 107.275 57.69 107.575 57.99C107.795 58.21 107.945 58.39 108.025 58.53C108.125 58.65 108.175 58.8 108.175 58.98C108.175 59.3 108.025 59.55 107.725 59.73C107.445 59.91 106.945 60 106.225 60H102.295C101.315 60 100.585 59.79 100.105 59.37C99.6447 58.93 99.2647 58.21 98.9647 57.21L97.4647 52.17L96.5947 52.89L95.6047 56.46C95.5247 56.72 95.4847 56.97 95.4847 57.21C95.4847 57.45 95.5147 57.65 95.5747 57.81C95.6547 57.97 95.7647 58.14 95.9047 58.32C96.0847 58.58 96.1747 58.79 96.1747 58.95C96.1747 58.99 96.1547 59.09 96.1147 59.25C96.0347 59.53 95.8547 59.73 95.5747 59.85C95.2947 59.95 94.8747 60 94.3147 60H87.2647C86.8447 60 86.5247 59.93 86.3047 59.79C86.0647 59.65 85.9447 59.46 85.9447 59.22C85.9447 59.1 85.9747 58.97 86.0347 58.83C86.1147 58.61 86.2447 58.44 86.4247 58.32C86.6047 58.2 86.7147 58.13 86.7547 58.11C87.0747 57.91 87.3347 57.71 87.5347 57.51C87.7347 57.29 87.9047 56.94 88.0447 56.46L91.7047 43.53C91.7847 43.27 91.8247 43.02 91.8247 42.78C91.8247 42.56 91.7847 42.38 91.7047 42.24C91.6447 42.08 91.5547 41.9 91.4347 41.7C91.2547 41.44 91.1647 41.23 91.1647 41.07C91.1647 41.01 91.1847 40.9 91.2247 40.74C91.3047 40.48 91.4747 40.3 91.7347 40.2C92.0147 40.08 92.4347 40.02 92.9947 40.02H100.045C100.465 40.02 100.785 40.09 101.005 40.23C101.245 40.35 101.365 40.53 101.365 40.77C101.365 40.87 101.335 41 101.275 41.16C101.215 41.3 101.125 41.43 101.005 41.55C100.905 41.65 100.805 41.73 100.705 41.79C100.625 41.83 100.565 41.87 100.525 41.91C100.205 42.09 99.9447 42.29 99.7447 42.51C99.5447 42.73 99.3747 43.07 99.2347 43.53L97.9747 48L105.925 41.13C106.445 40.69 106.915 40.38 107.335 40.2C107.755 40 108.205 39.9 108.685 39.9Z" fill="black"/>
</svg>
