<svg width="367" height="217" viewBox="0 0 367 217" fill="none" xmlns="http://www.w3.org/2000/svg">
<g filter="url(#filter0_d_394_2301)">
<rect x="8" y="62.3525" width="129.678" height="156.363" rx="7.49045" transform="rotate(-20 8 62.3525)" fill="#48A7A4"/>
<rect x="6.79992" y="61.7929" width="131.551" height="158.236" rx="8.42675" transform="rotate(-20 6.79992 61.7929)" stroke="white" stroke-width="1.87261"/>
</g>
<g filter="url(#filter1_d_394_2301)">
<rect x="237.479" y="18.0001" width="129.678" height="156.363" rx="7.49045" transform="rotate(20 237.479 18.0001)" fill="#FFDA7F"/>
<rect x="236.92" y="16.8" width="131.551" height="158.236" rx="8.42675" transform="rotate(20 236.92 16.8)" stroke="white" stroke-width="1.87261"/>
</g>
<g filter="url(#filter2_d_394_2301)">
<rect x="109" y="11" width="149.678" height="180.479" rx="8.64568" fill="#E6713F" shape-rendering="crispEdges"/>
<rect x="107.919" y="9.91929" width="151.84" height="182.64" rx="9.72639" stroke="white" stroke-width="2.16142" shape-rendering="crispEdges"/>
<path d="M153.377 97.967C154.623 98.7863 157.959 99.9332 161.34 97.967" stroke="#222222" stroke-width="1.22621"/>
<path d="M153.639 99.8122L154.147 92.1907H160.668L161.176 99.8122H153.639Z" fill="white" stroke="#222222" stroke-width="1.22621"/>
<path d="M144.849 84.8453C145.027 83.5797 146.115 83.7231 146.708 83.9789C146.763 84.0025 146.821 84.0164 146.881 84.0164L165.66 84.0144C165.837 84.0144 165.985 83.8875 166.093 83.7462C166.687 82.9668 168.704 83.2367 168.418 84.8437C168.165 86.2313 166.832 88.361 166.219 88.4564C165.83 88.5169 165.532 88.5014 165.37 88.4765C165.305 88.4665 165.237 88.4613 165.177 88.4873C164.385 88.8288 164.325 91.0702 162.716 92.9632C161.379 94.5361 158.282 95.005 156.901 95.0428C155.023 95.0878 153.325 94.5463 151.795 93.5438C149.641 92.1318 149.273 89.0363 148.657 88.4564C148.199 88.0248 148.498 88.4948 147.256 87.9995C146.791 87.8138 144.616 86.5031 144.849 84.8453Z" fill="white" stroke="#222222" stroke-width="1.22621"/>
<path d="M149.266 84.0164L149.602 87.3956L146.791 83.7383C146.66 79.8944 147.106 72.1867 153.477 72.108C154.034 72.1408 155.895 72.3036 156.524 72.6969C157.212 72.4979 158.726 72.1016 159.277 72.108C160.063 72.108 166.832 71.3952 166.832 83.456L165.372 86.5582L164.881 83.7383C164.554 84.0177 163.047 85.98 161.632 86.6091C160.216 87.2383 157.637 87.3956 156.524 87.3956C152.858 87.3956 149.989 84.9265 149.266 84.0164Z" fill="#222222" stroke="#222222" stroke-width="0.613104"/>
<rect x="142.366" y="117.335" width="29.4921" height="20.4479" fill="#D9D9D9"/>
<path d="M184.662 97.28C184.662 96.3156 185.444 95.5338 186.408 95.5338H227.304C228.268 95.5338 229.05 96.3156 229.05 97.28V125.373H184.662V97.28Z" fill="white" stroke="#222222" stroke-width="1.22621"/>
<path d="M187.021 99.2471C187.021 98.2826 187.803 97.5008 188.768 97.5008H225.338C226.302 97.5008 227.084 98.2826 227.084 99.2471V124.39H187.021V99.2471Z" fill="#D9D9D9" stroke="#222222" stroke-width="1.22621"/>
<path d="M234.052 128.957C233.804 129.619 233.165 130.091 232.416 130.091H181.493C180.744 130.091 180.106 129.619 179.858 128.957H234.052Z" fill="#D9D9D9" stroke="#222222" stroke-width="1.17969"/>
<path d="M180.488 127.731L184.417 123.256H229.268L233.38 127.731H180.488Z" fill="#D9D9D9" stroke="#222222" stroke-width="1.22621"/>
<path d="M217.225 165.839L198.452 138.765H189.827L202.004 158.55C199.298 157.335 192.161 155.114 185.26 155.947C178.36 156.78 178.664 163.583 179.679 166.881L217.225 165.839Z" fill="#222222" stroke="#222222" stroke-width="1.22621"/>
<path d="M123.089 148.595C126.235 144.034 142.029 140.796 149.533 139.747H168.668C168.899 139.747 169.08 139.944 169.06 140.174L167.16 162.498C167.143 162.698 166.986 162.853 166.786 162.858C155.93 163.119 133.344 163.472 127.119 162.849C119.255 162.063 119.157 154.297 123.089 148.595Z" fill="#D9D9D9" stroke="#222222" stroke-width="1.22621"/>
<path d="M144.414 121.426C143.728 124.23 142.559 126.603 141.253 128.176C139.918 129.785 138.587 130.399 137.546 130.144C136.504 129.889 135.608 128.73 135.167 126.686C134.737 124.687 134.797 122.042 135.484 119.238C136.171 116.434 137.34 114.061 138.645 112.488C139.981 110.879 141.311 110.265 142.353 110.52C143.395 110.775 144.291 111.934 144.731 113.978C145.162 115.977 145.101 118.622 144.414 121.426Z" fill="white" stroke="#222222" stroke-width="1.22621"/>
<path d="M146.261 127.508C148.303 129.549 149.726 131.779 150.394 133.712C151.077 135.688 150.912 137.144 150.154 137.902C149.396 138.661 147.94 138.825 145.964 138.142C144.031 137.474 141.801 136.051 139.76 134.009C137.719 131.968 136.295 129.738 135.627 127.806C134.944 125.83 135.109 124.374 135.867 123.615C136.625 122.857 138.081 122.692 140.058 123.375C141.99 124.043 144.22 125.467 146.261 127.508Z" fill="white" stroke="#222222" stroke-width="1.22621"/>
<path d="M239.9 165.839L220.68 138.765H211.849L224.316 158.55C221.545 157.335 214.238 155.114 207.174 155.947C200.109 156.78 200.42 163.583 201.459 166.881L239.9 165.839Z" fill="#222222" stroke="#E6713F" stroke-width="1.22621"/>
<path d="M157.702 99.638C155.798 99.638 154.048 98.7163 153.344 98.2116C153.3 98.1803 153.253 98.1573 153.201 98.1453C151.951 97.8603 149.021 97.5027 145.349 97.7943C143.396 97.9494 141.561 98.851 140.384 100.417C136.744 105.264 134.499 112.351 133.694 115.993C133.649 116.195 133.771 116.394 133.97 116.449L142.079 118.727C142.249 118.775 142.366 118.929 142.359 119.105C142.214 122.57 139.861 137.736 138.603 145.506C138.565 145.74 138.738 145.948 138.974 145.957C143.122 146.112 154.829 146.65 172.252 147.71C190.053 148.794 228.421 149.649 246.219 149.957C246.556 149.963 246.731 149.572 246.516 149.312C242.273 144.164 235.383 135.029 238.019 135.029C240.664 135.029 244.853 131.094 246.833 128.897C246.966 128.75 246.966 128.53 246.834 128.382C243.276 124.393 236.194 116.577 234.578 115.269C233.071 114.048 230.902 114.1 229.763 114.318C229.587 114.352 229.466 114.509 229.466 114.689V115.893C229.466 115.935 229.462 115.974 229.443 116.012C228.809 117.245 220.118 120.781 206.659 121.266C192.994 121.757 190.93 116.94 184.442 116.35C177.953 115.76 178.641 107.699 174.611 101.801C171.43 97.1462 164.608 97.4018 161.467 98.133C161.383 98.1526 161.311 98.2008 161.252 98.2646C160.778 98.778 159.541 99.638 157.702 99.638Z" fill="white" stroke="#222222" stroke-width="1.22621"/>
<path d="M214.36 97.7972C214.122 100.564 212.039 102.476 209.88 102.291C207.72 102.105 205.995 99.8652 206.232 97.0988C206.47 94.3324 208.553 92.4195 210.712 92.6051C212.872 92.7907 214.598 95.0308 214.36 97.7972Z" fill="white" stroke="#222222" stroke-width="1.22621"/>
<path d="M207.349 97.1939C207.111 99.9603 205.028 101.873 202.869 101.688C200.709 101.502 198.983 99.2619 199.221 96.4955C199.459 93.7291 201.542 91.8163 203.701 92.0018C205.86 92.1874 207.586 94.4275 207.349 97.1939Z" fill="white" stroke="#222222" stroke-width="1.22621"/>
<ellipse cx="209.043" cy="96.7202" rx="2.59989" ry="3.03321" transform="rotate(4.9115 209.043 96.7202)" fill="#222222"/>
<ellipse cx="202.032" cy="96.1192" rx="2.59989" ry="3.03321" transform="rotate(4.9115 202.032 96.1192)" fill="#222222"/>
<ellipse cx="215.874" cy="103.796" rx="4.55782" ry="2.9384" transform="rotate(3.85348 215.874 103.796)" fill="#5F5F5F"/>
<ellipse cx="198.101" cy="103.114" rx="4.55782" ry="2.9384" transform="rotate(5.35851 198.101 103.114)" fill="#5F5F5F"/>
<path d="M162.243 115.626C160.511 119.094 157.621 148.087 156.359 162.528C156.34 162.744 156.501 162.926 156.718 162.945L179.278 164.877C179.514 164.897 179.715 164.715 179.705 164.479C179.123 149.937 177.993 121.2 177.993 119.179C177.993 116.628 175.99 113.257 172.075 111.709C168.161 110.16 164.428 111.253 162.243 115.626Z" fill="#D9D9D9" stroke="#222222" stroke-width="1.22621"/>
<mask id="path-29-inside-1_394_2301" fill="white">
<path d="M157.506 164.387H177.561V168.909H157.506V164.387Z"/>
</mask>
<path d="M157.506 164.387H177.561V168.909H157.506V164.387Z" fill="#222222"/>
<path d="M177.561 168.909V170.135H178.787V168.909H177.561ZM157.506 168.909H156.28V170.135H157.506V168.909ZM176.334 164.387V168.909H178.787V164.387H176.334ZM177.561 167.683H157.506V170.135H177.561V167.683ZM158.732 168.909V164.387H156.28V168.909H158.732Z" fill="#222222" mask="url(#path-29-inside-1_394_2301)"/>
<path d="M158.143 164.499C158.455 160.563 161.748 157.467 165.764 157.467H169.303C173.318 157.467 176.611 160.563 176.923 164.499H158.143Z" fill="#222222" stroke="#222222" stroke-width="1.22621"/>
<path d="M170.203 33.6011L170.955 38.8614" stroke="#222222" stroke-width="1.22621"/>
<path d="M204.544 32.3452L201.288 36.5447" stroke="#222222" stroke-width="1.22621"/>
<path d="M158.555 41.4922L164.566 44.4981" stroke="#222222" stroke-width="1.22621"/>
<path d="M190.772 29.4678L192.796 35.8774" stroke="#222222" stroke-width="1.22621"/>
<path d="M163.439 36.6067L167.948 41.1155" stroke="#222222" stroke-width="1.22621"/>
<path d="M197.68 29.5776L197.578 35.9533" stroke="#222222" stroke-width="1.22621"/>
<path d="M195.71 67.9279C194.04 71.4639 191.405 75.3859 188.37 79.2052C183.519 71.9821 174.435 62.4665 171.752 58.5772C171.702 58.5053 171.652 58.4471 171.591 58.3846C169.205 55.9412 166.373 46.4237 174.084 44.1625C180.076 42.4057 183.783 47.7038 185.048 50.9182C185.055 50.9338 185.06 50.9495 185.065 50.965C185.069 50.6042 185.105 49.9991 185.197 49.0284C185.498 45.8798 186.099 39.9923 193.007 41.3074C199.915 42.6225 203.974 50.4255 195.71 67.9279Z" fill="white"/>
<path d="M168.364 97.8298C174.772 94.872 190.304 79.3773 195.71 67.9279C203.974 50.4255 199.915 42.6225 193.007 41.3074C186.099 39.9923 185.498 45.8798 185.197 49.0284C185.085 50.2079 185.056 50.8477 185.067 51.1652C185.077 51.4427 185.15 51.1766 185.048 50.9182C183.783 47.7038 180.076 42.4057 174.084 44.1625C166.373 46.4237 169.205 55.9412 171.591 58.3846C171.652 58.4471 171.702 58.5053 171.752 58.5772C175.18 63.5464 189.057 77.6999 191.205 84.5219C193.367 91.3916 193.908 94.8264 193.908 95.6851" stroke="#222222" stroke-width="1.22621"/>
</g>
<defs>
<filter id="filter0_d_394_2301" x="0.509554" y="10.5094" width="190.318" height="206.267" filterUnits="userSpaceOnUse" color-interpolation-filters="sRGB">
<feFlood flood-opacity="0" result="BackgroundImageFix"/>
<feColorMatrix in="SourceAlpha" type="matrix" values="0 0 0 0 0 0 0 0 0 0 0 0 0 0 0 0 0 0 127 0" result="hardAlpha"/>
<feOffset/>
<feGaussianBlur stdDeviation="3.74522"/>
<feComposite in2="hardAlpha" operator="out"/>
<feColorMatrix type="matrix" values="0 0 0 0 0 0 0 0 0 0 0 0 0 0 0 0 0 0 0.12 0"/>
<feBlend mode="normal" in2="BackgroundImageFix" result="effect1_dropShadow_394_2301"/>
<feBlend mode="normal" in="SourceGraphic" in2="effect1_dropShadow_394_2301" result="shape"/>
</filter>
<filter id="filter1_d_394_2301" x="176.509" y="10.5097" width="190.318" height="206.267" filterUnits="userSpaceOnUse" color-interpolation-filters="sRGB">
<feFlood flood-opacity="0" result="BackgroundImageFix"/>
<feColorMatrix in="SourceAlpha" type="matrix" values="0 0 0 0 0 0 0 0 0 0 0 0 0 0 0 0 0 0 127 0" result="hardAlpha"/>
<feOffset/>
<feGaussianBlur stdDeviation="3.74522"/>
<feComposite in2="hardAlpha" operator="out"/>
<feColorMatrix type="matrix" values="0 0 0 0 0 0 0 0 0 0 0 0 0 0 0 0 0 0 0.12 0"/>
<feBlend mode="normal" in2="BackgroundImageFix" result="effect1_dropShadow_394_2301"/>
<feBlend mode="normal" in="SourceGraphic" in2="effect1_dropShadow_394_2301" result="shape"/>
</filter>
<filter id="filter2_d_394_2301" x="98.1929" y="0.192943" width="171.292" height="202.093" filterUnits="userSpaceOnUse" color-interpolation-filters="sRGB">
<feFlood flood-opacity="0" result="BackgroundImageFix"/>
<feColorMatrix in="SourceAlpha" type="matrix" values="0 0 0 0 0 0 0 0 0 0 0 0 0 0 0 0 0 0 127 0" result="hardAlpha"/>
<feOffset/>
<feGaussianBlur stdDeviation="4.32284"/>
<feComposite in2="hardAlpha" operator="out"/>
<feColorMatrix type="matrix" values="0 0 0 0 0 0 0 0 0 0 0 0 0 0 0 0 0 0 0.12 0"/>
<feBlend mode="normal" in2="BackgroundImageFix" result="effect1_dropShadow_394_2301"/>
<feBlend mode="normal" in="SourceGraphic" in2="effect1_dropShadow_394_2301" result="shape"/>
</filter>
</defs>
</svg>
